%TF.GenerationSoftware,KiCad,Pcbnew,8.0.4*%
%TF.CreationDate,2024-08-17T13:27:17+02:00*%
%TF.ProjectId,letterboxsensor,6c657474-6572-4626-9f78-73656e736f72,rev?*%
%TF.SameCoordinates,Original*%
%TF.FileFunction,Soldermask,Top*%
%TF.FilePolarity,Negative*%
%FSLAX46Y46*%
G04 Gerber Fmt 4.6, Leading zero omitted, Abs format (unit mm)*
G04 Created by KiCad (PCBNEW 8.0.4) date 2024-08-17 13:27:17*
%MOMM*%
%LPD*%
G01*
G04 APERTURE LIST*
G04 Aperture macros list*
%AMRoundRect*
0 Rectangle with rounded corners*
0 $1 Rounding radius*
0 $2 $3 $4 $5 $6 $7 $8 $9 X,Y pos of 4 corners*
0 Add a 4 corners polygon primitive as box body*
4,1,4,$2,$3,$4,$5,$6,$7,$8,$9,$2,$3,0*
0 Add four circle primitives for the rounded corners*
1,1,$1+$1,$2,$3*
1,1,$1+$1,$4,$5*
1,1,$1+$1,$6,$7*
1,1,$1+$1,$8,$9*
0 Add four rect primitives between the rounded corners*
20,1,$1+$1,$2,$3,$4,$5,0*
20,1,$1+$1,$4,$5,$6,$7,0*
20,1,$1+$1,$6,$7,$8,$9,0*
20,1,$1+$1,$8,$9,$2,$3,0*%
G04 Aperture macros list end*
%ADD10C,2.200000*%
%ADD11C,1.152000*%
%ADD12RoundRect,0.250000X-0.450000X0.350000X-0.450000X-0.350000X0.450000X-0.350000X0.450000X0.350000X0*%
%ADD13RoundRect,0.250000X-0.350000X-0.450000X0.350000X-0.450000X0.350000X0.450000X-0.350000X0.450000X0*%
%ADD14RoundRect,0.250000X0.450000X-0.350000X0.450000X0.350000X-0.450000X0.350000X-0.450000X-0.350000X0*%
%ADD15RoundRect,0.250000X-0.337500X-0.475000X0.337500X-0.475000X0.337500X0.475000X-0.337500X0.475000X0*%
%ADD16RoundRect,0.250000X0.337500X0.475000X-0.337500X0.475000X-0.337500X-0.475000X0.337500X-0.475000X0*%
%ADD17RoundRect,0.250000X-1.025000X0.875000X-1.025000X-0.875000X1.025000X-0.875000X1.025000X0.875000X0*%
%ADD18C,0.750013*%
%ADD19O,2.100000X1.100000*%
%ADD20O,1.800000X1.200000*%
%ADD21R,1.300000X0.600000*%
%ADD22R,1.300000X0.300000*%
%ADD23C,1.800000*%
%ADD24RoundRect,0.237500X0.250000X0.237500X-0.250000X0.237500X-0.250000X-0.237500X0.250000X-0.237500X0*%
%ADD25R,1.000000X1.399543*%
%ADD26R,4.200000X3.800000*%
%ADD27R,1.800000X0.800000*%
%ADD28R,0.800000X1.800000*%
%ADD29RoundRect,0.250000X0.475000X-0.337500X0.475000X0.337500X-0.475000X0.337500X-0.475000X-0.337500X0*%
%ADD30C,0.300000*%
%ADD31R,2.500000X0.650013*%
%ADD32R,2.300000X1.300000*%
%ADD33RoundRect,0.218750X0.218750X0.381250X-0.218750X0.381250X-0.218750X-0.381250X0.218750X-0.381250X0*%
%ADD34RoundRect,0.250000X0.350000X0.450000X-0.350000X0.450000X-0.350000X-0.450000X0.350000X-0.450000X0*%
%ADD35R,0.400000X1.200000*%
G04 APERTURE END LIST*
D10*
%TO.C,H4*%
X168000000Y-84000000D03*
%TD*%
%TO.C,H3*%
X168000000Y-46000000D03*
%TD*%
%TO.C,H2*%
X102000000Y-84000000D03*
%TD*%
%TO.C,H1*%
X102000000Y-46000000D03*
%TD*%
D11*
%TO.C,H6*%
X72650000Y-82380000D03*
%TD*%
%TO.C,H5*%
X190730000Y-44200000D03*
%TD*%
D12*
%TO.C,R10*%
X78500000Y-49000000D03*
X78500000Y-51000000D03*
%TD*%
D13*
%TO.C,R12*%
X87000000Y-67000000D03*
X89000000Y-67000000D03*
%TD*%
%TO.C,R5*%
X133500000Y-44500000D03*
X135500000Y-44500000D03*
%TD*%
D14*
%TO.C,R9*%
X73000000Y-51000000D03*
X73000000Y-49000000D03*
%TD*%
D15*
%TO.C,C1*%
X137450000Y-83150000D03*
X139525000Y-83150000D03*
%TD*%
D16*
%TO.C,C3*%
X89037500Y-62000000D03*
X86962500Y-62000000D03*
%TD*%
D17*
%TO.C,C4*%
X119500000Y-63800000D03*
X119500000Y-70200000D03*
%TD*%
D18*
%TO.C,U1*%
X77812948Y-62100965D03*
X77812948Y-67881001D03*
D19*
X78313049Y-60665989D03*
D20*
X74112948Y-60665989D03*
D19*
X78313049Y-69316002D03*
D20*
X74058947Y-69333985D03*
D21*
X78963037Y-61791085D03*
X78963037Y-62590932D03*
D22*
X78963037Y-63741046D03*
X78963037Y-64741046D03*
X78963037Y-65240919D03*
X78964053Y-66240665D03*
D21*
X78963291Y-67391034D03*
X78963037Y-68190881D03*
D22*
X78963037Y-66741046D03*
X78963037Y-65741046D03*
X78963037Y-64240919D03*
X78964053Y-63240919D03*
%TD*%
D23*
%TO.C,SW2*%
X90750064Y-44750064D03*
X97249936Y-44750064D03*
X90750064Y-49249936D03*
X97249936Y-49249936D03*
%TD*%
D24*
%TO.C,R3*%
X114912500Y-63000000D03*
X113087500Y-63000000D03*
%TD*%
D13*
%TO.C,R1*%
X82500000Y-64350000D03*
X84500000Y-64350000D03*
%TD*%
D25*
%TO.C,D1*%
X140000000Y-44500000D03*
X137899416Y-44500000D03*
%TD*%
D26*
%TO.C,BT1*%
X133885065Y-52500000D03*
X105114935Y-52500000D03*
%TD*%
D17*
%TO.C,C5*%
X126000000Y-63800000D03*
X126000000Y-70200000D03*
%TD*%
D27*
%TO.C,U5*%
X158287656Y-75679959D03*
X158287656Y-74679959D03*
X158287656Y-73679959D03*
X158287656Y-72679959D03*
X158287656Y-71679959D03*
X158287656Y-70679959D03*
X158287656Y-69679959D03*
X158287656Y-68679959D03*
X158287656Y-67679959D03*
X158287656Y-66679959D03*
X158287656Y-65679959D03*
X158287656Y-64679959D03*
D28*
X150500000Y-62431293D03*
X149500000Y-62431293D03*
X148500000Y-62431293D03*
X147500000Y-62431293D03*
D27*
X143712598Y-64679959D03*
X143712344Y-65679451D03*
X143712598Y-66679959D03*
X143712598Y-71679959D03*
X143712598Y-72679959D03*
X143712598Y-73679959D03*
X143712598Y-74679959D03*
X143712598Y-75679959D03*
D28*
X147500000Y-77568707D03*
X148500000Y-77568707D03*
X149500000Y-77568707D03*
X150500000Y-77568707D03*
X151500000Y-77568707D03*
X152500000Y-77568707D03*
X153500000Y-77568707D03*
X154500000Y-77568707D03*
%TD*%
D29*
%TO.C,C6*%
X161000000Y-63000000D03*
X161000000Y-60925000D03*
%TD*%
D24*
%TO.C,R4*%
X110325000Y-63000000D03*
X108500000Y-63000000D03*
%TD*%
D30*
%TO.C,AE1*%
X189200000Y-47000000D03*
X188700000Y-47000000D03*
X188200000Y-47000000D03*
X187700000Y-47000000D03*
X187200000Y-47000000D03*
X186700000Y-47000000D03*
X186200000Y-47000000D03*
X185700000Y-47000000D03*
X185200000Y-47000000D03*
X184700000Y-47000000D03*
X184200000Y-47000000D03*
X179200000Y-47000000D03*
X178700000Y-47000000D03*
X178200000Y-47000000D03*
X177700000Y-47000000D03*
X177200000Y-47000000D03*
X176700000Y-47000000D03*
X176200000Y-47000000D03*
X175700000Y-47000000D03*
X175200000Y-47000000D03*
X174700000Y-47000000D03*
X174200000Y-47000000D03*
X189200000Y-47500000D03*
X184200000Y-47500000D03*
X179200000Y-47500000D03*
X174200000Y-47500000D03*
X189200000Y-48000000D03*
X184200000Y-48000000D03*
X179200000Y-48000000D03*
X174200000Y-48000000D03*
X189200000Y-48500000D03*
X184200000Y-48500000D03*
X179200000Y-48500000D03*
X174200000Y-48500000D03*
X189200000Y-49000000D03*
X184200000Y-49000000D03*
X179200000Y-49000000D03*
X174200000Y-49000000D03*
X189200000Y-49500000D03*
X184200000Y-49500000D03*
X179200000Y-49500000D03*
X174200000Y-49500000D03*
X189200000Y-50000000D03*
X184200000Y-50000000D03*
X179200000Y-50000000D03*
X174200000Y-50000000D03*
X189200000Y-50500000D03*
X184200000Y-50500000D03*
X179200000Y-50500000D03*
X174200000Y-50500000D03*
X189200000Y-51000000D03*
X184200000Y-51000000D03*
X179200000Y-51000000D03*
X174200000Y-51000000D03*
X189200000Y-51500000D03*
X184200000Y-51500000D03*
X179200000Y-51500000D03*
X174200000Y-51500000D03*
X189200000Y-52000000D03*
X184200000Y-52000000D03*
X179200000Y-52000000D03*
X174200000Y-52000000D03*
X189200000Y-52500000D03*
X184200000Y-52500000D03*
X179200000Y-52500000D03*
X174200000Y-52500000D03*
X189200000Y-53000000D03*
X184200000Y-53000000D03*
X179200000Y-53000000D03*
X174200000Y-53000000D03*
X189200000Y-53500000D03*
X184200000Y-53500000D03*
X179200000Y-53500000D03*
X174200000Y-53500000D03*
X189200000Y-54000000D03*
X184200000Y-54000000D03*
X179200000Y-54000000D03*
X174200000Y-54000000D03*
X189200000Y-54500000D03*
X184200000Y-54500000D03*
X179200000Y-54500000D03*
X174200000Y-54500000D03*
X189200000Y-55000000D03*
X184200000Y-55000000D03*
X179200000Y-55000000D03*
X174200000Y-55000000D03*
X189200000Y-55500000D03*
X184200000Y-55500000D03*
X179200000Y-55500000D03*
X174200000Y-55500000D03*
X189200000Y-56000000D03*
X184200000Y-56000000D03*
X179200000Y-56000000D03*
X174200000Y-56000000D03*
X189200000Y-56500000D03*
X184200000Y-56500000D03*
X179200000Y-56500000D03*
X174200000Y-56500000D03*
X189200000Y-57000000D03*
X184200000Y-57000000D03*
X179200000Y-57000000D03*
X174200000Y-57000000D03*
X189200000Y-57500000D03*
X184200000Y-57500000D03*
X179200000Y-57500000D03*
X174200000Y-57500000D03*
X189200000Y-58000000D03*
X184200000Y-58000000D03*
X179200000Y-58000000D03*
X174200000Y-58000000D03*
X189200000Y-58500000D03*
X184200000Y-58500000D03*
X179200000Y-58500000D03*
X174200000Y-58500000D03*
X189200000Y-59000000D03*
X184200000Y-59000000D03*
X179200000Y-59000000D03*
X174200000Y-59000000D03*
X189200000Y-59500000D03*
X184200000Y-59500000D03*
X179200000Y-59500000D03*
X174200000Y-59500000D03*
X189200000Y-60000000D03*
X184200000Y-60000000D03*
X179200000Y-60000000D03*
X174200000Y-60000000D03*
X189200000Y-60500000D03*
X184200000Y-60500000D03*
X179200000Y-60500000D03*
X174200000Y-60500000D03*
X189200000Y-61000000D03*
X184200000Y-61000000D03*
X179200000Y-61000000D03*
X174200000Y-61000000D03*
X189200000Y-61500000D03*
X184200000Y-61500000D03*
X179200000Y-61500000D03*
X174200000Y-61500000D03*
X189200000Y-62000000D03*
X184200000Y-62000000D03*
X179200000Y-62000000D03*
X174200000Y-62000000D03*
X189200000Y-62500000D03*
X184200000Y-62500000D03*
X179200000Y-62500000D03*
X174200000Y-62500000D03*
X189200000Y-63000000D03*
X184200000Y-63000000D03*
X179200000Y-63000000D03*
X174200000Y-63000000D03*
X189200000Y-63500000D03*
X184200000Y-63500000D03*
X179200000Y-63500000D03*
X174200000Y-63500000D03*
X189200000Y-64000000D03*
X184200000Y-64000000D03*
X179200000Y-64000000D03*
X174200000Y-64000000D03*
X189200000Y-64500000D03*
X184200000Y-64500000D03*
X179200000Y-64500000D03*
X174200000Y-64500000D03*
X189200000Y-65000000D03*
X184200000Y-65000000D03*
X179200000Y-65000000D03*
X174200000Y-65000000D03*
X173700000Y-65000000D03*
X173200000Y-65000000D03*
X172700000Y-65000000D03*
X172200000Y-65000000D03*
X171700000Y-65000000D03*
X171200000Y-65000000D03*
X170700000Y-65000000D03*
X170200000Y-65000000D03*
X169700000Y-65000000D03*
X169200000Y-65000000D03*
X168700000Y-65000000D03*
X168200000Y-65000000D03*
X167700000Y-65000000D03*
X167200000Y-65000000D03*
X166700000Y-65000000D03*
X189200000Y-65500000D03*
X184200000Y-65500000D03*
X179200000Y-65500000D03*
X189200000Y-66000000D03*
X184200000Y-66000000D03*
X179200000Y-66000000D03*
X189200000Y-66500000D03*
X184200000Y-66500000D03*
X179200000Y-66500000D03*
X189200000Y-67000000D03*
X184200000Y-67000000D03*
X179200000Y-67000000D03*
X189200000Y-67500000D03*
X184200000Y-67500000D03*
X179200000Y-67500000D03*
X189200000Y-68000000D03*
X184200000Y-68000000D03*
X179200000Y-68000000D03*
X189200000Y-68500000D03*
X184200000Y-68500000D03*
X179200000Y-68500000D03*
X189200000Y-69000000D03*
X184200000Y-69000000D03*
X179200000Y-69000000D03*
X189200000Y-69500000D03*
X184200000Y-69500000D03*
X179200000Y-69500000D03*
X189200000Y-70000000D03*
X184200000Y-70000000D03*
X179200000Y-70000000D03*
X189200000Y-70500000D03*
X184200000Y-70500000D03*
X179200000Y-70500000D03*
X189200000Y-71000000D03*
X184200000Y-71000000D03*
X179200000Y-71000000D03*
X189200000Y-71500000D03*
X184200000Y-71500000D03*
X179200000Y-71500000D03*
X189200000Y-72000000D03*
X184200000Y-72000000D03*
X179200000Y-72000000D03*
X189200000Y-72500000D03*
X184200000Y-72500000D03*
X179200000Y-72500000D03*
X189200000Y-73000000D03*
X184200000Y-73000000D03*
X179200000Y-73000000D03*
X189200000Y-73500000D03*
X184200000Y-73500000D03*
X179200000Y-73500000D03*
X189200000Y-74000000D03*
X184200000Y-74000000D03*
X179200000Y-74000000D03*
X189200000Y-74500000D03*
X184200000Y-74500000D03*
X179200000Y-74500000D03*
X189200000Y-75000000D03*
X184200000Y-75000000D03*
X179200000Y-75000000D03*
X189200000Y-75500000D03*
X184200000Y-75500000D03*
X179200000Y-75500000D03*
X189200000Y-76000000D03*
X184200000Y-76000000D03*
X179200000Y-76000000D03*
X189200000Y-76500000D03*
X184200000Y-76500000D03*
X179200000Y-76500000D03*
X189200000Y-77000000D03*
X184200000Y-77000000D03*
X179200000Y-77000000D03*
X189200000Y-77500000D03*
X184200000Y-77500000D03*
X179200000Y-77500000D03*
X189200000Y-78000000D03*
X184200000Y-78000000D03*
X179200000Y-78000000D03*
X189200000Y-78500000D03*
X184200000Y-78500000D03*
X179200000Y-78500000D03*
X189200000Y-79000000D03*
X184200000Y-79000000D03*
X179200000Y-79000000D03*
X189200000Y-79500000D03*
X184200000Y-79500000D03*
X179200000Y-79500000D03*
X189200000Y-80000000D03*
X184200000Y-80000000D03*
X179200000Y-80000000D03*
X189200000Y-80500000D03*
X184200000Y-80500000D03*
X179200000Y-80500000D03*
X189200000Y-81000000D03*
X184200000Y-81000000D03*
X179200000Y-81000000D03*
X189200000Y-81500000D03*
X184200000Y-81500000D03*
X179200000Y-81500000D03*
X189200000Y-82000000D03*
X184200000Y-82000000D03*
X179200000Y-82000000D03*
X189200000Y-82500000D03*
X184200000Y-82500000D03*
X179200000Y-82500000D03*
X189200000Y-83000000D03*
X184200000Y-83000000D03*
X183700000Y-83000000D03*
X183200000Y-83000000D03*
X182700000Y-83000000D03*
X182200000Y-83000000D03*
X181700000Y-83000000D03*
X181200000Y-83000000D03*
X180700000Y-83000000D03*
X180200000Y-83000000D03*
X179700000Y-83000000D03*
X179200000Y-83000000D03*
X189200000Y-83500000D03*
%TD*%
D15*
%TO.C,C2*%
X137412500Y-79300000D03*
X139487500Y-79300000D03*
%TD*%
D31*
%TO.C,U2*%
X149299975Y-83949962D03*
X149299975Y-85049784D03*
X154700025Y-85050038D03*
X154700025Y-83949962D03*
%TD*%
D32*
%TO.C,SW3*%
X148875032Y-52500000D03*
X140124968Y-52500000D03*
%TD*%
D33*
%TO.C,L1*%
X163000000Y-65000000D03*
X160875000Y-65000000D03*
%TD*%
D23*
%TO.C,SW1*%
X81750064Y-44750064D03*
X88249936Y-44750064D03*
X81750064Y-49249936D03*
X88249936Y-49249936D03*
%TD*%
D14*
%TO.C,R8*%
X158000000Y-85000000D03*
X158000000Y-83000000D03*
%TD*%
D13*
%TO.C,FB1*%
X82500000Y-62000000D03*
X84500000Y-62000000D03*
%TD*%
D25*
%TO.C,D2*%
X75550292Y-72500000D03*
X73449708Y-72500000D03*
%TD*%
D13*
%TO.C,R11*%
X87000000Y-64350000D03*
X89000000Y-64350000D03*
%TD*%
D34*
%TO.C,R6*%
X75500000Y-75500000D03*
X73500000Y-75500000D03*
%TD*%
D12*
%TO.C,R7*%
X145100000Y-81900000D03*
X145100000Y-83900000D03*
%TD*%
D35*
%TO.C,U4*%
X92777500Y-67100000D03*
X93412500Y-67100000D03*
X94047500Y-67100000D03*
X94682500Y-67100000D03*
X95317500Y-67100000D03*
X95952500Y-67100000D03*
X96587500Y-67100000D03*
X97222500Y-67100000D03*
X97222500Y-61900000D03*
X96587500Y-61900000D03*
X95952500Y-61900000D03*
X95317500Y-61900000D03*
X94682500Y-61900000D03*
X94047500Y-61900000D03*
X93412500Y-61900000D03*
X92777500Y-61900000D03*
%TD*%
D13*
%TO.C,R2*%
X82500000Y-67000000D03*
X84500000Y-67000000D03*
%TD*%
D31*
%TO.C,U3*%
X73099950Y-45000000D03*
X73099950Y-46099822D03*
X78500000Y-46100076D03*
X78500000Y-45000000D03*
%TD*%
M02*
