%TF.GenerationSoftware,KiCad,Pcbnew,8.0.4*%
%TF.CreationDate,2024-08-17T13:27:17+02:00*%
%TF.ProjectId,letterboxsensor,6c657474-6572-4626-9f78-73656e736f72,rev?*%
%TF.SameCoordinates,Original*%
%TF.FileFunction,Copper,L3,Inr*%
%TF.FilePolarity,Positive*%
%FSLAX46Y46*%
G04 Gerber Fmt 4.6, Leading zero omitted, Abs format (unit mm)*
G04 Created by KiCad (PCBNEW 8.0.4) date 2024-08-17 13:27:17*
%MOMM*%
%LPD*%
G01*
G04 APERTURE LIST*
%TA.AperFunction,ComponentPad*%
%ADD10O,2.100000X1.100000*%
%TD*%
%TA.AperFunction,ComponentPad*%
%ADD11O,1.800000X1.200000*%
%TD*%
%TA.AperFunction,ComponentPad*%
%ADD12C,1.800000*%
%TD*%
%TA.AperFunction,ComponentPad*%
%ADD13C,0.300000*%
%TD*%
%TA.AperFunction,ViaPad*%
%ADD14C,0.450000*%
%TD*%
G04 APERTURE END LIST*
D10*
%TO.N,GND*%
%TO.C,U1*%
X78313049Y-60665989D03*
D11*
X74112948Y-60665989D03*
D10*
X78313049Y-69316002D03*
D11*
X74058947Y-69333985D03*
%TD*%
D12*
%TO.N,RESET*%
%TO.C,SW2*%
X90750064Y-44750064D03*
X97249936Y-44750064D03*
%TO.N,GND*%
X90750064Y-49249936D03*
X97249936Y-49249936D03*
%TD*%
D13*
%TO.N,Net-(AE1-A)*%
%TO.C,AE1*%
X189200000Y-47000000D03*
X188700000Y-47000000D03*
X188200000Y-47000000D03*
X187700000Y-47000000D03*
X187200000Y-47000000D03*
X186700000Y-47000000D03*
X186200000Y-47000000D03*
X185700000Y-47000000D03*
X185200000Y-47000000D03*
X184700000Y-47000000D03*
X184200000Y-47000000D03*
X179200000Y-47000000D03*
X178700000Y-47000000D03*
X178200000Y-47000000D03*
X177700000Y-47000000D03*
X177200000Y-47000000D03*
X176700000Y-47000000D03*
X176200000Y-47000000D03*
X175700000Y-47000000D03*
X175200000Y-47000000D03*
X174700000Y-47000000D03*
X174200000Y-47000000D03*
X189200000Y-47500000D03*
X184200000Y-47500000D03*
X179200000Y-47500000D03*
X174200000Y-47500000D03*
X189200000Y-48000000D03*
X184200000Y-48000000D03*
X179200000Y-48000000D03*
X174200000Y-48000000D03*
X189200000Y-48500000D03*
X184200000Y-48500000D03*
X179200000Y-48500000D03*
X174200000Y-48500000D03*
X189200000Y-49000000D03*
X184200000Y-49000000D03*
X179200000Y-49000000D03*
X174200000Y-49000000D03*
X189200000Y-49500000D03*
X184200000Y-49500000D03*
X179200000Y-49500000D03*
X174200000Y-49500000D03*
X189200000Y-50000000D03*
X184200000Y-50000000D03*
X179200000Y-50000000D03*
X174200000Y-50000000D03*
X189200000Y-50500000D03*
X184200000Y-50500000D03*
X179200000Y-50500000D03*
X174200000Y-50500000D03*
X189200000Y-51000000D03*
X184200000Y-51000000D03*
X179200000Y-51000000D03*
X174200000Y-51000000D03*
X189200000Y-51500000D03*
X184200000Y-51500000D03*
X179200000Y-51500000D03*
X174200000Y-51500000D03*
X189200000Y-52000000D03*
X184200000Y-52000000D03*
X179200000Y-52000000D03*
X174200000Y-52000000D03*
X189200000Y-52500000D03*
X184200000Y-52500000D03*
X179200000Y-52500000D03*
X174200000Y-52500000D03*
X189200000Y-53000000D03*
X184200000Y-53000000D03*
X179200000Y-53000000D03*
X174200000Y-53000000D03*
X189200000Y-53500000D03*
X184200000Y-53500000D03*
X179200000Y-53500000D03*
X174200000Y-53500000D03*
X189200000Y-54000000D03*
X184200000Y-54000000D03*
X179200000Y-54000000D03*
X174200000Y-54000000D03*
X189200000Y-54500000D03*
X184200000Y-54500000D03*
X179200000Y-54500000D03*
X174200000Y-54500000D03*
X189200000Y-55000000D03*
X184200000Y-55000000D03*
X179200000Y-55000000D03*
X174200000Y-55000000D03*
X189200000Y-55500000D03*
X184200000Y-55500000D03*
X179200000Y-55500000D03*
X174200000Y-55500000D03*
X189200000Y-56000000D03*
X184200000Y-56000000D03*
X179200000Y-56000000D03*
X174200000Y-56000000D03*
X189200000Y-56500000D03*
X184200000Y-56500000D03*
X179200000Y-56500000D03*
X174200000Y-56500000D03*
X189200000Y-57000000D03*
X184200000Y-57000000D03*
X179200000Y-57000000D03*
X174200000Y-57000000D03*
X189200000Y-57500000D03*
X184200000Y-57500000D03*
X179200000Y-57500000D03*
X174200000Y-57500000D03*
X189200000Y-58000000D03*
X184200000Y-58000000D03*
X179200000Y-58000000D03*
X174200000Y-58000000D03*
X189200000Y-58500000D03*
X184200000Y-58500000D03*
X179200000Y-58500000D03*
X174200000Y-58500000D03*
X189200000Y-59000000D03*
X184200000Y-59000000D03*
X179200000Y-59000000D03*
X174200000Y-59000000D03*
X189200000Y-59500000D03*
X184200000Y-59500000D03*
X179200000Y-59500000D03*
X174200000Y-59500000D03*
X189200000Y-60000000D03*
X184200000Y-60000000D03*
X179200000Y-60000000D03*
X174200000Y-60000000D03*
X189200000Y-60500000D03*
X184200000Y-60500000D03*
X179200000Y-60500000D03*
X174200000Y-60500000D03*
X189200000Y-61000000D03*
X184200000Y-61000000D03*
X179200000Y-61000000D03*
X174200000Y-61000000D03*
X189200000Y-61500000D03*
X184200000Y-61500000D03*
X179200000Y-61500000D03*
X174200000Y-61500000D03*
X189200000Y-62000000D03*
X184200000Y-62000000D03*
X179200000Y-62000000D03*
X174200000Y-62000000D03*
X189200000Y-62500000D03*
X184200000Y-62500000D03*
X179200000Y-62500000D03*
X174200000Y-62500000D03*
X189200000Y-63000000D03*
X184200000Y-63000000D03*
X179200000Y-63000000D03*
X174200000Y-63000000D03*
X189200000Y-63500000D03*
X184200000Y-63500000D03*
X179200000Y-63500000D03*
X174200000Y-63500000D03*
X189200000Y-64000000D03*
X184200000Y-64000000D03*
X179200000Y-64000000D03*
X174200000Y-64000000D03*
X189200000Y-64500000D03*
X184200000Y-64500000D03*
X179200000Y-64500000D03*
X174200000Y-64500000D03*
X189200000Y-65000000D03*
X184200000Y-65000000D03*
X179200000Y-65000000D03*
X174200000Y-65000000D03*
X173700000Y-65000000D03*
X173200000Y-65000000D03*
X172700000Y-65000000D03*
X172200000Y-65000000D03*
X171700000Y-65000000D03*
X171200000Y-65000000D03*
X170700000Y-65000000D03*
X170200000Y-65000000D03*
X169700000Y-65000000D03*
X169200000Y-65000000D03*
X168700000Y-65000000D03*
X168200000Y-65000000D03*
X167700000Y-65000000D03*
X167200000Y-65000000D03*
X166700000Y-65000000D03*
X189200000Y-65500000D03*
X184200000Y-65500000D03*
X179200000Y-65500000D03*
X189200000Y-66000000D03*
X184200000Y-66000000D03*
X179200000Y-66000000D03*
X189200000Y-66500000D03*
X184200000Y-66500000D03*
X179200000Y-66500000D03*
X189200000Y-67000000D03*
X184200000Y-67000000D03*
X179200000Y-67000000D03*
X189200000Y-67500000D03*
X184200000Y-67500000D03*
X179200000Y-67500000D03*
X189200000Y-68000000D03*
X184200000Y-68000000D03*
X179200000Y-68000000D03*
X189200000Y-68500000D03*
X184200000Y-68500000D03*
X179200000Y-68500000D03*
X189200000Y-69000000D03*
X184200000Y-69000000D03*
X179200000Y-69000000D03*
X189200000Y-69500000D03*
X184200000Y-69500000D03*
X179200000Y-69500000D03*
X189200000Y-70000000D03*
X184200000Y-70000000D03*
X179200000Y-70000000D03*
X189200000Y-70500000D03*
X184200000Y-70500000D03*
X179200000Y-70500000D03*
X189200000Y-71000000D03*
X184200000Y-71000000D03*
X179200000Y-71000000D03*
X189200000Y-71500000D03*
X184200000Y-71500000D03*
X179200000Y-71500000D03*
X189200000Y-72000000D03*
X184200000Y-72000000D03*
X179200000Y-72000000D03*
X189200000Y-72500000D03*
X184200000Y-72500000D03*
X179200000Y-72500000D03*
X189200000Y-73000000D03*
X184200000Y-73000000D03*
X179200000Y-73000000D03*
X189200000Y-73500000D03*
X184200000Y-73500000D03*
X179200000Y-73500000D03*
X189200000Y-74000000D03*
X184200000Y-74000000D03*
X179200000Y-74000000D03*
X189200000Y-74500000D03*
X184200000Y-74500000D03*
X179200000Y-74500000D03*
X189200000Y-75000000D03*
X184200000Y-75000000D03*
X179200000Y-75000000D03*
X189200000Y-75500000D03*
X184200000Y-75500000D03*
X179200000Y-75500000D03*
X189200000Y-76000000D03*
X184200000Y-76000000D03*
X179200000Y-76000000D03*
X189200000Y-76500000D03*
X184200000Y-76500000D03*
X179200000Y-76500000D03*
X189200000Y-77000000D03*
X184200000Y-77000000D03*
X179200000Y-77000000D03*
X189200000Y-77500000D03*
X184200000Y-77500000D03*
X179200000Y-77500000D03*
X189200000Y-78000000D03*
X184200000Y-78000000D03*
X179200000Y-78000000D03*
X189200000Y-78500000D03*
X184200000Y-78500000D03*
X179200000Y-78500000D03*
X189200000Y-79000000D03*
X184200000Y-79000000D03*
X179200000Y-79000000D03*
X189200000Y-79500000D03*
X184200000Y-79500000D03*
X179200000Y-79500000D03*
X189200000Y-80000000D03*
X184200000Y-80000000D03*
X179200000Y-80000000D03*
X189200000Y-80500000D03*
X184200000Y-80500000D03*
X179200000Y-80500000D03*
X189200000Y-81000000D03*
X184200000Y-81000000D03*
X179200000Y-81000000D03*
X189200000Y-81500000D03*
X184200000Y-81500000D03*
X179200000Y-81500000D03*
X189200000Y-82000000D03*
X184200000Y-82000000D03*
X179200000Y-82000000D03*
X189200000Y-82500000D03*
X184200000Y-82500000D03*
X179200000Y-82500000D03*
X189200000Y-83000000D03*
X184200000Y-83000000D03*
X183700000Y-83000000D03*
X183200000Y-83000000D03*
X182700000Y-83000000D03*
X182200000Y-83000000D03*
X181700000Y-83000000D03*
X181200000Y-83000000D03*
X180700000Y-83000000D03*
X180200000Y-83000000D03*
X179700000Y-83000000D03*
X179200000Y-83000000D03*
X189200000Y-83500000D03*
%TD*%
D12*
%TO.N,BOOT*%
%TO.C,SW1*%
X81750064Y-44750064D03*
X88249936Y-44750064D03*
%TO.N,+3V3*%
X81750064Y-49249936D03*
X88249936Y-49249936D03*
%TD*%
D14*
%TO.N,+3V3*%
X139650000Y-85000000D03*
X122650000Y-63800000D03*
X149600000Y-54500000D03*
%TO.N,GND*%
X84200000Y-68250000D03*
X80550000Y-60800000D03*
X81200000Y-69000000D03*
X105450000Y-58700000D03*
X126050000Y-73600000D03*
X78500000Y-53300000D03*
X143000000Y-44550000D03*
X119500000Y-73350000D03*
X90050000Y-61200000D03*
X145950000Y-65700000D03*
X141950000Y-74800000D03*
X93050000Y-60500000D03*
X146900000Y-85450000D03*
X83550000Y-63200000D03*
X153450000Y-65600000D03*
X152600000Y-80100000D03*
X145900000Y-64650000D03*
X154350000Y-60100000D03*
X95400000Y-65900000D03*
%TO.N,CBUS1*%
X94050000Y-63450000D03*
X90800000Y-68200000D03*
%TO.N,ADC3*%
X149600000Y-79900000D03*
X142850000Y-80050000D03*
%TO.N,3V3USB*%
X94600000Y-65350000D03*
X95800000Y-63200000D03*
%TO.N,GPIO1*%
X94850000Y-58600000D03*
X151250000Y-74050000D03*
%TO.N,ADC2*%
X153500000Y-70900000D03*
X95450501Y-58612895D03*
%TO.N,DP*%
X80200000Y-64900000D03*
X80750000Y-65816046D03*
%TO.N,BOOT*%
X139900000Y-68300000D03*
X95231409Y-57218591D03*
%TO.N,RESET*%
X140900000Y-70250000D03*
X93800000Y-56750000D03*
X140900000Y-71700000D03*
X140550000Y-68700000D03*
%TO.N,GPIO4*%
X144250000Y-70450000D03*
X147400000Y-81000000D03*
X146700000Y-73200000D03*
X151100000Y-81350000D03*
%TO.N,GPIO2*%
X156150000Y-70650000D03*
X95437606Y-58012394D03*
%TO.N,TX*%
X147850000Y-75900000D03*
X96300000Y-68900000D03*
X149550000Y-75000000D03*
X155650000Y-74750000D03*
%TO.N,RX*%
X155650000Y-75450000D03*
X92350000Y-68400000D03*
%TD*%
%TA.AperFunction,Conductor*%
%TO.N,GND*%
G36*
X80819732Y-43490185D02*
G01*
X80865487Y-43542989D01*
X80875431Y-43612147D01*
X80846406Y-43675703D01*
X80828855Y-43692354D01*
X80798281Y-43716150D01*
X80641080Y-43886916D01*
X80514139Y-44081215D01*
X80420906Y-44293763D01*
X80363930Y-44518755D01*
X80363928Y-44518766D01*
X80344764Y-44750057D01*
X80344764Y-44750070D01*
X80363928Y-44981361D01*
X80363930Y-44981372D01*
X80420906Y-45206364D01*
X80514139Y-45418912D01*
X80641080Y-45613211D01*
X80641083Y-45613215D01*
X80641085Y-45613217D01*
X80798280Y-45783977D01*
X80798283Y-45783979D01*
X80798286Y-45783982D01*
X80981429Y-45926528D01*
X80981435Y-45926532D01*
X80981438Y-45926534D01*
X81185561Y-46037000D01*
X81299551Y-46076132D01*
X81405079Y-46112361D01*
X81405081Y-46112361D01*
X81405083Y-46112362D01*
X81634015Y-46150564D01*
X81634016Y-46150564D01*
X81866112Y-46150564D01*
X81866113Y-46150564D01*
X82095045Y-46112362D01*
X82314567Y-46037000D01*
X82518690Y-45926534D01*
X82548421Y-45903394D01*
X82580193Y-45878664D01*
X82701848Y-45783977D01*
X82859043Y-45613217D01*
X82985988Y-45418913D01*
X83079221Y-45206364D01*
X83136198Y-44981369D01*
X83138785Y-44950147D01*
X83155364Y-44750070D01*
X83155364Y-44750057D01*
X83136199Y-44518766D01*
X83136197Y-44518755D01*
X83079221Y-44293763D01*
X82985988Y-44081215D01*
X82859047Y-43886916D01*
X82859044Y-43886913D01*
X82859043Y-43886911D01*
X82701848Y-43716151D01*
X82671272Y-43692353D01*
X82630460Y-43635643D01*
X82626785Y-43565870D01*
X82661416Y-43505187D01*
X82723358Y-43472860D01*
X82747435Y-43470500D01*
X87252565Y-43470500D01*
X87319604Y-43490185D01*
X87365359Y-43542989D01*
X87375303Y-43612147D01*
X87346278Y-43675703D01*
X87328727Y-43692354D01*
X87298153Y-43716150D01*
X87140952Y-43886916D01*
X87014011Y-44081215D01*
X86920778Y-44293763D01*
X86863802Y-44518755D01*
X86863800Y-44518766D01*
X86844636Y-44750057D01*
X86844636Y-44750070D01*
X86863800Y-44981361D01*
X86863802Y-44981372D01*
X86920778Y-45206364D01*
X87014011Y-45418912D01*
X87140952Y-45613211D01*
X87140955Y-45613215D01*
X87140957Y-45613217D01*
X87298152Y-45783977D01*
X87298155Y-45783979D01*
X87298158Y-45783982D01*
X87481301Y-45926528D01*
X87481307Y-45926532D01*
X87481310Y-45926534D01*
X87685433Y-46037000D01*
X87799423Y-46076132D01*
X87904951Y-46112361D01*
X87904953Y-46112361D01*
X87904955Y-46112362D01*
X88133887Y-46150564D01*
X88133888Y-46150564D01*
X88365984Y-46150564D01*
X88365985Y-46150564D01*
X88594917Y-46112362D01*
X88814439Y-46037000D01*
X89018562Y-45926534D01*
X89048293Y-45903394D01*
X89080065Y-45878664D01*
X89201720Y-45783977D01*
X89358915Y-45613217D01*
X89396191Y-45556162D01*
X89449337Y-45510805D01*
X89518569Y-45501381D01*
X89581904Y-45530883D01*
X89603809Y-45556162D01*
X89641080Y-45613211D01*
X89641083Y-45613215D01*
X89641085Y-45613217D01*
X89798280Y-45783977D01*
X89798283Y-45783979D01*
X89798286Y-45783982D01*
X89981429Y-45926528D01*
X89981435Y-45926532D01*
X89981438Y-45926534D01*
X90185561Y-46037000D01*
X90299551Y-46076132D01*
X90405079Y-46112361D01*
X90405081Y-46112361D01*
X90405083Y-46112362D01*
X90634015Y-46150564D01*
X90634016Y-46150564D01*
X90866112Y-46150564D01*
X90866113Y-46150564D01*
X91095045Y-46112362D01*
X91314567Y-46037000D01*
X91518690Y-45926534D01*
X91548421Y-45903394D01*
X91580193Y-45878664D01*
X91701848Y-45783977D01*
X91859043Y-45613217D01*
X91985988Y-45418913D01*
X92079221Y-45206364D01*
X92136198Y-44981369D01*
X92138785Y-44950147D01*
X92155364Y-44750070D01*
X92155364Y-44750057D01*
X92136199Y-44518766D01*
X92136197Y-44518755D01*
X92079221Y-44293763D01*
X91985988Y-44081215D01*
X91859047Y-43886916D01*
X91859044Y-43886913D01*
X91859043Y-43886911D01*
X91701848Y-43716151D01*
X91671272Y-43692353D01*
X91630460Y-43635643D01*
X91626785Y-43565870D01*
X91661416Y-43505187D01*
X91723358Y-43472860D01*
X91747435Y-43470500D01*
X96252565Y-43470500D01*
X96319604Y-43490185D01*
X96365359Y-43542989D01*
X96375303Y-43612147D01*
X96346278Y-43675703D01*
X96328727Y-43692354D01*
X96298153Y-43716150D01*
X96140952Y-43886916D01*
X96014011Y-44081215D01*
X95920778Y-44293763D01*
X95863802Y-44518755D01*
X95863800Y-44518766D01*
X95844636Y-44750057D01*
X95844636Y-44750070D01*
X95863800Y-44981361D01*
X95863802Y-44981372D01*
X95920778Y-45206364D01*
X96014011Y-45418912D01*
X96140952Y-45613211D01*
X96140955Y-45613215D01*
X96140957Y-45613217D01*
X96298152Y-45783977D01*
X96298155Y-45783979D01*
X96298158Y-45783982D01*
X96481301Y-45926528D01*
X96481307Y-45926532D01*
X96481310Y-45926534D01*
X96685433Y-46037000D01*
X96799423Y-46076132D01*
X96904951Y-46112361D01*
X96904953Y-46112361D01*
X96904955Y-46112362D01*
X97133887Y-46150564D01*
X97133888Y-46150564D01*
X97365984Y-46150564D01*
X97365985Y-46150564D01*
X97594917Y-46112362D01*
X97814439Y-46037000D01*
X98018562Y-45926534D01*
X98048293Y-45903394D01*
X98048301Y-45903388D01*
X100772500Y-45903388D01*
X100772500Y-46096611D01*
X100802725Y-46287441D01*
X100862429Y-46471194D01*
X100950147Y-46643349D01*
X101063715Y-46799663D01*
X101200336Y-46936284D01*
X101356650Y-47049852D01*
X101528805Y-47137570D01*
X101620681Y-47167422D01*
X101712560Y-47197275D01*
X101800943Y-47211273D01*
X101903389Y-47227500D01*
X101903394Y-47227500D01*
X102096611Y-47227500D01*
X102189123Y-47212846D01*
X102287440Y-47197275D01*
X102471197Y-47137569D01*
X102643350Y-47049852D01*
X102799663Y-46936285D01*
X102936285Y-46799663D01*
X103049852Y-46643350D01*
X103137569Y-46471197D01*
X103197275Y-46287440D01*
X103225005Y-46112361D01*
X103227500Y-46096611D01*
X103227500Y-45903388D01*
X103208586Y-45783977D01*
X103197275Y-45712560D01*
X103164995Y-45613211D01*
X103137570Y-45528805D01*
X103049852Y-45356650D01*
X102936284Y-45200336D01*
X102799663Y-45063715D01*
X102643349Y-44950147D01*
X102471194Y-44862429D01*
X102287441Y-44802725D01*
X102096611Y-44772500D01*
X102096606Y-44772500D01*
X101903394Y-44772500D01*
X101903389Y-44772500D01*
X101712558Y-44802725D01*
X101528805Y-44862429D01*
X101356650Y-44950147D01*
X101200336Y-45063715D01*
X101063715Y-45200336D01*
X100950147Y-45356650D01*
X100862429Y-45528805D01*
X100802725Y-45712558D01*
X100772500Y-45903388D01*
X98048301Y-45903388D01*
X98080065Y-45878664D01*
X98201720Y-45783977D01*
X98358915Y-45613217D01*
X98485860Y-45418913D01*
X98579093Y-45206364D01*
X98636070Y-44981369D01*
X98638657Y-44950147D01*
X98655236Y-44750070D01*
X98655236Y-44750057D01*
X98636071Y-44518766D01*
X98636069Y-44518755D01*
X98579093Y-44293763D01*
X98485860Y-44081215D01*
X98358919Y-43886916D01*
X98358916Y-43886913D01*
X98358915Y-43886911D01*
X98201720Y-43716151D01*
X98171144Y-43692353D01*
X98130332Y-43635643D01*
X98126657Y-43565870D01*
X98161288Y-43505187D01*
X98223230Y-43472860D01*
X98247307Y-43470500D01*
X164786000Y-43470500D01*
X164853039Y-43490185D01*
X164898794Y-43542989D01*
X164910000Y-43594500D01*
X164910000Y-86405500D01*
X164890315Y-86472539D01*
X164837511Y-86518294D01*
X164786000Y-86529500D01*
X71594500Y-86529500D01*
X71527461Y-86509815D01*
X71481706Y-86457011D01*
X71470500Y-86405500D01*
X71470500Y-83903388D01*
X100772500Y-83903388D01*
X100772500Y-84096611D01*
X100802725Y-84287441D01*
X100862429Y-84471194D01*
X100950147Y-84643349D01*
X101063715Y-84799663D01*
X101200337Y-84936285D01*
X101288034Y-85000000D01*
X101356650Y-85049852D01*
X101528805Y-85137570D01*
X101605413Y-85162461D01*
X101712560Y-85197275D01*
X101800943Y-85211273D01*
X101903389Y-85227500D01*
X101903394Y-85227500D01*
X102096611Y-85227500D01*
X102189123Y-85212846D01*
X102287440Y-85197275D01*
X102471197Y-85137569D01*
X102643350Y-85049852D01*
X102711972Y-84999996D01*
X138919909Y-84999996D01*
X138919909Y-85000003D01*
X138938212Y-85162455D01*
X138992210Y-85316774D01*
X138992211Y-85316775D01*
X139079192Y-85455204D01*
X139194796Y-85570808D01*
X139333225Y-85657789D01*
X139487539Y-85711786D01*
X139487542Y-85711786D01*
X139487544Y-85711787D01*
X139649996Y-85730091D01*
X139650000Y-85730091D01*
X139650004Y-85730091D01*
X139812455Y-85711787D01*
X139812456Y-85711786D01*
X139812461Y-85711786D01*
X139966775Y-85657789D01*
X140105204Y-85570808D01*
X140220808Y-85455204D01*
X140307789Y-85316775D01*
X140361786Y-85162461D01*
X140380091Y-85000000D01*
X140361786Y-84837539D01*
X140307789Y-84683225D01*
X140220808Y-84544796D01*
X140105204Y-84429192D01*
X139966774Y-84342210D01*
X139812455Y-84288212D01*
X139650004Y-84269909D01*
X139649996Y-84269909D01*
X139487544Y-84288212D01*
X139333225Y-84342210D01*
X139194795Y-84429192D01*
X139079192Y-84544795D01*
X138992210Y-84683225D01*
X138938212Y-84837544D01*
X138919909Y-84999996D01*
X102711972Y-84999996D01*
X102799663Y-84936285D01*
X102936285Y-84799663D01*
X103049852Y-84643350D01*
X103137569Y-84471197D01*
X103197275Y-84287440D01*
X103212846Y-84189123D01*
X103227500Y-84096611D01*
X103227500Y-83903388D01*
X103209916Y-83792373D01*
X103197275Y-83712560D01*
X103137569Y-83528803D01*
X103049852Y-83356650D01*
X102936285Y-83200337D01*
X102799663Y-83063715D01*
X102643350Y-82950148D01*
X102643351Y-82950148D01*
X102643349Y-82950147D01*
X102471194Y-82862429D01*
X102287441Y-82802725D01*
X102096611Y-82772500D01*
X102096606Y-82772500D01*
X101903394Y-82772500D01*
X101903389Y-82772500D01*
X101712558Y-82802725D01*
X101528805Y-82862429D01*
X101356650Y-82950147D01*
X101200336Y-83063715D01*
X101063715Y-83200336D01*
X100950147Y-83356650D01*
X100862429Y-83528805D01*
X100802725Y-83712558D01*
X100772500Y-83903388D01*
X71470500Y-83903388D01*
X71470500Y-82310706D01*
X71946500Y-82310706D01*
X71946500Y-82449293D01*
X71973533Y-82585195D01*
X71973536Y-82585207D01*
X72026562Y-82713225D01*
X72026569Y-82713238D01*
X72103555Y-82828454D01*
X72103558Y-82828458D01*
X72201541Y-82926441D01*
X72201545Y-82926444D01*
X72316761Y-83003430D01*
X72316774Y-83003437D01*
X72444792Y-83056463D01*
X72444797Y-83056465D01*
X72580706Y-83083499D01*
X72580709Y-83083500D01*
X72580711Y-83083500D01*
X72719291Y-83083500D01*
X72719292Y-83083499D01*
X72855203Y-83056465D01*
X72983232Y-83003434D01*
X73098455Y-82926444D01*
X73196444Y-82828455D01*
X73273434Y-82713232D01*
X73326465Y-82585203D01*
X73353500Y-82449289D01*
X73353500Y-82310711D01*
X73353500Y-82310708D01*
X73353499Y-82310706D01*
X73326466Y-82174804D01*
X73326465Y-82174797D01*
X73279655Y-82061786D01*
X73273437Y-82046774D01*
X73273430Y-82046761D01*
X73196444Y-81931545D01*
X73196441Y-81931541D01*
X73098458Y-81833558D01*
X73098454Y-81833555D01*
X72983238Y-81756569D01*
X72983225Y-81756562D01*
X72855207Y-81703536D01*
X72855195Y-81703533D01*
X72719292Y-81676500D01*
X72719289Y-81676500D01*
X72580711Y-81676500D01*
X72580708Y-81676500D01*
X72444804Y-81703533D01*
X72444792Y-81703536D01*
X72316774Y-81756562D01*
X72316761Y-81756569D01*
X72201545Y-81833555D01*
X72201541Y-81833558D01*
X72103558Y-81931541D01*
X72103555Y-81931545D01*
X72026569Y-82046761D01*
X72026562Y-82046774D01*
X71973536Y-82174792D01*
X71973533Y-82174804D01*
X71946500Y-82310706D01*
X71470500Y-82310706D01*
X71470500Y-80999996D01*
X146669909Y-80999996D01*
X146669909Y-81000003D01*
X146688212Y-81162455D01*
X146742210Y-81316774D01*
X146829192Y-81455204D01*
X146944796Y-81570808D01*
X147083225Y-81657789D01*
X147237539Y-81711786D01*
X147237542Y-81711786D01*
X147237544Y-81711787D01*
X147399996Y-81730091D01*
X147400000Y-81730091D01*
X147400004Y-81730091D01*
X147562455Y-81711787D01*
X147562456Y-81711786D01*
X147562461Y-81711786D01*
X147716775Y-81657789D01*
X147855204Y-81570808D01*
X147970808Y-81455204D01*
X148036915Y-81349996D01*
X150369909Y-81349996D01*
X150369909Y-81350003D01*
X150388212Y-81512455D01*
X150442210Y-81666774D01*
X150529192Y-81805204D01*
X150644796Y-81920808D01*
X150783225Y-82007789D01*
X150937539Y-82061786D01*
X150937542Y-82061786D01*
X150937544Y-82061787D01*
X151099996Y-82080091D01*
X151100000Y-82080091D01*
X151100004Y-82080091D01*
X151262455Y-82061787D01*
X151262456Y-82061786D01*
X151262461Y-82061786D01*
X151416775Y-82007789D01*
X151555204Y-81920808D01*
X151670808Y-81805204D01*
X151757789Y-81666775D01*
X151811786Y-81512461D01*
X151811787Y-81512455D01*
X151830091Y-81350003D01*
X151830091Y-81349996D01*
X151811787Y-81187544D01*
X151811786Y-81187542D01*
X151811786Y-81187539D01*
X151757789Y-81033225D01*
X151670808Y-80894796D01*
X151555204Y-80779192D01*
X151527503Y-80761786D01*
X151416774Y-80692210D01*
X151262455Y-80638212D01*
X151100004Y-80619909D01*
X151099996Y-80619909D01*
X150937544Y-80638212D01*
X150783225Y-80692210D01*
X150644795Y-80779192D01*
X150529192Y-80894795D01*
X150442210Y-81033225D01*
X150388212Y-81187544D01*
X150369909Y-81349996D01*
X148036915Y-81349996D01*
X148057789Y-81316775D01*
X148111786Y-81162461D01*
X148111787Y-81162455D01*
X148130091Y-81000003D01*
X148130091Y-80999996D01*
X148111787Y-80837544D01*
X148111786Y-80837542D01*
X148111786Y-80837539D01*
X148057789Y-80683225D01*
X147970808Y-80544796D01*
X147855204Y-80429192D01*
X147716774Y-80342210D01*
X147562455Y-80288212D01*
X147400004Y-80269909D01*
X147399996Y-80269909D01*
X147237544Y-80288212D01*
X147083225Y-80342210D01*
X146944795Y-80429192D01*
X146829192Y-80544795D01*
X146742210Y-80683225D01*
X146688212Y-80837544D01*
X146669909Y-80999996D01*
X71470500Y-80999996D01*
X71470500Y-80049996D01*
X142119909Y-80049996D01*
X142119909Y-80050003D01*
X142138212Y-80212455D01*
X142192210Y-80366774D01*
X142192211Y-80366775D01*
X142279192Y-80505204D01*
X142394796Y-80620808D01*
X142533225Y-80707789D01*
X142687539Y-80761786D01*
X142687542Y-80761786D01*
X142687544Y-80761787D01*
X142849996Y-80780091D01*
X142850000Y-80780091D01*
X142850004Y-80780091D01*
X143012455Y-80761787D01*
X143012456Y-80761786D01*
X143012461Y-80761786D01*
X143166775Y-80707789D01*
X143305204Y-80620808D01*
X143420808Y-80505204D01*
X143507789Y-80366775D01*
X143561786Y-80212461D01*
X143580091Y-80050000D01*
X143563190Y-79900003D01*
X143563189Y-79899996D01*
X148869909Y-79899996D01*
X148869909Y-79900003D01*
X148888212Y-80062455D01*
X148942210Y-80216774D01*
X148942211Y-80216775D01*
X149029192Y-80355204D01*
X149144796Y-80470808D01*
X149283225Y-80557789D01*
X149437539Y-80611786D01*
X149437542Y-80611786D01*
X149437544Y-80611787D01*
X149599996Y-80630091D01*
X149600000Y-80630091D01*
X149600004Y-80630091D01*
X149762455Y-80611787D01*
X149762456Y-80611786D01*
X149762461Y-80611786D01*
X149916775Y-80557789D01*
X150055204Y-80470808D01*
X150170808Y-80355204D01*
X150257789Y-80216775D01*
X150311786Y-80062461D01*
X150313190Y-80050000D01*
X150330091Y-79900003D01*
X150330091Y-79899996D01*
X150311787Y-79737544D01*
X150311786Y-79737542D01*
X150311786Y-79737539D01*
X150257789Y-79583225D01*
X150170808Y-79444796D01*
X150055204Y-79329192D01*
X150040430Y-79319909D01*
X149916774Y-79242210D01*
X149762455Y-79188212D01*
X149600004Y-79169909D01*
X149599996Y-79169909D01*
X149437544Y-79188212D01*
X149283225Y-79242210D01*
X149144795Y-79329192D01*
X149029192Y-79444795D01*
X148942210Y-79583225D01*
X148888212Y-79737544D01*
X148869909Y-79899996D01*
X143563189Y-79899996D01*
X143561787Y-79887544D01*
X143561786Y-79887542D01*
X143561786Y-79887539D01*
X143507789Y-79733225D01*
X143420808Y-79594796D01*
X143305204Y-79479192D01*
X143250462Y-79444795D01*
X143166774Y-79392210D01*
X143012455Y-79338212D01*
X142850004Y-79319909D01*
X142849996Y-79319909D01*
X142687544Y-79338212D01*
X142533225Y-79392210D01*
X142394795Y-79479192D01*
X142279192Y-79594795D01*
X142192210Y-79733225D01*
X142138212Y-79887544D01*
X142119909Y-80049996D01*
X71470500Y-80049996D01*
X71470500Y-75899996D01*
X147119909Y-75899996D01*
X147119909Y-75900003D01*
X147138212Y-76062455D01*
X147192210Y-76216774D01*
X147192211Y-76216775D01*
X147279192Y-76355204D01*
X147394796Y-76470808D01*
X147533225Y-76557789D01*
X147687539Y-76611786D01*
X147687542Y-76611786D01*
X147687544Y-76611787D01*
X147849996Y-76630091D01*
X147850000Y-76630091D01*
X147850004Y-76630091D01*
X148012455Y-76611787D01*
X148012456Y-76611786D01*
X148012461Y-76611786D01*
X148166775Y-76557789D01*
X148305204Y-76470808D01*
X148420808Y-76355204D01*
X148507789Y-76216775D01*
X148561786Y-76062461D01*
X148561787Y-76062455D01*
X148580091Y-75900003D01*
X148580091Y-75899996D01*
X148561787Y-75737544D01*
X148561786Y-75737542D01*
X148561786Y-75737539D01*
X148507789Y-75583225D01*
X148420808Y-75444796D01*
X148305204Y-75329192D01*
X148238914Y-75287539D01*
X148166774Y-75242210D01*
X148012455Y-75188212D01*
X147850004Y-75169909D01*
X147849996Y-75169909D01*
X147687544Y-75188212D01*
X147533225Y-75242210D01*
X147394795Y-75329192D01*
X147279192Y-75444795D01*
X147192210Y-75583225D01*
X147138212Y-75737544D01*
X147119909Y-75899996D01*
X71470500Y-75899996D01*
X71470500Y-74999996D01*
X148819909Y-74999996D01*
X148819909Y-75000003D01*
X148838212Y-75162455D01*
X148892210Y-75316774D01*
X148892211Y-75316775D01*
X148979192Y-75455204D01*
X149094796Y-75570808D01*
X149233225Y-75657789D01*
X149387539Y-75711786D01*
X149387542Y-75711786D01*
X149387544Y-75711787D01*
X149549996Y-75730091D01*
X149550000Y-75730091D01*
X149550004Y-75730091D01*
X149712455Y-75711787D01*
X149712456Y-75711786D01*
X149712461Y-75711786D01*
X149866775Y-75657789D01*
X150005204Y-75570808D01*
X150120808Y-75455204D01*
X150207789Y-75316775D01*
X150261786Y-75162461D01*
X150264209Y-75140955D01*
X150280091Y-75000003D01*
X150280091Y-74999996D01*
X150261787Y-74837544D01*
X150261786Y-74837542D01*
X150261786Y-74837539D01*
X150207789Y-74683225D01*
X150120808Y-74544796D01*
X150005204Y-74429192D01*
X149866774Y-74342210D01*
X149712455Y-74288212D01*
X149550004Y-74269909D01*
X149549996Y-74269909D01*
X149387544Y-74288212D01*
X149233225Y-74342210D01*
X149094795Y-74429192D01*
X148979192Y-74544795D01*
X148892210Y-74683225D01*
X148838212Y-74837544D01*
X148819909Y-74999996D01*
X71470500Y-74999996D01*
X71470500Y-74049996D01*
X150519909Y-74049996D01*
X150519909Y-74050003D01*
X150538212Y-74212455D01*
X150592210Y-74366774D01*
X150592211Y-74366775D01*
X150679192Y-74505204D01*
X150794796Y-74620808D01*
X150933225Y-74707789D01*
X151087539Y-74761786D01*
X151087542Y-74761786D01*
X151087544Y-74761787D01*
X151249996Y-74780091D01*
X151250000Y-74780091D01*
X151250004Y-74780091D01*
X151412455Y-74761787D01*
X151412456Y-74761786D01*
X151412461Y-74761786D01*
X151446155Y-74749996D01*
X154919909Y-74749996D01*
X154919909Y-74750003D01*
X154938212Y-74912455D01*
X154989506Y-75059046D01*
X154993067Y-75128825D01*
X154989506Y-75140954D01*
X154938212Y-75287544D01*
X154919909Y-75449996D01*
X154919909Y-75450003D01*
X154938212Y-75612455D01*
X154992210Y-75766774D01*
X154992211Y-75766775D01*
X155079192Y-75905204D01*
X155194796Y-76020808D01*
X155333225Y-76107789D01*
X155487539Y-76161786D01*
X155487542Y-76161786D01*
X155487544Y-76161787D01*
X155649996Y-76180091D01*
X155650000Y-76180091D01*
X155650004Y-76180091D01*
X155812455Y-76161787D01*
X155812456Y-76161786D01*
X155812461Y-76161786D01*
X155966775Y-76107789D01*
X156105204Y-76020808D01*
X156220808Y-75905204D01*
X156307789Y-75766775D01*
X156361786Y-75612461D01*
X156365080Y-75583225D01*
X156380091Y-75450003D01*
X156380091Y-75449996D01*
X156361787Y-75287542D01*
X156345925Y-75242211D01*
X156310492Y-75140952D01*
X156306930Y-75071177D01*
X156310488Y-75059060D01*
X156361786Y-74912461D01*
X156361786Y-74912459D01*
X156361787Y-74912457D01*
X156380091Y-74750003D01*
X156380091Y-74749996D01*
X156361787Y-74587544D01*
X156361786Y-74587542D01*
X156361786Y-74587539D01*
X156307789Y-74433225D01*
X156220808Y-74294796D01*
X156105204Y-74179192D01*
X155966774Y-74092210D01*
X155812455Y-74038212D01*
X155650004Y-74019909D01*
X155649996Y-74019909D01*
X155487544Y-74038212D01*
X155333225Y-74092210D01*
X155194795Y-74179192D01*
X155079192Y-74294795D01*
X154992210Y-74433225D01*
X154938212Y-74587544D01*
X154919909Y-74749996D01*
X151446155Y-74749996D01*
X151566775Y-74707789D01*
X151705204Y-74620808D01*
X151820808Y-74505204D01*
X151907789Y-74366775D01*
X151961786Y-74212461D01*
X151980091Y-74050000D01*
X151966580Y-73930091D01*
X151961787Y-73887544D01*
X151961786Y-73887542D01*
X151961786Y-73887539D01*
X151907789Y-73733225D01*
X151820808Y-73594796D01*
X151705204Y-73479192D01*
X151566774Y-73392210D01*
X151412455Y-73338212D01*
X151250004Y-73319909D01*
X151249996Y-73319909D01*
X151087544Y-73338212D01*
X150933225Y-73392210D01*
X150794795Y-73479192D01*
X150679192Y-73594795D01*
X150592210Y-73733225D01*
X150538212Y-73887544D01*
X150519909Y-74049996D01*
X71470500Y-74049996D01*
X71470500Y-73199996D01*
X145969909Y-73199996D01*
X145969909Y-73200003D01*
X145988212Y-73362455D01*
X146042210Y-73516774D01*
X146042211Y-73516775D01*
X146129192Y-73655204D01*
X146244796Y-73770808D01*
X146383225Y-73857789D01*
X146537539Y-73911786D01*
X146537542Y-73911786D01*
X146537544Y-73911787D01*
X146699996Y-73930091D01*
X146700000Y-73930091D01*
X146700004Y-73930091D01*
X146862455Y-73911787D01*
X146862456Y-73911786D01*
X146862461Y-73911786D01*
X147016775Y-73857789D01*
X147155204Y-73770808D01*
X147270808Y-73655204D01*
X147357789Y-73516775D01*
X147411786Y-73362461D01*
X147414518Y-73338214D01*
X147430091Y-73200003D01*
X147430091Y-73199996D01*
X147411787Y-73037544D01*
X147411786Y-73037542D01*
X147411786Y-73037539D01*
X147357789Y-72883225D01*
X147270808Y-72744796D01*
X147155204Y-72629192D01*
X147016774Y-72542210D01*
X146862455Y-72488212D01*
X146700004Y-72469909D01*
X146699996Y-72469909D01*
X146537544Y-72488212D01*
X146383225Y-72542210D01*
X146244795Y-72629192D01*
X146129192Y-72744795D01*
X146042210Y-72883225D01*
X145988212Y-73037544D01*
X145969909Y-73199996D01*
X71470500Y-73199996D01*
X71470500Y-69083984D01*
X72684831Y-69083984D01*
X72684832Y-69083985D01*
X73463967Y-69083985D01*
X73428880Y-69119072D01*
X73382800Y-69198885D01*
X73358947Y-69287905D01*
X73358947Y-69380065D01*
X73382800Y-69469085D01*
X73428880Y-69548898D01*
X73463967Y-69583985D01*
X72684832Y-69583985D01*
X72686032Y-69591569D01*
X72739538Y-69756240D01*
X72818142Y-69910509D01*
X72919914Y-70050587D01*
X73042344Y-70173017D01*
X73182422Y-70274789D01*
X73336689Y-70353393D01*
X73501362Y-70406899D01*
X73672376Y-70433985D01*
X73808947Y-70433985D01*
X73808947Y-69683998D01*
X74308947Y-69683998D01*
X74308947Y-70433985D01*
X74445518Y-70433985D01*
X74616531Y-70406899D01*
X74781204Y-70353393D01*
X74935471Y-70274789D01*
X75075549Y-70173017D01*
X75197979Y-70050587D01*
X75299751Y-69910509D01*
X75378355Y-69756240D01*
X75431861Y-69591569D01*
X75433062Y-69583985D01*
X74653927Y-69583985D01*
X74689014Y-69548898D01*
X74735094Y-69469085D01*
X74758947Y-69380065D01*
X74758947Y-69287905D01*
X74735094Y-69198885D01*
X74689014Y-69119072D01*
X74653927Y-69083985D01*
X75433062Y-69083985D01*
X75433062Y-69083984D01*
X75431861Y-69076400D01*
X75428482Y-69066002D01*
X76792206Y-69066002D01*
X77568069Y-69066002D01*
X77532982Y-69101089D01*
X77486902Y-69180902D01*
X77463049Y-69269922D01*
X77463049Y-69362082D01*
X77486902Y-69451102D01*
X77532982Y-69530915D01*
X77568069Y-69566002D01*
X76792206Y-69566002D01*
X76803399Y-69622276D01*
X76803400Y-69622278D01*
X76882549Y-69813360D01*
X76882554Y-69813370D01*
X76997459Y-69985337D01*
X76997462Y-69985341D01*
X77143709Y-70131588D01*
X77143713Y-70131591D01*
X77315680Y-70246496D01*
X77315690Y-70246501D01*
X77506774Y-70325651D01*
X77506782Y-70325653D01*
X77709628Y-70366001D01*
X77709632Y-70366002D01*
X78063049Y-70366002D01*
X78063049Y-69666015D01*
X78563049Y-69666015D01*
X78563049Y-70366002D01*
X78916466Y-70366002D01*
X78916469Y-70366001D01*
X79119315Y-70325653D01*
X79119323Y-70325651D01*
X79310407Y-70246501D01*
X79310417Y-70246496D01*
X79482384Y-70131591D01*
X79482388Y-70131588D01*
X79628635Y-69985341D01*
X79628638Y-69985337D01*
X79743543Y-69813370D01*
X79743548Y-69813360D01*
X79822697Y-69622278D01*
X79822698Y-69622276D01*
X79833892Y-69566002D01*
X79058029Y-69566002D01*
X79093116Y-69530915D01*
X79139196Y-69451102D01*
X79163049Y-69362082D01*
X79163049Y-69269922D01*
X79139196Y-69180902D01*
X79093116Y-69101089D01*
X79058029Y-69066002D01*
X79833892Y-69066002D01*
X79822698Y-69009727D01*
X79822697Y-69009725D01*
X79743548Y-68818643D01*
X79743543Y-68818633D01*
X79628638Y-68646666D01*
X79628635Y-68646662D01*
X79482388Y-68500415D01*
X79482384Y-68500412D01*
X79310417Y-68385507D01*
X79310407Y-68385502D01*
X79119323Y-68306352D01*
X79119315Y-68306350D01*
X78916469Y-68266002D01*
X78563049Y-68266002D01*
X78563049Y-68965989D01*
X78063049Y-68965989D01*
X78063049Y-68388441D01*
X78082734Y-68321402D01*
X78116170Y-68289526D01*
X78115043Y-68288057D01*
X78121487Y-68283110D01*
X78121494Y-68283107D01*
X78204605Y-68199996D01*
X90069909Y-68199996D01*
X90069909Y-68200003D01*
X90088212Y-68362455D01*
X90088213Y-68362460D01*
X90088214Y-68362461D01*
X90095379Y-68382939D01*
X90142210Y-68516774D01*
X90173583Y-68566703D01*
X90229192Y-68655204D01*
X90344796Y-68770808D01*
X90483225Y-68857789D01*
X90637539Y-68911786D01*
X90637542Y-68911786D01*
X90637544Y-68911787D01*
X90799996Y-68930091D01*
X90800000Y-68930091D01*
X90800004Y-68930091D01*
X90962455Y-68911787D01*
X90962456Y-68911786D01*
X90962461Y-68911786D01*
X91116775Y-68857789D01*
X91255204Y-68770808D01*
X91370808Y-68655204D01*
X91426417Y-68566702D01*
X91478752Y-68520412D01*
X91547806Y-68509764D01*
X91611654Y-68538139D01*
X91648452Y-68591719D01*
X91657432Y-68617382D01*
X91692210Y-68716774D01*
X91726162Y-68770808D01*
X91779192Y-68855204D01*
X91894796Y-68970808D01*
X92033225Y-69057789D01*
X92187539Y-69111786D01*
X92187542Y-69111786D01*
X92187544Y-69111787D01*
X92349996Y-69130091D01*
X92350000Y-69130091D01*
X92350004Y-69130091D01*
X92512455Y-69111787D01*
X92512456Y-69111786D01*
X92512461Y-69111786D01*
X92666775Y-69057789D01*
X92805204Y-68970808D01*
X92876016Y-68899996D01*
X95569909Y-68899996D01*
X95569909Y-68900003D01*
X95588212Y-69062455D01*
X95588213Y-69062460D01*
X95588214Y-69062461D01*
X95594604Y-69080723D01*
X95642210Y-69216774D01*
X95676162Y-69270808D01*
X95729192Y-69355204D01*
X95844796Y-69470808D01*
X95983225Y-69557789D01*
X96137539Y-69611786D01*
X96137542Y-69611786D01*
X96137544Y-69611787D01*
X96299996Y-69630091D01*
X96300000Y-69630091D01*
X96300004Y-69630091D01*
X96462455Y-69611787D01*
X96462456Y-69611786D01*
X96462461Y-69611786D01*
X96616775Y-69557789D01*
X96755204Y-69470808D01*
X96870808Y-69355204D01*
X96957789Y-69216775D01*
X97011786Y-69062461D01*
X97011787Y-69062455D01*
X97030091Y-68900003D01*
X97030091Y-68899996D01*
X97011787Y-68737544D01*
X97011786Y-68737542D01*
X97011786Y-68737539D01*
X96957789Y-68583225D01*
X96870808Y-68444796D01*
X96755204Y-68329192D01*
X96731943Y-68314576D01*
X96708739Y-68299996D01*
X139169909Y-68299996D01*
X139169909Y-68300003D01*
X139188212Y-68462455D01*
X139242210Y-68616774D01*
X139294502Y-68699996D01*
X139329192Y-68755204D01*
X139444796Y-68870808D01*
X139583225Y-68957789D01*
X139737539Y-69011786D01*
X139737542Y-69011786D01*
X139737544Y-69011787D01*
X139841281Y-69023475D01*
X139905695Y-69050541D01*
X139932391Y-69080722D01*
X139979192Y-69155204D01*
X140094796Y-69270808D01*
X140233225Y-69357789D01*
X140387539Y-69411786D01*
X140387543Y-69411786D01*
X140387545Y-69411787D01*
X140444808Y-69418239D01*
X140509223Y-69445305D01*
X140548778Y-69502899D01*
X140550917Y-69572736D01*
X140514959Y-69632643D01*
X140496900Y-69646452D01*
X140444794Y-69679193D01*
X140329192Y-69794795D01*
X140242210Y-69933225D01*
X140188212Y-70087544D01*
X140169909Y-70249996D01*
X140169909Y-70250003D01*
X140188212Y-70412455D01*
X140242210Y-70566774D01*
X140329192Y-70705204D01*
X140444795Y-70820807D01*
X140444798Y-70820809D01*
X140523094Y-70870007D01*
X140569385Y-70922342D01*
X140580032Y-70991395D01*
X140551657Y-71055243D01*
X140523094Y-71079993D01*
X140444798Y-71129190D01*
X140444795Y-71129192D01*
X140329192Y-71244795D01*
X140242210Y-71383225D01*
X140188212Y-71537544D01*
X140169909Y-71699996D01*
X140169909Y-71700003D01*
X140188212Y-71862455D01*
X140242210Y-72016774D01*
X140242211Y-72016775D01*
X140329192Y-72155204D01*
X140444796Y-72270808D01*
X140583225Y-72357789D01*
X140737539Y-72411786D01*
X140737542Y-72411786D01*
X140737544Y-72411787D01*
X140899996Y-72430091D01*
X140900000Y-72430091D01*
X140900004Y-72430091D01*
X141062455Y-72411787D01*
X141062456Y-72411786D01*
X141062461Y-72411786D01*
X141216775Y-72357789D01*
X141355204Y-72270808D01*
X141470808Y-72155204D01*
X141557789Y-72016775D01*
X141611786Y-71862461D01*
X141630091Y-71700000D01*
X141622214Y-71630091D01*
X141611787Y-71537544D01*
X141611786Y-71537542D01*
X141611786Y-71537539D01*
X141557789Y-71383225D01*
X141470808Y-71244796D01*
X141355204Y-71129192D01*
X141276905Y-71079993D01*
X141230615Y-71027659D01*
X141219967Y-70958605D01*
X141248342Y-70894757D01*
X141276906Y-70870006D01*
X141355204Y-70820808D01*
X141470808Y-70705204D01*
X141557789Y-70566775D01*
X141598652Y-70449996D01*
X143519909Y-70449996D01*
X143519909Y-70450003D01*
X143538212Y-70612455D01*
X143592210Y-70766774D01*
X143657076Y-70870007D01*
X143679192Y-70905204D01*
X143794796Y-71020808D01*
X143933225Y-71107789D01*
X144087539Y-71161786D01*
X144087542Y-71161786D01*
X144087544Y-71161787D01*
X144249996Y-71180091D01*
X144250000Y-71180091D01*
X144250004Y-71180091D01*
X144412455Y-71161787D01*
X144412456Y-71161786D01*
X144412461Y-71161786D01*
X144566775Y-71107789D01*
X144705204Y-71020808D01*
X144820808Y-70905204D01*
X144824080Y-70899996D01*
X152769909Y-70899996D01*
X152769909Y-70900003D01*
X152788212Y-71062455D01*
X152842210Y-71216774D01*
X152842211Y-71216775D01*
X152929192Y-71355204D01*
X153044796Y-71470808D01*
X153183225Y-71557789D01*
X153337539Y-71611786D01*
X153337542Y-71611786D01*
X153337544Y-71611787D01*
X153499996Y-71630091D01*
X153500000Y-71630091D01*
X153500004Y-71630091D01*
X153662455Y-71611787D01*
X153662456Y-71611786D01*
X153662461Y-71611786D01*
X153816775Y-71557789D01*
X153955204Y-71470808D01*
X154070808Y-71355204D01*
X154157789Y-71216775D01*
X154211786Y-71062461D01*
X154211787Y-71062455D01*
X154230091Y-70900003D01*
X154230091Y-70899996D01*
X154211787Y-70737544D01*
X154211786Y-70737542D01*
X154211786Y-70737539D01*
X154181153Y-70649996D01*
X155419909Y-70649996D01*
X155419909Y-70650003D01*
X155438212Y-70812455D01*
X155492210Y-70966774D01*
X155526162Y-71020808D01*
X155579192Y-71105204D01*
X155694796Y-71220808D01*
X155833225Y-71307789D01*
X155987539Y-71361786D01*
X155987542Y-71361786D01*
X155987544Y-71361787D01*
X156149996Y-71380091D01*
X156150000Y-71380091D01*
X156150004Y-71380091D01*
X156312455Y-71361787D01*
X156312456Y-71361786D01*
X156312461Y-71361786D01*
X156466775Y-71307789D01*
X156605204Y-71220808D01*
X156720808Y-71105204D01*
X156807789Y-70966775D01*
X156861786Y-70812461D01*
X156880091Y-70650000D01*
X156875861Y-70612461D01*
X156861787Y-70487544D01*
X156861786Y-70487542D01*
X156861786Y-70487539D01*
X156807789Y-70333225D01*
X156720808Y-70194796D01*
X156605204Y-70079192D01*
X156559680Y-70050587D01*
X156466774Y-69992210D01*
X156312455Y-69938212D01*
X156150004Y-69919909D01*
X156149996Y-69919909D01*
X155987544Y-69938212D01*
X155833225Y-69992210D01*
X155694795Y-70079192D01*
X155579192Y-70194795D01*
X155492210Y-70333225D01*
X155438212Y-70487544D01*
X155419909Y-70649996D01*
X154181153Y-70649996D01*
X154157789Y-70583225D01*
X154070808Y-70444796D01*
X153955204Y-70329192D01*
X153888914Y-70287539D01*
X153816774Y-70242210D01*
X153662455Y-70188212D01*
X153500004Y-70169909D01*
X153499996Y-70169909D01*
X153337544Y-70188212D01*
X153183225Y-70242210D01*
X153044795Y-70329192D01*
X152929192Y-70444795D01*
X152842210Y-70583225D01*
X152788212Y-70737544D01*
X152769909Y-70899996D01*
X144824080Y-70899996D01*
X144907789Y-70766775D01*
X144961786Y-70612461D01*
X144975861Y-70487544D01*
X144980091Y-70450003D01*
X144980091Y-70449996D01*
X144961787Y-70287544D01*
X144961786Y-70287542D01*
X144961786Y-70287539D01*
X144907789Y-70133225D01*
X144820808Y-69994796D01*
X144705204Y-69879192D01*
X144566774Y-69792210D01*
X144412455Y-69738212D01*
X144250004Y-69719909D01*
X144249996Y-69719909D01*
X144087544Y-69738212D01*
X143933225Y-69792210D01*
X143794795Y-69879192D01*
X143679192Y-69994795D01*
X143592210Y-70133225D01*
X143538212Y-70287544D01*
X143519909Y-70449996D01*
X141598652Y-70449996D01*
X141611786Y-70412461D01*
X141617021Y-70366001D01*
X141630091Y-70250003D01*
X141630091Y-70249996D01*
X141611787Y-70087544D01*
X141611786Y-70087542D01*
X141611786Y-70087539D01*
X141557789Y-69933225D01*
X141470808Y-69794796D01*
X141355204Y-69679192D01*
X141303099Y-69646452D01*
X141216774Y-69592210D01*
X141062455Y-69538212D01*
X141005189Y-69531760D01*
X140940775Y-69504693D01*
X140901220Y-69447098D01*
X140899083Y-69377261D01*
X140935042Y-69317355D01*
X140953096Y-69303549D01*
X141005204Y-69270808D01*
X141120808Y-69155204D01*
X141207789Y-69016775D01*
X141261786Y-68862461D01*
X141261787Y-68862455D01*
X141280091Y-68700003D01*
X141280091Y-68699996D01*
X141261787Y-68537544D01*
X141261786Y-68537542D01*
X141261786Y-68537539D01*
X141207789Y-68383225D01*
X141120808Y-68244796D01*
X141005204Y-68129192D01*
X140866774Y-68042210D01*
X140712455Y-67988212D01*
X140608717Y-67976524D01*
X140544303Y-67949457D01*
X140517607Y-67919276D01*
X140470808Y-67844796D01*
X140355204Y-67729192D01*
X140216774Y-67642210D01*
X140062455Y-67588212D01*
X139900004Y-67569909D01*
X139899996Y-67569909D01*
X139737544Y-67588212D01*
X139583225Y-67642210D01*
X139444795Y-67729192D01*
X139329192Y-67844795D01*
X139242210Y-67983225D01*
X139188212Y-68137544D01*
X139169909Y-68299996D01*
X96708739Y-68299996D01*
X96616774Y-68242210D01*
X96462455Y-68188212D01*
X96300004Y-68169909D01*
X96299996Y-68169909D01*
X96137544Y-68188212D01*
X95983225Y-68242210D01*
X95844795Y-68329192D01*
X95729192Y-68444795D01*
X95642210Y-68583225D01*
X95588212Y-68737544D01*
X95569909Y-68899996D01*
X92876016Y-68899996D01*
X92920808Y-68855204D01*
X93007789Y-68716775D01*
X93061786Y-68562461D01*
X93061787Y-68562455D01*
X93080091Y-68400003D01*
X93080091Y-68399996D01*
X93061787Y-68237544D01*
X93061786Y-68237542D01*
X93061786Y-68237539D01*
X93007789Y-68083225D01*
X92920808Y-67944796D01*
X92805204Y-67829192D01*
X92782371Y-67814845D01*
X92666774Y-67742210D01*
X92512455Y-67688212D01*
X92350004Y-67669909D01*
X92349996Y-67669909D01*
X92187544Y-67688212D01*
X92033225Y-67742210D01*
X91894795Y-67829192D01*
X91779193Y-67944794D01*
X91723581Y-68033298D01*
X91671246Y-68079588D01*
X91602192Y-68090235D01*
X91538344Y-68061859D01*
X91501548Y-68008281D01*
X91457789Y-67883225D01*
X91370808Y-67744796D01*
X91255204Y-67629192D01*
X91160856Y-67569909D01*
X91116774Y-67542210D01*
X90962455Y-67488212D01*
X90800004Y-67469909D01*
X90799996Y-67469909D01*
X90637544Y-67488212D01*
X90483225Y-67542210D01*
X90344795Y-67629192D01*
X90229192Y-67744795D01*
X90142210Y-67883225D01*
X90088212Y-68037544D01*
X90069909Y-68199996D01*
X78204605Y-68199996D01*
X78215054Y-68189547D01*
X78281210Y-68074961D01*
X78315455Y-67947157D01*
X78315455Y-67814845D01*
X78281210Y-67687041D01*
X78247811Y-67629192D01*
X78215056Y-67572458D01*
X78215052Y-67572453D01*
X78121495Y-67478896D01*
X78121490Y-67478892D01*
X78006910Y-67412740D01*
X78006909Y-67412739D01*
X78006908Y-67412739D01*
X77879104Y-67378494D01*
X77746792Y-67378494D01*
X77618988Y-67412739D01*
X77618986Y-67412740D01*
X77618985Y-67412740D01*
X77504405Y-67478892D01*
X77504400Y-67478896D01*
X77410843Y-67572453D01*
X77410839Y-67572458D01*
X77344687Y-67687038D01*
X77344687Y-67687039D01*
X77344686Y-67687041D01*
X77310441Y-67814845D01*
X77310441Y-67947157D01*
X77344686Y-68074961D01*
X77344687Y-68074962D01*
X77344687Y-68074963D01*
X77413081Y-68193426D01*
X77429554Y-68261327D01*
X77406701Y-68327354D01*
X77353148Y-68369987D01*
X77315686Y-68385504D01*
X77315680Y-68385507D01*
X77143713Y-68500412D01*
X77143709Y-68500415D01*
X76997462Y-68646662D01*
X76997459Y-68646666D01*
X76882554Y-68818633D01*
X76882549Y-68818643D01*
X76803400Y-69009725D01*
X76803399Y-69009727D01*
X76792206Y-69066002D01*
X75428482Y-69066002D01*
X75378355Y-68911729D01*
X75299751Y-68757460D01*
X75197979Y-68617382D01*
X75075549Y-68494952D01*
X74935471Y-68393180D01*
X74781204Y-68314576D01*
X74616531Y-68261070D01*
X74445518Y-68233985D01*
X74308947Y-68233985D01*
X74308947Y-68983972D01*
X73808947Y-68983972D01*
X73808947Y-68233985D01*
X73672376Y-68233985D01*
X73501362Y-68261070D01*
X73336689Y-68314576D01*
X73182422Y-68393180D01*
X73042344Y-68494952D01*
X72919914Y-68617382D01*
X72818142Y-68757460D01*
X72739538Y-68911729D01*
X72686032Y-69076400D01*
X72684831Y-69083984D01*
X71470500Y-69083984D01*
X71470500Y-64899996D01*
X79469909Y-64899996D01*
X79469909Y-64900003D01*
X79488212Y-65062455D01*
X79542210Y-65216774D01*
X79625920Y-65349996D01*
X79629192Y-65355204D01*
X79744796Y-65470808D01*
X79811077Y-65512455D01*
X79883225Y-65557789D01*
X79949381Y-65580938D01*
X80006157Y-65621660D01*
X80031905Y-65686612D01*
X80031647Y-65711863D01*
X80019909Y-65816042D01*
X80019909Y-65816049D01*
X80038212Y-65978501D01*
X80092210Y-66132820D01*
X80092211Y-66132821D01*
X80179192Y-66271250D01*
X80294796Y-66386854D01*
X80433225Y-66473835D01*
X80587539Y-66527832D01*
X80587542Y-66527832D01*
X80587544Y-66527833D01*
X80749996Y-66546137D01*
X80750000Y-66546137D01*
X80750004Y-66546137D01*
X80912455Y-66527833D01*
X80912456Y-66527832D01*
X80912461Y-66527832D01*
X81066775Y-66473835D01*
X81205204Y-66386854D01*
X81320808Y-66271250D01*
X81407789Y-66132821D01*
X81461786Y-65978507D01*
X81468287Y-65920808D01*
X81480091Y-65816049D01*
X81480091Y-65816042D01*
X81461787Y-65653590D01*
X81461786Y-65653588D01*
X81461786Y-65653585D01*
X81407789Y-65499271D01*
X81320808Y-65360842D01*
X81309962Y-65349996D01*
X93869909Y-65349996D01*
X93869909Y-65350003D01*
X93888212Y-65512455D01*
X93942210Y-65666774D01*
X93942211Y-65666775D01*
X94029192Y-65805204D01*
X94144796Y-65920808D01*
X94283225Y-66007789D01*
X94437539Y-66061786D01*
X94437542Y-66061786D01*
X94437544Y-66061787D01*
X94599996Y-66080091D01*
X94600000Y-66080091D01*
X94600004Y-66080091D01*
X94762455Y-66061787D01*
X94762456Y-66061786D01*
X94762461Y-66061786D01*
X94916775Y-66007789D01*
X95055204Y-65920808D01*
X95170808Y-65805204D01*
X95257789Y-65666775D01*
X95311786Y-65512461D01*
X95313272Y-65499271D01*
X95330091Y-65350003D01*
X95330091Y-65349996D01*
X95311787Y-65187544D01*
X95311786Y-65187542D01*
X95311786Y-65187539D01*
X95257789Y-65033225D01*
X95170808Y-64894796D01*
X95055204Y-64779192D01*
X94988914Y-64737539D01*
X94916774Y-64692210D01*
X94762455Y-64638212D01*
X94600004Y-64619909D01*
X94599996Y-64619909D01*
X94437544Y-64638212D01*
X94283225Y-64692210D01*
X94144795Y-64779192D01*
X94029192Y-64894795D01*
X93942210Y-65033225D01*
X93888212Y-65187544D01*
X93869909Y-65349996D01*
X81309962Y-65349996D01*
X81205204Y-65245238D01*
X81113377Y-65187539D01*
X81066774Y-65158256D01*
X81000619Y-65135108D01*
X80943843Y-65094386D01*
X80918095Y-65029434D01*
X80918353Y-65004183D01*
X80930091Y-64900003D01*
X80930091Y-64899996D01*
X80911787Y-64737544D01*
X80911786Y-64737542D01*
X80911786Y-64737539D01*
X80857789Y-64583225D01*
X80770808Y-64444796D01*
X80655204Y-64329192D01*
X80516774Y-64242210D01*
X80362455Y-64188212D01*
X80200004Y-64169909D01*
X80199996Y-64169909D01*
X80037544Y-64188212D01*
X79883225Y-64242210D01*
X79744795Y-64329192D01*
X79629192Y-64444795D01*
X79542210Y-64583225D01*
X79488212Y-64737544D01*
X79469909Y-64899996D01*
X71470500Y-64899996D01*
X71470500Y-63449996D01*
X93319909Y-63449996D01*
X93319909Y-63450003D01*
X93338212Y-63612455D01*
X93392210Y-63766774D01*
X93449399Y-63857789D01*
X93479192Y-63905204D01*
X93594796Y-64020808D01*
X93733225Y-64107789D01*
X93887539Y-64161786D01*
X93887542Y-64161786D01*
X93887544Y-64161787D01*
X94049996Y-64180091D01*
X94050000Y-64180091D01*
X94050004Y-64180091D01*
X94212455Y-64161787D01*
X94212456Y-64161786D01*
X94212461Y-64161786D01*
X94366775Y-64107789D01*
X94505204Y-64020808D01*
X94620808Y-63905204D01*
X94707789Y-63766775D01*
X94761786Y-63612461D01*
X94761787Y-63612455D01*
X94780091Y-63450003D01*
X94780091Y-63449996D01*
X94761787Y-63287544D01*
X94761786Y-63287542D01*
X94761786Y-63287539D01*
X94731153Y-63199996D01*
X95069909Y-63199996D01*
X95069909Y-63200003D01*
X95088212Y-63362455D01*
X95142210Y-63516774D01*
X95142211Y-63516775D01*
X95229192Y-63655204D01*
X95344796Y-63770808D01*
X95483225Y-63857789D01*
X95637539Y-63911786D01*
X95637542Y-63911786D01*
X95637544Y-63911787D01*
X95799996Y-63930091D01*
X95800000Y-63930091D01*
X95800004Y-63930091D01*
X95962455Y-63911787D01*
X95962456Y-63911786D01*
X95962461Y-63911786D01*
X96116775Y-63857789D01*
X96208752Y-63799996D01*
X121919909Y-63799996D01*
X121919909Y-63800003D01*
X121938212Y-63962455D01*
X121992210Y-64116774D01*
X121992211Y-64116775D01*
X122079192Y-64255204D01*
X122194796Y-64370808D01*
X122333225Y-64457789D01*
X122487539Y-64511786D01*
X122487542Y-64511786D01*
X122487544Y-64511787D01*
X122649996Y-64530091D01*
X122650000Y-64530091D01*
X122650004Y-64530091D01*
X122812455Y-64511787D01*
X122812456Y-64511786D01*
X122812461Y-64511786D01*
X122966775Y-64457789D01*
X123105204Y-64370808D01*
X123220808Y-64255204D01*
X123307789Y-64116775D01*
X123361786Y-63962461D01*
X123361787Y-63962455D01*
X123380091Y-63800003D01*
X123380091Y-63799996D01*
X123361787Y-63637544D01*
X123361786Y-63637542D01*
X123361786Y-63637539D01*
X123307789Y-63483225D01*
X123220808Y-63344796D01*
X123105204Y-63229192D01*
X123058750Y-63200003D01*
X122966774Y-63142210D01*
X122812455Y-63088212D01*
X122650004Y-63069909D01*
X122649996Y-63069909D01*
X122487544Y-63088212D01*
X122333225Y-63142210D01*
X122194795Y-63229192D01*
X122079192Y-63344795D01*
X121992210Y-63483225D01*
X121938212Y-63637544D01*
X121919909Y-63799996D01*
X96208752Y-63799996D01*
X96255204Y-63770808D01*
X96370808Y-63655204D01*
X96457789Y-63516775D01*
X96511786Y-63362461D01*
X96511787Y-63362455D01*
X96530091Y-63200003D01*
X96530091Y-63199996D01*
X96511787Y-63037544D01*
X96511786Y-63037542D01*
X96511786Y-63037539D01*
X96457789Y-62883225D01*
X96370808Y-62744796D01*
X96255204Y-62629192D01*
X96159771Y-62569227D01*
X96116774Y-62542210D01*
X95962455Y-62488212D01*
X95800004Y-62469909D01*
X95799996Y-62469909D01*
X95637544Y-62488212D01*
X95483225Y-62542210D01*
X95344795Y-62629192D01*
X95229192Y-62744795D01*
X95142210Y-62883225D01*
X95088212Y-63037544D01*
X95069909Y-63199996D01*
X94731153Y-63199996D01*
X94707789Y-63133225D01*
X94620808Y-62994796D01*
X94505204Y-62879192D01*
X94366774Y-62792210D01*
X94212455Y-62738212D01*
X94050004Y-62719909D01*
X94049996Y-62719909D01*
X93887544Y-62738212D01*
X93733225Y-62792210D01*
X93594795Y-62879192D01*
X93479192Y-62994795D01*
X93392210Y-63133225D01*
X93338212Y-63287544D01*
X93319909Y-63449996D01*
X71470500Y-63449996D01*
X71470500Y-60415988D01*
X72738832Y-60415988D01*
X72738833Y-60415989D01*
X73517968Y-60415989D01*
X73482881Y-60451076D01*
X73436801Y-60530889D01*
X73412948Y-60619909D01*
X73412948Y-60712069D01*
X73436801Y-60801089D01*
X73482881Y-60880902D01*
X73517968Y-60915989D01*
X72738833Y-60915989D01*
X72740033Y-60923573D01*
X72793539Y-61088244D01*
X72872143Y-61242513D01*
X72973915Y-61382591D01*
X73096345Y-61505021D01*
X73236423Y-61606793D01*
X73390690Y-61685397D01*
X73555363Y-61738903D01*
X73726377Y-61765989D01*
X73862948Y-61765989D01*
X73862948Y-61016002D01*
X74362948Y-61016002D01*
X74362948Y-61765989D01*
X74499519Y-61765989D01*
X74670532Y-61738903D01*
X74835205Y-61685397D01*
X74989472Y-61606793D01*
X75129550Y-61505021D01*
X75251980Y-61382591D01*
X75353752Y-61242513D01*
X75432356Y-61088244D01*
X75485862Y-60923573D01*
X75487063Y-60915989D01*
X74707928Y-60915989D01*
X74743015Y-60880902D01*
X74789095Y-60801089D01*
X74812948Y-60712069D01*
X74812948Y-60619909D01*
X74789095Y-60530889D01*
X74743015Y-60451076D01*
X74707928Y-60415989D01*
X75487063Y-60415989D01*
X76792206Y-60415989D01*
X77568069Y-60415989D01*
X77532982Y-60451076D01*
X77486902Y-60530889D01*
X77463049Y-60619909D01*
X77463049Y-60712069D01*
X77486902Y-60801089D01*
X77532982Y-60880902D01*
X77568069Y-60915989D01*
X76792206Y-60915989D01*
X76803399Y-60972263D01*
X76803400Y-60972265D01*
X76882549Y-61163347D01*
X76882554Y-61163357D01*
X76997459Y-61335324D01*
X76997462Y-61335328D01*
X77143709Y-61481575D01*
X77143713Y-61481578D01*
X77315680Y-61596483D01*
X77315687Y-61596487D01*
X77353133Y-61611997D01*
X77407537Y-61655838D01*
X77429603Y-61722132D01*
X77413070Y-61788558D01*
X77344686Y-61907003D01*
X77327563Y-61970907D01*
X77310441Y-62034809D01*
X77310441Y-62167121D01*
X77344686Y-62294925D01*
X77344687Y-62294926D01*
X77344687Y-62294927D01*
X77410839Y-62409507D01*
X77410841Y-62409510D01*
X77410842Y-62409511D01*
X77504402Y-62503071D01*
X77618988Y-62569227D01*
X77746792Y-62603472D01*
X77746794Y-62603472D01*
X77879101Y-62603472D01*
X77879104Y-62603472D01*
X78006908Y-62569227D01*
X78121494Y-62503071D01*
X78215054Y-62409511D01*
X78281210Y-62294925D01*
X78315455Y-62167121D01*
X78315455Y-62034809D01*
X78281210Y-61907005D01*
X78215054Y-61792419D01*
X78121494Y-61698859D01*
X78121493Y-61698858D01*
X78121490Y-61698855D01*
X78115049Y-61693913D01*
X78116531Y-61691981D01*
X78076827Y-61650332D01*
X78063049Y-61593524D01*
X78063049Y-61016002D01*
X78563049Y-61016002D01*
X78563049Y-61715989D01*
X78916466Y-61715989D01*
X78916469Y-61715988D01*
X79119315Y-61675640D01*
X79119323Y-61675638D01*
X79310407Y-61596488D01*
X79310417Y-61596483D01*
X79482384Y-61481578D01*
X79482388Y-61481575D01*
X79628635Y-61335328D01*
X79628638Y-61335324D01*
X79743543Y-61163357D01*
X79743548Y-61163347D01*
X79822697Y-60972265D01*
X79822698Y-60972263D01*
X79833892Y-60915989D01*
X79058029Y-60915989D01*
X79093116Y-60880902D01*
X79139196Y-60801089D01*
X79163049Y-60712069D01*
X79163049Y-60619909D01*
X79139196Y-60530889D01*
X79093116Y-60451076D01*
X79058029Y-60415989D01*
X79833892Y-60415989D01*
X79822698Y-60359714D01*
X79822697Y-60359712D01*
X79743548Y-60168630D01*
X79743543Y-60168620D01*
X79628638Y-59996653D01*
X79628635Y-59996649D01*
X79482388Y-59850402D01*
X79482384Y-59850399D01*
X79310417Y-59735494D01*
X79310407Y-59735489D01*
X79119323Y-59656339D01*
X79119315Y-59656337D01*
X78916469Y-59615989D01*
X78563049Y-59615989D01*
X78563049Y-60315976D01*
X78063049Y-60315976D01*
X78063049Y-59615989D01*
X77709628Y-59615989D01*
X77506782Y-59656337D01*
X77506774Y-59656339D01*
X77315690Y-59735489D01*
X77315680Y-59735494D01*
X77143713Y-59850399D01*
X77143709Y-59850402D01*
X76997462Y-59996649D01*
X76997459Y-59996653D01*
X76882554Y-60168620D01*
X76882549Y-60168630D01*
X76803400Y-60359712D01*
X76803399Y-60359714D01*
X76792206Y-60415989D01*
X75487063Y-60415989D01*
X75487063Y-60415988D01*
X75485862Y-60408404D01*
X75432356Y-60243733D01*
X75353752Y-60089464D01*
X75251980Y-59949386D01*
X75129550Y-59826956D01*
X74989472Y-59725184D01*
X74835205Y-59646580D01*
X74670532Y-59593074D01*
X74499519Y-59565989D01*
X74362948Y-59565989D01*
X74362948Y-60315976D01*
X73862948Y-60315976D01*
X73862948Y-59565989D01*
X73726377Y-59565989D01*
X73555363Y-59593074D01*
X73390690Y-59646580D01*
X73236423Y-59725184D01*
X73096345Y-59826956D01*
X72973915Y-59949386D01*
X72872143Y-60089464D01*
X72793539Y-60243733D01*
X72740033Y-60408404D01*
X72738832Y-60415988D01*
X71470500Y-60415988D01*
X71470500Y-56749996D01*
X93069909Y-56749996D01*
X93069909Y-56750003D01*
X93088212Y-56912455D01*
X93142210Y-57066774D01*
X93142211Y-57066775D01*
X93229192Y-57205204D01*
X93344796Y-57320808D01*
X93483225Y-57407789D01*
X93637539Y-57461786D01*
X93637542Y-57461786D01*
X93637544Y-57461787D01*
X93799996Y-57480091D01*
X93800000Y-57480091D01*
X93800004Y-57480091D01*
X93962455Y-57461787D01*
X93962456Y-57461786D01*
X93962461Y-57461786D01*
X94116775Y-57407789D01*
X94255204Y-57320808D01*
X94304675Y-57271336D01*
X94365996Y-57237852D01*
X94435687Y-57242836D01*
X94491621Y-57284707D01*
X94515575Y-57345134D01*
X94519621Y-57381046D01*
X94573619Y-57535365D01*
X94660601Y-57673795D01*
X94686878Y-57700072D01*
X94720363Y-57761395D01*
X94715379Y-57831087D01*
X94673507Y-57887020D01*
X94640152Y-57904794D01*
X94533227Y-57942209D01*
X94394795Y-58029192D01*
X94279192Y-58144795D01*
X94192210Y-58283225D01*
X94138212Y-58437544D01*
X94119909Y-58599996D01*
X94119909Y-58600003D01*
X94138212Y-58762455D01*
X94192210Y-58916774D01*
X94192211Y-58916775D01*
X94279192Y-59055204D01*
X94394796Y-59170808D01*
X94533225Y-59257789D01*
X94687539Y-59311786D01*
X94687542Y-59311786D01*
X94687544Y-59311787D01*
X94849996Y-59330091D01*
X94850000Y-59330091D01*
X94850004Y-59330091D01*
X95012455Y-59311787D01*
X95012456Y-59311786D01*
X95012461Y-59311786D01*
X95090870Y-59284348D01*
X95160647Y-59280786D01*
X95172773Y-59284347D01*
X95288040Y-59324681D01*
X95288043Y-59324682D01*
X95450497Y-59342986D01*
X95450501Y-59342986D01*
X95450505Y-59342986D01*
X95612956Y-59324682D01*
X95612957Y-59324681D01*
X95612962Y-59324681D01*
X95767276Y-59270684D01*
X95905705Y-59183703D01*
X96021309Y-59068099D01*
X96108290Y-58929670D01*
X96162287Y-58775356D01*
X96180592Y-58612895D01*
X96180592Y-58612891D01*
X96162288Y-58450437D01*
X96121955Y-58335173D01*
X96118393Y-58265394D01*
X96121951Y-58253274D01*
X96149392Y-58174855D01*
X96152779Y-58144795D01*
X96167697Y-58012397D01*
X96167697Y-58012390D01*
X96149393Y-57849938D01*
X96149392Y-57849936D01*
X96149392Y-57849933D01*
X96095395Y-57695619D01*
X96008414Y-57557190D01*
X95969536Y-57518312D01*
X95936051Y-57456989D01*
X95940178Y-57389671D01*
X95943195Y-57381052D01*
X95949983Y-57320807D01*
X95961500Y-57218594D01*
X95961500Y-57218587D01*
X95943196Y-57056135D01*
X95943195Y-57056133D01*
X95943195Y-57056130D01*
X95889198Y-56901816D01*
X95802217Y-56763387D01*
X95686613Y-56647783D01*
X95647894Y-56623454D01*
X95548183Y-56560801D01*
X95393864Y-56506803D01*
X95231413Y-56488500D01*
X95231405Y-56488500D01*
X95068953Y-56506803D01*
X94914634Y-56560801D01*
X94776204Y-56647783D01*
X94726733Y-56697254D01*
X94665410Y-56730738D01*
X94595718Y-56725753D01*
X94539785Y-56683882D01*
X94515833Y-56623454D01*
X94511787Y-56587545D01*
X94511786Y-56587543D01*
X94511786Y-56587539D01*
X94457789Y-56433225D01*
X94370808Y-56294796D01*
X94255204Y-56179192D01*
X94116774Y-56092210D01*
X93962455Y-56038212D01*
X93800004Y-56019909D01*
X93799996Y-56019909D01*
X93637544Y-56038212D01*
X93483225Y-56092210D01*
X93344795Y-56179192D01*
X93229192Y-56294795D01*
X93142210Y-56433225D01*
X93088212Y-56587544D01*
X93069909Y-56749996D01*
X71470500Y-56749996D01*
X71470500Y-54499996D01*
X148869909Y-54499996D01*
X148869909Y-54500003D01*
X148888212Y-54662455D01*
X148942210Y-54816774D01*
X148942211Y-54816775D01*
X149029192Y-54955204D01*
X149144796Y-55070808D01*
X149283225Y-55157789D01*
X149437539Y-55211786D01*
X149437542Y-55211786D01*
X149437544Y-55211787D01*
X149599996Y-55230091D01*
X149600000Y-55230091D01*
X149600004Y-55230091D01*
X149762455Y-55211787D01*
X149762456Y-55211786D01*
X149762461Y-55211786D01*
X149916775Y-55157789D01*
X150055204Y-55070808D01*
X150170808Y-54955204D01*
X150257789Y-54816775D01*
X150311786Y-54662461D01*
X150330091Y-54500000D01*
X150311786Y-54337539D01*
X150257789Y-54183225D01*
X150170808Y-54044796D01*
X150055204Y-53929192D01*
X149916774Y-53842210D01*
X149762455Y-53788212D01*
X149600004Y-53769909D01*
X149599996Y-53769909D01*
X149437544Y-53788212D01*
X149283225Y-53842210D01*
X149144795Y-53929192D01*
X149029192Y-54044795D01*
X148942210Y-54183225D01*
X148888212Y-54337544D01*
X148869909Y-54499996D01*
X71470500Y-54499996D01*
X71470500Y-49249929D01*
X80344764Y-49249929D01*
X80344764Y-49249942D01*
X80363928Y-49481233D01*
X80363930Y-49481244D01*
X80420906Y-49706236D01*
X80514139Y-49918784D01*
X80641080Y-50113083D01*
X80641083Y-50113087D01*
X80641085Y-50113089D01*
X80798280Y-50283849D01*
X80798283Y-50283851D01*
X80798286Y-50283854D01*
X80981429Y-50426400D01*
X80981435Y-50426404D01*
X80981438Y-50426406D01*
X81148924Y-50517045D01*
X81184716Y-50536415D01*
X81185561Y-50536872D01*
X81299551Y-50576004D01*
X81405079Y-50612233D01*
X81405081Y-50612233D01*
X81405083Y-50612234D01*
X81634015Y-50650436D01*
X81634016Y-50650436D01*
X81866112Y-50650436D01*
X81866113Y-50650436D01*
X82095045Y-50612234D01*
X82314567Y-50536872D01*
X82518690Y-50426406D01*
X82519234Y-50425983D01*
X82580193Y-50378536D01*
X82701848Y-50283849D01*
X82859043Y-50113089D01*
X82985988Y-49918785D01*
X83079221Y-49706236D01*
X83136198Y-49481241D01*
X83136199Y-49481233D01*
X83155364Y-49249942D01*
X83155364Y-49249929D01*
X86844636Y-49249929D01*
X86844636Y-49249942D01*
X86863800Y-49481233D01*
X86863802Y-49481244D01*
X86920778Y-49706236D01*
X87014011Y-49918784D01*
X87140952Y-50113083D01*
X87140955Y-50113087D01*
X87140957Y-50113089D01*
X87298152Y-50283849D01*
X87298155Y-50283851D01*
X87298158Y-50283854D01*
X87481301Y-50426400D01*
X87481307Y-50426404D01*
X87481310Y-50426406D01*
X87648796Y-50517045D01*
X87684588Y-50536415D01*
X87685433Y-50536872D01*
X87799423Y-50576004D01*
X87904951Y-50612233D01*
X87904953Y-50612233D01*
X87904955Y-50612234D01*
X88133887Y-50650436D01*
X88133888Y-50650436D01*
X88365984Y-50650436D01*
X88365985Y-50650436D01*
X88594917Y-50612234D01*
X88814439Y-50536872D01*
X89018562Y-50426406D01*
X89019106Y-50425983D01*
X89080065Y-50378536D01*
X89201720Y-50283849D01*
X89358915Y-50113089D01*
X89396491Y-50055574D01*
X89449634Y-50010220D01*
X89518865Y-50000795D01*
X89582201Y-50030296D01*
X89597001Y-50047375D01*
X89598876Y-50047569D01*
X90185451Y-49460994D01*
X90190953Y-49481527D01*
X90269945Y-49618344D01*
X90381656Y-49730055D01*
X90518473Y-49809047D01*
X90539004Y-49814548D01*
X89951265Y-50402287D01*
X89981713Y-50425986D01*
X90185761Y-50536412D01*
X90185770Y-50536415D01*
X90405203Y-50611747D01*
X90634057Y-50649936D01*
X90866071Y-50649936D01*
X91094924Y-50611747D01*
X91314357Y-50536415D01*
X91314365Y-50536412D01*
X91518419Y-50425983D01*
X91548861Y-50402287D01*
X91548862Y-50402286D01*
X90961124Y-49814548D01*
X90981655Y-49809047D01*
X91118472Y-49730055D01*
X91230183Y-49618344D01*
X91309175Y-49481527D01*
X91314676Y-49460995D01*
X91901250Y-50047569D01*
X91985546Y-49918547D01*
X92078746Y-49706071D01*
X92135702Y-49481154D01*
X92154862Y-49249941D01*
X92154862Y-49249930D01*
X95845138Y-49249930D01*
X95845138Y-49249941D01*
X95864297Y-49481154D01*
X95921253Y-49706071D01*
X96014451Y-49918542D01*
X96098748Y-50047569D01*
X96685323Y-49460994D01*
X96690825Y-49481527D01*
X96769817Y-49618344D01*
X96881528Y-49730055D01*
X97018345Y-49809047D01*
X97038876Y-49814548D01*
X96451137Y-50402287D01*
X96481585Y-50425986D01*
X96685633Y-50536412D01*
X96685642Y-50536415D01*
X96905075Y-50611747D01*
X97133929Y-50649936D01*
X97365943Y-50649936D01*
X97594796Y-50611747D01*
X97814229Y-50536415D01*
X97814237Y-50536412D01*
X98018291Y-50425983D01*
X98048733Y-50402287D01*
X98048734Y-50402286D01*
X97460996Y-49814548D01*
X97481527Y-49809047D01*
X97618344Y-49730055D01*
X97730055Y-49618344D01*
X97809047Y-49481527D01*
X97814548Y-49460995D01*
X98401122Y-50047569D01*
X98485418Y-49918547D01*
X98578618Y-49706071D01*
X98635574Y-49481154D01*
X98654734Y-49249941D01*
X98654734Y-49249930D01*
X98635574Y-49018717D01*
X98578618Y-48793800D01*
X98485420Y-48581329D01*
X98401122Y-48452301D01*
X97814548Y-49038875D01*
X97809047Y-49018345D01*
X97730055Y-48881528D01*
X97618344Y-48769817D01*
X97481527Y-48690825D01*
X97460994Y-48685323D01*
X98048733Y-48097583D01*
X98048733Y-48097581D01*
X98018296Y-48073891D01*
X98018290Y-48073887D01*
X97814238Y-47963459D01*
X97814229Y-47963456D01*
X97594796Y-47888124D01*
X97365943Y-47849936D01*
X97133929Y-47849936D01*
X96905075Y-47888124D01*
X96685642Y-47963456D01*
X96685633Y-47963459D01*
X96481586Y-48073885D01*
X96451136Y-48097583D01*
X97038877Y-48685323D01*
X97018345Y-48690825D01*
X96881528Y-48769817D01*
X96769817Y-48881528D01*
X96690825Y-49018345D01*
X96685323Y-49038877D01*
X96098747Y-48452301D01*
X96014452Y-48581326D01*
X95921253Y-48793800D01*
X95864297Y-49018717D01*
X95845138Y-49249930D01*
X92154862Y-49249930D01*
X92135702Y-49018717D01*
X92078746Y-48793800D01*
X91985548Y-48581329D01*
X91901250Y-48452301D01*
X91314676Y-49038875D01*
X91309175Y-49018345D01*
X91230183Y-48881528D01*
X91118472Y-48769817D01*
X90981655Y-48690825D01*
X90961122Y-48685323D01*
X91548861Y-48097583D01*
X91548861Y-48097581D01*
X91518424Y-48073891D01*
X91518418Y-48073887D01*
X91314366Y-47963459D01*
X91314357Y-47963456D01*
X91094924Y-47888124D01*
X90866071Y-47849936D01*
X90634057Y-47849936D01*
X90405203Y-47888124D01*
X90185770Y-47963456D01*
X90185761Y-47963459D01*
X89981714Y-48073885D01*
X89951264Y-48097583D01*
X90539005Y-48685323D01*
X90518473Y-48690825D01*
X90381656Y-48769817D01*
X90269945Y-48881528D01*
X90190953Y-49018345D01*
X90185451Y-49038877D01*
X89598875Y-48452301D01*
X89594151Y-48452791D01*
X89550959Y-48489652D01*
X89481728Y-48499075D01*
X89418392Y-48469572D01*
X89396489Y-48444294D01*
X89358919Y-48386788D01*
X89358916Y-48386785D01*
X89358915Y-48386783D01*
X89201720Y-48216023D01*
X89201715Y-48216019D01*
X89201713Y-48216017D01*
X89018570Y-48073471D01*
X89018564Y-48073467D01*
X88814440Y-47963000D01*
X88814431Y-47962997D01*
X88594920Y-47887638D01*
X88423218Y-47858986D01*
X88365985Y-47849436D01*
X88133887Y-47849436D01*
X88088100Y-47857076D01*
X87904951Y-47887638D01*
X87685440Y-47962997D01*
X87685431Y-47963000D01*
X87481307Y-48073467D01*
X87481301Y-48073471D01*
X87298158Y-48216017D01*
X87298155Y-48216020D01*
X87140952Y-48386788D01*
X87014011Y-48581087D01*
X86920778Y-48793635D01*
X86863802Y-49018627D01*
X86863800Y-49018638D01*
X86844636Y-49249929D01*
X83155364Y-49249929D01*
X83136199Y-49018638D01*
X83136197Y-49018627D01*
X83079221Y-48793635D01*
X82985988Y-48581087D01*
X82859047Y-48386788D01*
X82859044Y-48386785D01*
X82859043Y-48386783D01*
X82701848Y-48216023D01*
X82701843Y-48216019D01*
X82701841Y-48216017D01*
X82518698Y-48073471D01*
X82518692Y-48073467D01*
X82314568Y-47963000D01*
X82314559Y-47962997D01*
X82095048Y-47887638D01*
X81923346Y-47858986D01*
X81866113Y-47849436D01*
X81634015Y-47849436D01*
X81588228Y-47857076D01*
X81405079Y-47887638D01*
X81185568Y-47962997D01*
X81185559Y-47963000D01*
X80981435Y-48073467D01*
X80981429Y-48073471D01*
X80798286Y-48216017D01*
X80798283Y-48216020D01*
X80641080Y-48386788D01*
X80514139Y-48581087D01*
X80420906Y-48793635D01*
X80363930Y-49018627D01*
X80363928Y-49018638D01*
X80344764Y-49249929D01*
X71470500Y-49249929D01*
X71470500Y-43594500D01*
X71490185Y-43527461D01*
X71542989Y-43481706D01*
X71594500Y-43470500D01*
X80752693Y-43470500D01*
X80819732Y-43490185D01*
G37*
%TD.AperFunction*%
%TD*%
M02*
