M48
; DRILL file {KiCad 8.0.4} date 2024-08-17T13:27:21+0200
; FORMAT={-:-/ absolute / metric / decimal}
; #@! TF.CreationDate,2024-08-17T13:27:21+02:00
; #@! TF.GenerationSoftware,Kicad,Pcbnew,8.0.4
; #@! TF.FileFunction,Plated,1,4,PTH
FMAT,2
METRIC
; #@! TA.AperFunction,Plated,PTH,ViaDrill
T1C0.200
; #@! TA.AperFunction,Plated,PTH,ComponentDrill
T2C0.250
; #@! TA.AperFunction,Plated,PTH,ComponentDrill
T3C0.700
; #@! TA.AperFunction,Plated,PTH,ComponentDrill
T4C1.200
%
G90
G05
T1
X78.5Y-53.3
X80.2Y-64.9
X80.55Y-60.8
X80.75Y-65.816
X81.2Y-69.0
X83.55Y-63.2
X84.2Y-68.25
X90.05Y-61.2
X90.8Y-68.2
X92.35Y-68.4
X93.05Y-60.5
X93.8Y-56.75
X94.05Y-63.45
X94.6Y-65.35
X94.85Y-58.6
X95.231Y-57.219
X95.4Y-65.9
X95.438Y-58.012
X95.451Y-58.613
X95.8Y-63.2
X96.3Y-68.9
X105.45Y-58.7
X119.5Y-73.35
X122.65Y-63.8
X126.05Y-73.6
X139.65Y-85.0
X139.9Y-68.3
X140.55Y-68.7
X140.9Y-70.25
X140.9Y-71.7
X141.95Y-74.8
X142.85Y-80.05
X143.0Y-44.55
X144.25Y-70.45
X145.9Y-64.65
X145.95Y-65.7
X146.7Y-73.2
X146.9Y-85.45
X147.4Y-81.0
X147.85Y-75.9
X149.55Y-75.0
X149.6Y-54.5
X149.6Y-79.9
X151.1Y-81.35
X151.25Y-74.05
X152.6Y-80.1
X153.45Y-65.6
X153.5Y-70.9
X154.35Y-60.1
X155.65Y-74.75
X155.65Y-75.45
X156.15Y-70.65
T2
X166.7Y-65.0
X167.2Y-65.0
X167.7Y-65.0
X168.2Y-65.0
X168.7Y-65.0
X169.2Y-65.0
X169.7Y-65.0
X170.2Y-65.0
X170.7Y-65.0
X171.2Y-65.0
X171.7Y-65.0
X172.2Y-65.0
X172.7Y-65.0
X173.2Y-65.0
X173.7Y-65.0
X174.2Y-47.0
X174.2Y-47.5
X174.2Y-48.0
X174.2Y-48.5
X174.2Y-49.0
X174.2Y-49.5
X174.2Y-50.0
X174.2Y-50.5
X174.2Y-51.0
X174.2Y-51.5
X174.2Y-52.0
X174.2Y-52.5
X174.2Y-53.0
X174.2Y-53.5
X174.2Y-54.0
X174.2Y-54.5
X174.2Y-55.0
X174.2Y-55.5
X174.2Y-56.0
X174.2Y-56.5
X174.2Y-57.0
X174.2Y-57.5
X174.2Y-58.0
X174.2Y-58.5
X174.2Y-59.0
X174.2Y-59.5
X174.2Y-60.0
X174.2Y-60.5
X174.2Y-61.0
X174.2Y-61.5
X174.2Y-62.0
X174.2Y-62.5
X174.2Y-63.0
X174.2Y-63.5
X174.2Y-64.0
X174.2Y-64.5
X174.2Y-65.0
X174.7Y-47.0
X175.2Y-47.0
X175.7Y-47.0
X176.2Y-47.0
X176.7Y-47.0
X177.2Y-47.0
X177.7Y-47.0
X178.2Y-47.0
X178.7Y-47.0
X179.2Y-47.0
X179.2Y-47.5
X179.2Y-48.0
X179.2Y-48.5
X179.2Y-49.0
X179.2Y-49.5
X179.2Y-50.0
X179.2Y-50.5
X179.2Y-51.0
X179.2Y-51.5
X179.2Y-52.0
X179.2Y-52.5
X179.2Y-53.0
X179.2Y-53.5
X179.2Y-54.0
X179.2Y-54.5
X179.2Y-55.0
X179.2Y-55.5
X179.2Y-56.0
X179.2Y-56.5
X179.2Y-57.0
X179.2Y-57.5
X179.2Y-58.0
X179.2Y-58.5
X179.2Y-59.0
X179.2Y-59.5
X179.2Y-60.0
X179.2Y-60.5
X179.2Y-61.0
X179.2Y-61.5
X179.2Y-62.0
X179.2Y-62.5
X179.2Y-63.0
X179.2Y-63.5
X179.2Y-64.0
X179.2Y-64.5
X179.2Y-65.0
X179.2Y-65.5
X179.2Y-66.0
X179.2Y-66.5
X179.2Y-67.0
X179.2Y-67.5
X179.2Y-68.0
X179.2Y-68.5
X179.2Y-69.0
X179.2Y-69.5
X179.2Y-70.0
X179.2Y-70.5
X179.2Y-71.0
X179.2Y-71.5
X179.2Y-72.0
X179.2Y-72.5
X179.2Y-73.0
X179.2Y-73.5
X179.2Y-74.0
X179.2Y-74.5
X179.2Y-75.0
X179.2Y-75.5
X179.2Y-76.0
X179.2Y-76.5
X179.2Y-77.0
X179.2Y-77.5
X179.2Y-78.0
X179.2Y-78.5
X179.2Y-79.0
X179.2Y-79.5
X179.2Y-80.0
X179.2Y-80.5
X179.2Y-81.0
X179.2Y-81.5
X179.2Y-82.0
X179.2Y-82.5
X179.2Y-83.0
X179.7Y-83.0
X180.2Y-83.0
X180.7Y-83.0
X181.2Y-83.0
X181.7Y-83.0
X182.2Y-83.0
X182.7Y-83.0
X183.2Y-83.0
X183.7Y-83.0
X184.2Y-47.0
X184.2Y-47.5
X184.2Y-48.0
X184.2Y-48.5
X184.2Y-49.0
X184.2Y-49.5
X184.2Y-50.0
X184.2Y-50.5
X184.2Y-51.0
X184.2Y-51.5
X184.2Y-52.0
X184.2Y-52.5
X184.2Y-53.0
X184.2Y-53.5
X184.2Y-54.0
X184.2Y-54.5
X184.2Y-55.0
X184.2Y-55.5
X184.2Y-56.0
X184.2Y-56.5
X184.2Y-57.0
X184.2Y-57.5
X184.2Y-58.0
X184.2Y-58.5
X184.2Y-59.0
X184.2Y-59.5
X184.2Y-60.0
X184.2Y-60.5
X184.2Y-61.0
X184.2Y-61.5
X184.2Y-62.0
X184.2Y-62.5
X184.2Y-63.0
X184.2Y-63.5
X184.2Y-64.0
X184.2Y-64.5
X184.2Y-65.0
X184.2Y-65.5
X184.2Y-66.0
X184.2Y-66.5
X184.2Y-67.0
X184.2Y-67.5
X184.2Y-68.0
X184.2Y-68.5
X184.2Y-69.0
X184.2Y-69.5
X184.2Y-70.0
X184.2Y-70.5
X184.2Y-71.0
X184.2Y-71.5
X184.2Y-72.0
X184.2Y-72.5
X184.2Y-73.0
X184.2Y-73.5
X184.2Y-74.0
X184.2Y-74.5
X184.2Y-75.0
X184.2Y-75.5
X184.2Y-76.0
X184.2Y-76.5
X184.2Y-77.0
X184.2Y-77.5
X184.2Y-78.0
X184.2Y-78.5
X184.2Y-79.0
X184.2Y-79.5
X184.2Y-80.0
X184.2Y-80.5
X184.2Y-81.0
X184.2Y-81.5
X184.2Y-82.0
X184.2Y-82.5
X184.2Y-83.0
X184.7Y-47.0
X185.2Y-47.0
X185.7Y-47.0
X186.2Y-47.0
X186.7Y-47.0
X187.2Y-47.0
X187.7Y-47.0
X188.2Y-47.0
X188.7Y-47.0
X189.2Y-47.0
X189.2Y-47.5
X189.2Y-48.0
X189.2Y-48.5
X189.2Y-49.0
X189.2Y-49.5
X189.2Y-50.0
X189.2Y-50.5
X189.2Y-51.0
X189.2Y-51.5
X189.2Y-52.0
X189.2Y-52.5
X189.2Y-53.0
X189.2Y-53.5
X189.2Y-54.0
X189.2Y-54.5
X189.2Y-55.0
X189.2Y-55.5
X189.2Y-56.0
X189.2Y-56.5
X189.2Y-57.0
X189.2Y-57.5
X189.2Y-58.0
X189.2Y-58.5
X189.2Y-59.0
X189.2Y-59.5
X189.2Y-60.0
X189.2Y-60.5
X189.2Y-61.0
X189.2Y-61.5
X189.2Y-62.0
X189.2Y-62.5
X189.2Y-63.0
X189.2Y-63.5
X189.2Y-64.0
X189.2Y-64.5
X189.2Y-65.0
X189.2Y-65.5
X189.2Y-66.0
X189.2Y-66.5
X189.2Y-67.0
X189.2Y-67.5
X189.2Y-68.0
X189.2Y-68.5
X189.2Y-69.0
X189.2Y-69.5
X189.2Y-70.0
X189.2Y-70.5
X189.2Y-71.0
X189.2Y-71.5
X189.2Y-72.0
X189.2Y-72.5
X189.2Y-73.0
X189.2Y-73.5
X189.2Y-74.0
X189.2Y-74.5
X189.2Y-75.0
X189.2Y-75.5
X189.2Y-76.0
X189.2Y-76.5
X189.2Y-77.0
X189.2Y-77.5
X189.2Y-78.0
X189.2Y-78.5
X189.2Y-79.0
X189.2Y-79.5
X189.2Y-80.0
X189.2Y-80.5
X189.2Y-81.0
X189.2Y-81.5
X189.2Y-82.0
X189.2Y-82.5
X189.2Y-83.0
X189.2Y-83.5
T4
X81.75Y-44.75
X81.75Y-49.25
X88.25Y-44.75
X88.25Y-49.25
X90.75Y-44.75
X90.75Y-49.25
X97.25Y-44.75
X97.25Y-49.25
T3
G00X74.409Y-69.334
M15
G01X73.709Y-69.334
M16
G05
G00X74.463Y-60.666
M15
G01X73.763Y-60.666
M16
G05
G00X78.813Y-60.666
M15
G01X77.813Y-60.666
M16
G05
G00X78.813Y-69.316
M15
G01X77.813Y-69.316
M16
G05
M30
