%TF.GenerationSoftware,KiCad,Pcbnew,8.0.4*%
%TF.CreationDate,2024-08-17T13:27:17+02:00*%
%TF.ProjectId,letterboxsensor,6c657474-6572-4626-9f78-73656e736f72,rev?*%
%TF.SameCoordinates,Original*%
%TF.FileFunction,Paste,Top*%
%TF.FilePolarity,Positive*%
%FSLAX46Y46*%
G04 Gerber Fmt 4.6, Leading zero omitted, Abs format (unit mm)*
G04 Created by KiCad (PCBNEW 8.0.4) date 2024-08-17 13:27:17*
%MOMM*%
%LPD*%
G01*
G04 APERTURE LIST*
G04 Aperture macros list*
%AMRoundRect*
0 Rectangle with rounded corners*
0 $1 Rounding radius*
0 $2 $3 $4 $5 $6 $7 $8 $9 X,Y pos of 4 corners*
0 Add a 4 corners polygon primitive as box body*
4,1,4,$2,$3,$4,$5,$6,$7,$8,$9,$2,$3,0*
0 Add four circle primitives for the rounded corners*
1,1,$1+$1,$2,$3*
1,1,$1+$1,$4,$5*
1,1,$1+$1,$6,$7*
1,1,$1+$1,$8,$9*
0 Add four rect primitives between the rounded corners*
20,1,$1+$1,$2,$3,$4,$5,0*
20,1,$1+$1,$4,$5,$6,$7,0*
20,1,$1+$1,$6,$7,$8,$9,0*
20,1,$1+$1,$8,$9,$2,$3,0*%
G04 Aperture macros list end*
%ADD10RoundRect,0.200000X-0.360000X0.280000X-0.360000X-0.280000X0.360000X-0.280000X0.360000X0.280000X0*%
%ADD11RoundRect,0.200000X-0.280000X-0.360000X0.280000X-0.360000X0.280000X0.360000X-0.280000X0.360000X0*%
%ADD12RoundRect,0.200000X0.360000X-0.280000X0.360000X0.280000X-0.360000X0.280000X-0.360000X-0.280000X0*%
%ADD13RoundRect,0.200000X-0.270000X-0.380000X0.270000X-0.380000X0.270000X0.380000X-0.270000X0.380000X0*%
%ADD14RoundRect,0.200000X0.270000X0.380000X-0.270000X0.380000X-0.270000X-0.380000X0.270000X-0.380000X0*%
%ADD15RoundRect,0.200000X-0.820000X0.700000X-0.820000X-0.700000X0.820000X-0.700000X0.820000X0.700000X0*%
%ADD16R,1.040000X0.480000*%
%ADD17R,1.040000X0.240000*%
%ADD18RoundRect,0.190000X0.200000X0.190000X-0.200000X0.190000X-0.200000X-0.190000X0.200000X-0.190000X0*%
%ADD19R,0.800000X1.119635*%
%ADD20R,3.360000X3.040000*%
%ADD21R,1.440000X0.640000*%
%ADD22R,0.640000X1.440000*%
%ADD23RoundRect,0.200000X0.380000X-0.270000X0.380000X0.270000X-0.380000X0.270000X-0.380000X-0.270000X0*%
%ADD24R,2.000000X0.520011*%
%ADD25R,1.840000X1.040000*%
%ADD26RoundRect,0.175000X0.175000X0.305000X-0.175000X0.305000X-0.175000X-0.305000X0.175000X-0.305000X0*%
%ADD27RoundRect,0.200000X0.280000X0.360000X-0.280000X0.360000X-0.280000X-0.360000X0.280000X-0.360000X0*%
%ADD28R,0.320000X0.960000*%
G04 APERTURE END LIST*
D10*
%TO.C,R10*%
X78500000Y-49000000D03*
X78500000Y-51000000D03*
%TD*%
D11*
%TO.C,R12*%
X87000000Y-67000000D03*
X89000000Y-67000000D03*
%TD*%
%TO.C,R5*%
X133500000Y-44500000D03*
X135500000Y-44500000D03*
%TD*%
D12*
%TO.C,R9*%
X73000000Y-51000000D03*
X73000000Y-49000000D03*
%TD*%
D13*
%TO.C,C1*%
X137450000Y-83150000D03*
X139525000Y-83150000D03*
%TD*%
D14*
%TO.C,C3*%
X89037500Y-62000000D03*
X86962500Y-62000000D03*
%TD*%
D15*
%TO.C,C4*%
X119500000Y-63800000D03*
X119500000Y-70200000D03*
%TD*%
D16*
%TO.C,U1*%
X78963037Y-61791085D03*
X78963037Y-62590932D03*
D17*
X78963037Y-63741046D03*
X78963037Y-64741046D03*
X78963037Y-65240919D03*
X78964053Y-66240665D03*
D16*
X78963291Y-67391034D03*
X78963037Y-68190881D03*
D17*
X78963037Y-66741046D03*
X78963037Y-65741046D03*
X78963037Y-64240919D03*
X78964053Y-63240919D03*
%TD*%
D18*
%TO.C,R3*%
X114912500Y-63000000D03*
X113087500Y-63000000D03*
%TD*%
D11*
%TO.C,R1*%
X82500000Y-64350000D03*
X84500000Y-64350000D03*
%TD*%
D19*
%TO.C,D1*%
X140000000Y-44500000D03*
X137899416Y-44500000D03*
%TD*%
D20*
%TO.C,BT1*%
X133885065Y-52500000D03*
X105114935Y-52500000D03*
%TD*%
D15*
%TO.C,C5*%
X126000000Y-63800000D03*
X126000000Y-70200000D03*
%TD*%
D21*
%TO.C,U5*%
X158287656Y-75679959D03*
X158287656Y-74679959D03*
X158287656Y-73679959D03*
X158287656Y-72679959D03*
X158287656Y-71679959D03*
X158287656Y-70679959D03*
X158287656Y-69679959D03*
X158287656Y-68679959D03*
X158287656Y-67679959D03*
X158287656Y-66679959D03*
X158287656Y-65679959D03*
X158287656Y-64679959D03*
D22*
X150500000Y-62431293D03*
X149500000Y-62431293D03*
X148500000Y-62431293D03*
X147500000Y-62431293D03*
D21*
X143712598Y-64679959D03*
X143712344Y-65679451D03*
X143712598Y-66679959D03*
X143712598Y-71679959D03*
X143712598Y-72679959D03*
X143712598Y-73679959D03*
X143712598Y-74679959D03*
X143712598Y-75679959D03*
D22*
X147500000Y-77568707D03*
X148500000Y-77568707D03*
X149500000Y-77568707D03*
X150500000Y-77568707D03*
X151500000Y-77568707D03*
X152500000Y-77568707D03*
X153500000Y-77568707D03*
X154500000Y-77568707D03*
%TD*%
D23*
%TO.C,C6*%
X161000000Y-63000000D03*
X161000000Y-60925000D03*
%TD*%
D18*
%TO.C,R4*%
X110325000Y-63000000D03*
X108500000Y-63000000D03*
%TD*%
D13*
%TO.C,C2*%
X137412500Y-79300000D03*
X139487500Y-79300000D03*
%TD*%
D24*
%TO.C,U2*%
X149299975Y-83949962D03*
X149299975Y-85049784D03*
X154700025Y-85050038D03*
X154700025Y-83949962D03*
%TD*%
D25*
%TO.C,SW3*%
X148875032Y-52500000D03*
X140124968Y-52500000D03*
%TD*%
D26*
%TO.C,L1*%
X163000000Y-65000000D03*
X160875000Y-65000000D03*
%TD*%
D12*
%TO.C,R8*%
X158000000Y-85000000D03*
X158000000Y-83000000D03*
%TD*%
D11*
%TO.C,FB1*%
X82500000Y-62000000D03*
X84500000Y-62000000D03*
%TD*%
D19*
%TO.C,D2*%
X75550292Y-72500000D03*
X73449708Y-72500000D03*
%TD*%
D11*
%TO.C,R11*%
X87000000Y-64350000D03*
X89000000Y-64350000D03*
%TD*%
D27*
%TO.C,R6*%
X75500000Y-75500000D03*
X73500000Y-75500000D03*
%TD*%
D10*
%TO.C,R7*%
X145100000Y-81900000D03*
X145100000Y-83900000D03*
%TD*%
D28*
%TO.C,U4*%
X92777500Y-67100000D03*
X93412500Y-67100000D03*
X94047500Y-67100000D03*
X94682500Y-67100000D03*
X95317500Y-67100000D03*
X95952500Y-67100000D03*
X96587500Y-67100000D03*
X97222500Y-67100000D03*
X97222500Y-61900000D03*
X96587500Y-61900000D03*
X95952500Y-61900000D03*
X95317500Y-61900000D03*
X94682500Y-61900000D03*
X94047500Y-61900000D03*
X93412500Y-61900000D03*
X92777500Y-61900000D03*
%TD*%
D11*
%TO.C,R2*%
X82500000Y-67000000D03*
X84500000Y-67000000D03*
%TD*%
D24*
%TO.C,U3*%
X73099950Y-45000000D03*
X73099950Y-46099822D03*
X78500000Y-46100076D03*
X78500000Y-45000000D03*
%TD*%
M02*
