%TF.GenerationSoftware,KiCad,Pcbnew,8.0.4*%
%TF.CreationDate,2024-08-17T13:27:17+02:00*%
%TF.ProjectId,letterboxsensor,6c657474-6572-4626-9f78-73656e736f72,rev?*%
%TF.SameCoordinates,Original*%
%TF.FileFunction,Copper,L2,Inr*%
%TF.FilePolarity,Positive*%
%FSLAX46Y46*%
G04 Gerber Fmt 4.6, Leading zero omitted, Abs format (unit mm)*
G04 Created by KiCad (PCBNEW 8.0.4) date 2024-08-17 13:27:17*
%MOMM*%
%LPD*%
G01*
G04 APERTURE LIST*
%TA.AperFunction,ComponentPad*%
%ADD10O,2.100000X1.100000*%
%TD*%
%TA.AperFunction,ComponentPad*%
%ADD11O,1.800000X1.200000*%
%TD*%
%TA.AperFunction,ComponentPad*%
%ADD12C,1.800000*%
%TD*%
%TA.AperFunction,ComponentPad*%
%ADD13C,0.300000*%
%TD*%
%TA.AperFunction,ViaPad*%
%ADD14C,0.450000*%
%TD*%
G04 APERTURE END LIST*
D10*
%TO.N,GND*%
%TO.C,U1*%
X78313049Y-60665989D03*
D11*
X74112948Y-60665989D03*
D10*
X78313049Y-69316002D03*
D11*
X74058947Y-69333985D03*
%TD*%
D12*
%TO.N,RESET*%
%TO.C,SW2*%
X90750064Y-44750064D03*
X97249936Y-44750064D03*
%TO.N,GND*%
X90750064Y-49249936D03*
X97249936Y-49249936D03*
%TD*%
D13*
%TO.N,Net-(AE1-A)*%
%TO.C,AE1*%
X189200000Y-47000000D03*
X188700000Y-47000000D03*
X188200000Y-47000000D03*
X187700000Y-47000000D03*
X187200000Y-47000000D03*
X186700000Y-47000000D03*
X186200000Y-47000000D03*
X185700000Y-47000000D03*
X185200000Y-47000000D03*
X184700000Y-47000000D03*
X184200000Y-47000000D03*
X179200000Y-47000000D03*
X178700000Y-47000000D03*
X178200000Y-47000000D03*
X177700000Y-47000000D03*
X177200000Y-47000000D03*
X176700000Y-47000000D03*
X176200000Y-47000000D03*
X175700000Y-47000000D03*
X175200000Y-47000000D03*
X174700000Y-47000000D03*
X174200000Y-47000000D03*
X189200000Y-47500000D03*
X184200000Y-47500000D03*
X179200000Y-47500000D03*
X174200000Y-47500000D03*
X189200000Y-48000000D03*
X184200000Y-48000000D03*
X179200000Y-48000000D03*
X174200000Y-48000000D03*
X189200000Y-48500000D03*
X184200000Y-48500000D03*
X179200000Y-48500000D03*
X174200000Y-48500000D03*
X189200000Y-49000000D03*
X184200000Y-49000000D03*
X179200000Y-49000000D03*
X174200000Y-49000000D03*
X189200000Y-49500000D03*
X184200000Y-49500000D03*
X179200000Y-49500000D03*
X174200000Y-49500000D03*
X189200000Y-50000000D03*
X184200000Y-50000000D03*
X179200000Y-50000000D03*
X174200000Y-50000000D03*
X189200000Y-50500000D03*
X184200000Y-50500000D03*
X179200000Y-50500000D03*
X174200000Y-50500000D03*
X189200000Y-51000000D03*
X184200000Y-51000000D03*
X179200000Y-51000000D03*
X174200000Y-51000000D03*
X189200000Y-51500000D03*
X184200000Y-51500000D03*
X179200000Y-51500000D03*
X174200000Y-51500000D03*
X189200000Y-52000000D03*
X184200000Y-52000000D03*
X179200000Y-52000000D03*
X174200000Y-52000000D03*
X189200000Y-52500000D03*
X184200000Y-52500000D03*
X179200000Y-52500000D03*
X174200000Y-52500000D03*
X189200000Y-53000000D03*
X184200000Y-53000000D03*
X179200000Y-53000000D03*
X174200000Y-53000000D03*
X189200000Y-53500000D03*
X184200000Y-53500000D03*
X179200000Y-53500000D03*
X174200000Y-53500000D03*
X189200000Y-54000000D03*
X184200000Y-54000000D03*
X179200000Y-54000000D03*
X174200000Y-54000000D03*
X189200000Y-54500000D03*
X184200000Y-54500000D03*
X179200000Y-54500000D03*
X174200000Y-54500000D03*
X189200000Y-55000000D03*
X184200000Y-55000000D03*
X179200000Y-55000000D03*
X174200000Y-55000000D03*
X189200000Y-55500000D03*
X184200000Y-55500000D03*
X179200000Y-55500000D03*
X174200000Y-55500000D03*
X189200000Y-56000000D03*
X184200000Y-56000000D03*
X179200000Y-56000000D03*
X174200000Y-56000000D03*
X189200000Y-56500000D03*
X184200000Y-56500000D03*
X179200000Y-56500000D03*
X174200000Y-56500000D03*
X189200000Y-57000000D03*
X184200000Y-57000000D03*
X179200000Y-57000000D03*
X174200000Y-57000000D03*
X189200000Y-57500000D03*
X184200000Y-57500000D03*
X179200000Y-57500000D03*
X174200000Y-57500000D03*
X189200000Y-58000000D03*
X184200000Y-58000000D03*
X179200000Y-58000000D03*
X174200000Y-58000000D03*
X189200000Y-58500000D03*
X184200000Y-58500000D03*
X179200000Y-58500000D03*
X174200000Y-58500000D03*
X189200000Y-59000000D03*
X184200000Y-59000000D03*
X179200000Y-59000000D03*
X174200000Y-59000000D03*
X189200000Y-59500000D03*
X184200000Y-59500000D03*
X179200000Y-59500000D03*
X174200000Y-59500000D03*
X189200000Y-60000000D03*
X184200000Y-60000000D03*
X179200000Y-60000000D03*
X174200000Y-60000000D03*
X189200000Y-60500000D03*
X184200000Y-60500000D03*
X179200000Y-60500000D03*
X174200000Y-60500000D03*
X189200000Y-61000000D03*
X184200000Y-61000000D03*
X179200000Y-61000000D03*
X174200000Y-61000000D03*
X189200000Y-61500000D03*
X184200000Y-61500000D03*
X179200000Y-61500000D03*
X174200000Y-61500000D03*
X189200000Y-62000000D03*
X184200000Y-62000000D03*
X179200000Y-62000000D03*
X174200000Y-62000000D03*
X189200000Y-62500000D03*
X184200000Y-62500000D03*
X179200000Y-62500000D03*
X174200000Y-62500000D03*
X189200000Y-63000000D03*
X184200000Y-63000000D03*
X179200000Y-63000000D03*
X174200000Y-63000000D03*
X189200000Y-63500000D03*
X184200000Y-63500000D03*
X179200000Y-63500000D03*
X174200000Y-63500000D03*
X189200000Y-64000000D03*
X184200000Y-64000000D03*
X179200000Y-64000000D03*
X174200000Y-64000000D03*
X189200000Y-64500000D03*
X184200000Y-64500000D03*
X179200000Y-64500000D03*
X174200000Y-64500000D03*
X189200000Y-65000000D03*
X184200000Y-65000000D03*
X179200000Y-65000000D03*
X174200000Y-65000000D03*
X173700000Y-65000000D03*
X173200000Y-65000000D03*
X172700000Y-65000000D03*
X172200000Y-65000000D03*
X171700000Y-65000000D03*
X171200000Y-65000000D03*
X170700000Y-65000000D03*
X170200000Y-65000000D03*
X169700000Y-65000000D03*
X169200000Y-65000000D03*
X168700000Y-65000000D03*
X168200000Y-65000000D03*
X167700000Y-65000000D03*
X167200000Y-65000000D03*
X166700000Y-65000000D03*
X189200000Y-65500000D03*
X184200000Y-65500000D03*
X179200000Y-65500000D03*
X189200000Y-66000000D03*
X184200000Y-66000000D03*
X179200000Y-66000000D03*
X189200000Y-66500000D03*
X184200000Y-66500000D03*
X179200000Y-66500000D03*
X189200000Y-67000000D03*
X184200000Y-67000000D03*
X179200000Y-67000000D03*
X189200000Y-67500000D03*
X184200000Y-67500000D03*
X179200000Y-67500000D03*
X189200000Y-68000000D03*
X184200000Y-68000000D03*
X179200000Y-68000000D03*
X189200000Y-68500000D03*
X184200000Y-68500000D03*
X179200000Y-68500000D03*
X189200000Y-69000000D03*
X184200000Y-69000000D03*
X179200000Y-69000000D03*
X189200000Y-69500000D03*
X184200000Y-69500000D03*
X179200000Y-69500000D03*
X189200000Y-70000000D03*
X184200000Y-70000000D03*
X179200000Y-70000000D03*
X189200000Y-70500000D03*
X184200000Y-70500000D03*
X179200000Y-70500000D03*
X189200000Y-71000000D03*
X184200000Y-71000000D03*
X179200000Y-71000000D03*
X189200000Y-71500000D03*
X184200000Y-71500000D03*
X179200000Y-71500000D03*
X189200000Y-72000000D03*
X184200000Y-72000000D03*
X179200000Y-72000000D03*
X189200000Y-72500000D03*
X184200000Y-72500000D03*
X179200000Y-72500000D03*
X189200000Y-73000000D03*
X184200000Y-73000000D03*
X179200000Y-73000000D03*
X189200000Y-73500000D03*
X184200000Y-73500000D03*
X179200000Y-73500000D03*
X189200000Y-74000000D03*
X184200000Y-74000000D03*
X179200000Y-74000000D03*
X189200000Y-74500000D03*
X184200000Y-74500000D03*
X179200000Y-74500000D03*
X189200000Y-75000000D03*
X184200000Y-75000000D03*
X179200000Y-75000000D03*
X189200000Y-75500000D03*
X184200000Y-75500000D03*
X179200000Y-75500000D03*
X189200000Y-76000000D03*
X184200000Y-76000000D03*
X179200000Y-76000000D03*
X189200000Y-76500000D03*
X184200000Y-76500000D03*
X179200000Y-76500000D03*
X189200000Y-77000000D03*
X184200000Y-77000000D03*
X179200000Y-77000000D03*
X189200000Y-77500000D03*
X184200000Y-77500000D03*
X179200000Y-77500000D03*
X189200000Y-78000000D03*
X184200000Y-78000000D03*
X179200000Y-78000000D03*
X189200000Y-78500000D03*
X184200000Y-78500000D03*
X179200000Y-78500000D03*
X189200000Y-79000000D03*
X184200000Y-79000000D03*
X179200000Y-79000000D03*
X189200000Y-79500000D03*
X184200000Y-79500000D03*
X179200000Y-79500000D03*
X189200000Y-80000000D03*
X184200000Y-80000000D03*
X179200000Y-80000000D03*
X189200000Y-80500000D03*
X184200000Y-80500000D03*
X179200000Y-80500000D03*
X189200000Y-81000000D03*
X184200000Y-81000000D03*
X179200000Y-81000000D03*
X189200000Y-81500000D03*
X184200000Y-81500000D03*
X179200000Y-81500000D03*
X189200000Y-82000000D03*
X184200000Y-82000000D03*
X179200000Y-82000000D03*
X189200000Y-82500000D03*
X184200000Y-82500000D03*
X179200000Y-82500000D03*
X189200000Y-83000000D03*
X184200000Y-83000000D03*
X183700000Y-83000000D03*
X183200000Y-83000000D03*
X182700000Y-83000000D03*
X182200000Y-83000000D03*
X181700000Y-83000000D03*
X181200000Y-83000000D03*
X180700000Y-83000000D03*
X180200000Y-83000000D03*
X179700000Y-83000000D03*
X179200000Y-83000000D03*
X189200000Y-83500000D03*
%TD*%
D12*
%TO.N,BOOT*%
%TO.C,SW1*%
X81750064Y-44750064D03*
X88249936Y-44750064D03*
%TO.N,+3V3*%
X81750064Y-49249936D03*
X88249936Y-49249936D03*
%TD*%
D14*
%TO.N,+3V3*%
X139650000Y-85000000D03*
X122650000Y-63800000D03*
X149600000Y-54500000D03*
%TO.N,GND*%
X84200000Y-68250000D03*
X80550000Y-60800000D03*
X81200000Y-69000000D03*
X105450000Y-58700000D03*
X126050000Y-73600000D03*
X78500000Y-53300000D03*
X143000000Y-44550000D03*
X119500000Y-73350000D03*
X90050000Y-61200000D03*
X145950000Y-65700000D03*
X141950000Y-74800000D03*
X93050000Y-60500000D03*
X146900000Y-85450000D03*
X83550000Y-63200000D03*
X153450000Y-65600000D03*
X152600000Y-80100000D03*
X145900000Y-64650000D03*
X154350000Y-60100000D03*
X95400000Y-65900000D03*
%TO.N,CBUS1*%
X94050000Y-63450000D03*
X90800000Y-68200000D03*
%TO.N,ADC3*%
X149600000Y-79900000D03*
X142850000Y-80050000D03*
%TO.N,3V3USB*%
X94600000Y-65350000D03*
X95800000Y-63200000D03*
%TO.N,GPIO1*%
X94850000Y-58600000D03*
X151250000Y-74050000D03*
%TO.N,ADC2*%
X153500000Y-70900000D03*
X95450501Y-58612895D03*
%TO.N,DP*%
X80200000Y-64900000D03*
X80750000Y-65816046D03*
%TO.N,BOOT*%
X139900000Y-68300000D03*
X95231409Y-57218591D03*
%TO.N,RESET*%
X140900000Y-70250000D03*
X93800000Y-56750000D03*
X140900000Y-71700000D03*
X140550000Y-68700000D03*
%TO.N,GPIO4*%
X144250000Y-70450000D03*
X147400000Y-81000000D03*
X146700000Y-73200000D03*
X151100000Y-81350000D03*
%TO.N,GPIO2*%
X156150000Y-70650000D03*
X95437606Y-58012394D03*
%TO.N,TX*%
X147850000Y-75900000D03*
X96300000Y-68900000D03*
X149550000Y-75000000D03*
X155650000Y-74750000D03*
%TO.N,RX*%
X155650000Y-75450000D03*
X92350000Y-68400000D03*
%TD*%
%TA.AperFunction,Conductor*%
%TO.N,+3V3*%
G36*
X80819732Y-43490185D02*
G01*
X80865487Y-43542989D01*
X80875431Y-43612147D01*
X80846406Y-43675703D01*
X80828855Y-43692354D01*
X80798281Y-43716150D01*
X80641080Y-43886916D01*
X80514139Y-44081215D01*
X80420906Y-44293763D01*
X80363930Y-44518755D01*
X80363928Y-44518766D01*
X80344764Y-44750057D01*
X80344764Y-44750070D01*
X80363928Y-44981361D01*
X80363930Y-44981372D01*
X80420906Y-45206364D01*
X80514139Y-45418912D01*
X80641080Y-45613211D01*
X80641083Y-45613215D01*
X80641085Y-45613217D01*
X80798280Y-45783977D01*
X80798283Y-45783979D01*
X80798286Y-45783982D01*
X80981429Y-45926528D01*
X80981435Y-45926532D01*
X80981438Y-45926534D01*
X81185561Y-46037000D01*
X81299551Y-46076132D01*
X81405079Y-46112361D01*
X81405081Y-46112361D01*
X81405083Y-46112362D01*
X81634015Y-46150564D01*
X81634016Y-46150564D01*
X81866112Y-46150564D01*
X81866113Y-46150564D01*
X82095045Y-46112362D01*
X82314567Y-46037000D01*
X82518690Y-45926534D01*
X82548421Y-45903394D01*
X82580193Y-45878664D01*
X82701848Y-45783977D01*
X82859043Y-45613217D01*
X82985988Y-45418913D01*
X83079221Y-45206364D01*
X83136198Y-44981369D01*
X83138785Y-44950147D01*
X83155364Y-44750070D01*
X83155364Y-44750057D01*
X83136199Y-44518766D01*
X83136197Y-44518755D01*
X83079221Y-44293763D01*
X82985988Y-44081215D01*
X82859047Y-43886916D01*
X82859044Y-43886913D01*
X82859043Y-43886911D01*
X82701848Y-43716151D01*
X82671272Y-43692353D01*
X82630460Y-43635643D01*
X82626785Y-43565870D01*
X82661416Y-43505187D01*
X82723358Y-43472860D01*
X82747435Y-43470500D01*
X87252565Y-43470500D01*
X87319604Y-43490185D01*
X87365359Y-43542989D01*
X87375303Y-43612147D01*
X87346278Y-43675703D01*
X87328727Y-43692354D01*
X87298153Y-43716150D01*
X87140952Y-43886916D01*
X87014011Y-44081215D01*
X86920778Y-44293763D01*
X86863802Y-44518755D01*
X86863800Y-44518766D01*
X86844636Y-44750057D01*
X86844636Y-44750070D01*
X86863800Y-44981361D01*
X86863802Y-44981372D01*
X86920778Y-45206364D01*
X87014011Y-45418912D01*
X87140952Y-45613211D01*
X87140955Y-45613215D01*
X87140957Y-45613217D01*
X87298152Y-45783977D01*
X87298155Y-45783979D01*
X87298158Y-45783982D01*
X87481301Y-45926528D01*
X87481307Y-45926532D01*
X87481310Y-45926534D01*
X87685433Y-46037000D01*
X87799423Y-46076132D01*
X87904951Y-46112361D01*
X87904953Y-46112361D01*
X87904955Y-46112362D01*
X88133887Y-46150564D01*
X88133888Y-46150564D01*
X88365984Y-46150564D01*
X88365985Y-46150564D01*
X88594917Y-46112362D01*
X88814439Y-46037000D01*
X89018562Y-45926534D01*
X89048293Y-45903394D01*
X89080065Y-45878664D01*
X89201720Y-45783977D01*
X89358915Y-45613217D01*
X89396191Y-45556162D01*
X89449337Y-45510805D01*
X89518569Y-45501381D01*
X89581904Y-45530883D01*
X89603809Y-45556162D01*
X89641080Y-45613211D01*
X89641083Y-45613215D01*
X89641085Y-45613217D01*
X89798280Y-45783977D01*
X89798283Y-45783979D01*
X89798286Y-45783982D01*
X89981429Y-45926528D01*
X89981435Y-45926532D01*
X89981438Y-45926534D01*
X90185561Y-46037000D01*
X90299551Y-46076132D01*
X90405079Y-46112361D01*
X90405081Y-46112361D01*
X90405083Y-46112362D01*
X90634015Y-46150564D01*
X90634016Y-46150564D01*
X90866112Y-46150564D01*
X90866113Y-46150564D01*
X91095045Y-46112362D01*
X91314567Y-46037000D01*
X91518690Y-45926534D01*
X91548421Y-45903394D01*
X91580193Y-45878664D01*
X91701848Y-45783977D01*
X91859043Y-45613217D01*
X91985988Y-45418913D01*
X92079221Y-45206364D01*
X92136198Y-44981369D01*
X92138785Y-44950147D01*
X92155364Y-44750070D01*
X92155364Y-44750057D01*
X92136199Y-44518766D01*
X92136197Y-44518755D01*
X92079221Y-44293763D01*
X91985988Y-44081215D01*
X91859047Y-43886916D01*
X91859044Y-43886913D01*
X91859043Y-43886911D01*
X91701848Y-43716151D01*
X91671272Y-43692353D01*
X91630460Y-43635643D01*
X91626785Y-43565870D01*
X91661416Y-43505187D01*
X91723358Y-43472860D01*
X91747435Y-43470500D01*
X96252565Y-43470500D01*
X96319604Y-43490185D01*
X96365359Y-43542989D01*
X96375303Y-43612147D01*
X96346278Y-43675703D01*
X96328727Y-43692354D01*
X96298153Y-43716150D01*
X96140952Y-43886916D01*
X96014011Y-44081215D01*
X95920778Y-44293763D01*
X95863802Y-44518755D01*
X95863800Y-44518766D01*
X95844636Y-44750057D01*
X95844636Y-44750070D01*
X95863800Y-44981361D01*
X95863802Y-44981372D01*
X95920778Y-45206364D01*
X96014011Y-45418912D01*
X96140952Y-45613211D01*
X96140955Y-45613215D01*
X96140957Y-45613217D01*
X96298152Y-45783977D01*
X96298155Y-45783979D01*
X96298158Y-45783982D01*
X96481301Y-45926528D01*
X96481307Y-45926532D01*
X96481310Y-45926534D01*
X96685433Y-46037000D01*
X96799423Y-46076132D01*
X96904951Y-46112361D01*
X96904953Y-46112361D01*
X96904955Y-46112362D01*
X97133887Y-46150564D01*
X97133888Y-46150564D01*
X97365984Y-46150564D01*
X97365985Y-46150564D01*
X97594917Y-46112362D01*
X97814439Y-46037000D01*
X98018562Y-45926534D01*
X98048293Y-45903394D01*
X98048301Y-45903388D01*
X100772500Y-45903388D01*
X100772500Y-46096611D01*
X100802725Y-46287441D01*
X100862429Y-46471194D01*
X100950147Y-46643349D01*
X101063715Y-46799663D01*
X101200336Y-46936284D01*
X101356650Y-47049852D01*
X101528805Y-47137570D01*
X101620681Y-47167422D01*
X101712560Y-47197275D01*
X101800943Y-47211273D01*
X101903389Y-47227500D01*
X101903394Y-47227500D01*
X102096611Y-47227500D01*
X102189123Y-47212846D01*
X102287440Y-47197275D01*
X102471197Y-47137569D01*
X102643350Y-47049852D01*
X102799663Y-46936285D01*
X102936285Y-46799663D01*
X103049852Y-46643350D01*
X103137569Y-46471197D01*
X103197275Y-46287440D01*
X103225005Y-46112361D01*
X103227500Y-46096611D01*
X103227500Y-45903388D01*
X103208586Y-45783977D01*
X103197275Y-45712560D01*
X103164995Y-45613211D01*
X103137570Y-45528805D01*
X103049852Y-45356650D01*
X102994229Y-45280091D01*
X102936285Y-45200337D01*
X102799663Y-45063715D01*
X102686327Y-44981372D01*
X102643349Y-44950147D01*
X102471194Y-44862429D01*
X102287441Y-44802725D01*
X102096611Y-44772500D01*
X102096606Y-44772500D01*
X101903394Y-44772500D01*
X101903389Y-44772500D01*
X101712558Y-44802725D01*
X101528805Y-44862429D01*
X101356650Y-44950147D01*
X101200336Y-45063715D01*
X101063715Y-45200336D01*
X100950147Y-45356650D01*
X100862429Y-45528805D01*
X100802725Y-45712558D01*
X100772500Y-45903388D01*
X98048301Y-45903388D01*
X98080065Y-45878664D01*
X98201720Y-45783977D01*
X98358915Y-45613217D01*
X98485860Y-45418913D01*
X98579093Y-45206364D01*
X98636070Y-44981369D01*
X98638657Y-44950147D01*
X98655236Y-44750070D01*
X98655236Y-44750057D01*
X98638659Y-44549996D01*
X142269909Y-44549996D01*
X142269909Y-44550003D01*
X142288212Y-44712455D01*
X142342210Y-44866774D01*
X142342211Y-44866775D01*
X142429192Y-45005204D01*
X142544796Y-45120808D01*
X142683225Y-45207789D01*
X142837539Y-45261786D01*
X142837542Y-45261786D01*
X142837544Y-45261787D01*
X142999996Y-45280091D01*
X143000000Y-45280091D01*
X143000004Y-45280091D01*
X143162455Y-45261787D01*
X143162456Y-45261786D01*
X143162461Y-45261786D01*
X143316775Y-45207789D01*
X143455204Y-45120808D01*
X143570808Y-45005204D01*
X143657789Y-44866775D01*
X143711786Y-44712461D01*
X143730091Y-44550000D01*
X143711786Y-44387539D01*
X143657789Y-44233225D01*
X143570808Y-44094796D01*
X143455204Y-43979192D01*
X143439372Y-43969244D01*
X143316774Y-43892210D01*
X143162455Y-43838212D01*
X143000004Y-43819909D01*
X142999996Y-43819909D01*
X142837544Y-43838212D01*
X142683225Y-43892210D01*
X142544795Y-43979192D01*
X142429192Y-44094795D01*
X142342210Y-44233225D01*
X142288212Y-44387544D01*
X142269909Y-44549996D01*
X98638659Y-44549996D01*
X98636071Y-44518766D01*
X98636069Y-44518755D01*
X98579093Y-44293763D01*
X98485860Y-44081215D01*
X98358919Y-43886916D01*
X98358916Y-43886913D01*
X98358915Y-43886911D01*
X98201720Y-43716151D01*
X98171144Y-43692353D01*
X98130332Y-43635643D01*
X98126657Y-43565870D01*
X98161288Y-43505187D01*
X98223230Y-43472860D01*
X98247307Y-43470500D01*
X156076000Y-43470500D01*
X156143039Y-43490185D01*
X156188794Y-43542989D01*
X156200000Y-43594500D01*
X156200000Y-69803462D01*
X156180315Y-69870501D01*
X156127511Y-69916256D01*
X156089883Y-69926682D01*
X155987544Y-69938212D01*
X155833225Y-69992210D01*
X155694795Y-70079192D01*
X155579192Y-70194795D01*
X155492210Y-70333225D01*
X155438212Y-70487544D01*
X155419909Y-70649996D01*
X155419909Y-70650003D01*
X155438212Y-70812455D01*
X155492210Y-70966774D01*
X155526162Y-71020808D01*
X155579192Y-71105204D01*
X155694796Y-71220808D01*
X155833225Y-71307789D01*
X155987539Y-71361786D01*
X155987543Y-71361786D01*
X155987545Y-71361787D01*
X156039607Y-71367652D01*
X156089883Y-71373317D01*
X156154297Y-71400383D01*
X156193852Y-71457977D01*
X156200000Y-71496537D01*
X156200000Y-74014394D01*
X156180315Y-74081433D01*
X156127511Y-74127188D01*
X156058353Y-74137132D01*
X156010029Y-74119388D01*
X155966777Y-74092211D01*
X155812455Y-74038212D01*
X155650004Y-74019909D01*
X155649996Y-74019909D01*
X155487544Y-74038212D01*
X155333225Y-74092210D01*
X155194795Y-74179192D01*
X155079192Y-74294795D01*
X154992210Y-74433225D01*
X154938212Y-74587544D01*
X154919909Y-74749996D01*
X154919909Y-74750003D01*
X154938212Y-74912455D01*
X154989506Y-75059046D01*
X154993067Y-75128825D01*
X154989506Y-75140954D01*
X154938212Y-75287544D01*
X154919909Y-75449996D01*
X154919909Y-75450003D01*
X154938212Y-75612455D01*
X154992210Y-75766774D01*
X154992211Y-75766775D01*
X155079192Y-75905204D01*
X155194796Y-76020808D01*
X155333225Y-76107789D01*
X155487539Y-76161786D01*
X155487542Y-76161786D01*
X155487544Y-76161787D01*
X155649996Y-76180091D01*
X155650000Y-76180091D01*
X155650004Y-76180091D01*
X155812455Y-76161787D01*
X155812456Y-76161786D01*
X155812461Y-76161786D01*
X155966775Y-76107789D01*
X156010027Y-76080612D01*
X156077264Y-76061611D01*
X156144099Y-76081978D01*
X156189313Y-76135246D01*
X156200000Y-76185605D01*
X156200000Y-86405500D01*
X156180315Y-86472539D01*
X156127511Y-86518294D01*
X156076000Y-86529500D01*
X71594500Y-86529500D01*
X71527461Y-86509815D01*
X71481706Y-86457011D01*
X71470500Y-86405500D01*
X71470500Y-85449996D01*
X146169909Y-85449996D01*
X146169909Y-85450003D01*
X146188212Y-85612455D01*
X146242210Y-85766774D01*
X146242211Y-85766775D01*
X146329192Y-85905204D01*
X146444796Y-86020808D01*
X146583225Y-86107789D01*
X146737539Y-86161786D01*
X146737542Y-86161786D01*
X146737544Y-86161787D01*
X146899996Y-86180091D01*
X146900000Y-86180091D01*
X146900004Y-86180091D01*
X147062455Y-86161787D01*
X147062456Y-86161786D01*
X147062461Y-86161786D01*
X147216775Y-86107789D01*
X147355204Y-86020808D01*
X147470808Y-85905204D01*
X147557789Y-85766775D01*
X147611786Y-85612461D01*
X147630091Y-85450000D01*
X147611786Y-85287539D01*
X147557789Y-85133225D01*
X147470808Y-84994796D01*
X147355204Y-84879192D01*
X147228635Y-84799663D01*
X147216774Y-84792210D01*
X147062455Y-84738212D01*
X146900004Y-84719909D01*
X146899996Y-84719909D01*
X146737544Y-84738212D01*
X146583225Y-84792210D01*
X146444795Y-84879192D01*
X146329192Y-84994795D01*
X146242210Y-85133225D01*
X146188212Y-85287544D01*
X146169909Y-85449996D01*
X71470500Y-85449996D01*
X71470500Y-83903388D01*
X100772500Y-83903388D01*
X100772500Y-84096611D01*
X100802725Y-84287441D01*
X100862429Y-84471194D01*
X100862431Y-84471197D01*
X100950148Y-84643350D01*
X101063715Y-84799663D01*
X101200337Y-84936285D01*
X101356650Y-85049852D01*
X101520277Y-85133225D01*
X101528805Y-85137570D01*
X101620681Y-85167422D01*
X101712560Y-85197275D01*
X101800943Y-85211273D01*
X101903389Y-85227500D01*
X101903394Y-85227500D01*
X102096611Y-85227500D01*
X102189123Y-85212846D01*
X102287440Y-85197275D01*
X102471197Y-85137569D01*
X102643350Y-85049852D01*
X102799663Y-84936285D01*
X102936285Y-84799663D01*
X103049852Y-84643350D01*
X103137569Y-84471197D01*
X103197275Y-84287440D01*
X103212846Y-84189123D01*
X103227500Y-84096611D01*
X103227500Y-83903388D01*
X103209916Y-83792373D01*
X103197275Y-83712560D01*
X103137569Y-83528803D01*
X103049852Y-83356650D01*
X102936285Y-83200337D01*
X102799663Y-83063715D01*
X102643350Y-82950148D01*
X102643351Y-82950148D01*
X102643349Y-82950147D01*
X102471194Y-82862429D01*
X102287441Y-82802725D01*
X102096611Y-82772500D01*
X102096606Y-82772500D01*
X101903394Y-82772500D01*
X101903389Y-82772500D01*
X101712558Y-82802725D01*
X101528805Y-82862429D01*
X101356650Y-82950147D01*
X101200336Y-83063715D01*
X101063715Y-83200336D01*
X100950147Y-83356650D01*
X100862429Y-83528805D01*
X100802725Y-83712558D01*
X100772500Y-83903388D01*
X71470500Y-83903388D01*
X71470500Y-82310706D01*
X71946500Y-82310706D01*
X71946500Y-82449293D01*
X71973533Y-82585195D01*
X71973536Y-82585207D01*
X72026562Y-82713225D01*
X72026569Y-82713238D01*
X72103555Y-82828454D01*
X72103558Y-82828458D01*
X72201541Y-82926441D01*
X72201545Y-82926444D01*
X72316761Y-83003430D01*
X72316774Y-83003437D01*
X72444792Y-83056463D01*
X72444797Y-83056465D01*
X72580706Y-83083499D01*
X72580709Y-83083500D01*
X72580711Y-83083500D01*
X72719291Y-83083500D01*
X72719292Y-83083499D01*
X72855203Y-83056465D01*
X72983232Y-83003434D01*
X73098455Y-82926444D01*
X73196444Y-82828455D01*
X73273434Y-82713232D01*
X73326465Y-82585203D01*
X73353500Y-82449289D01*
X73353500Y-82310711D01*
X73353500Y-82310708D01*
X73353499Y-82310706D01*
X73326466Y-82174804D01*
X73326465Y-82174797D01*
X73279655Y-82061786D01*
X73273437Y-82046774D01*
X73273430Y-82046761D01*
X73196444Y-81931545D01*
X73196441Y-81931541D01*
X73098458Y-81833558D01*
X73098454Y-81833555D01*
X72983238Y-81756569D01*
X72983225Y-81756562D01*
X72855207Y-81703536D01*
X72855195Y-81703533D01*
X72719292Y-81676500D01*
X72719289Y-81676500D01*
X72580711Y-81676500D01*
X72580708Y-81676500D01*
X72444804Y-81703533D01*
X72444792Y-81703536D01*
X72316774Y-81756562D01*
X72316761Y-81756569D01*
X72201545Y-81833555D01*
X72201541Y-81833558D01*
X72103558Y-81931541D01*
X72103555Y-81931545D01*
X72026569Y-82046761D01*
X72026562Y-82046774D01*
X71973536Y-82174792D01*
X71973533Y-82174804D01*
X71946500Y-82310706D01*
X71470500Y-82310706D01*
X71470500Y-80999996D01*
X146669909Y-80999996D01*
X146669909Y-81000003D01*
X146688212Y-81162455D01*
X146742210Y-81316774D01*
X146829192Y-81455204D01*
X146944796Y-81570808D01*
X147083225Y-81657789D01*
X147237539Y-81711786D01*
X147237542Y-81711786D01*
X147237544Y-81711787D01*
X147399996Y-81730091D01*
X147400000Y-81730091D01*
X147400004Y-81730091D01*
X147562455Y-81711787D01*
X147562456Y-81711786D01*
X147562461Y-81711786D01*
X147716775Y-81657789D01*
X147855204Y-81570808D01*
X147970808Y-81455204D01*
X148036915Y-81349996D01*
X150369909Y-81349996D01*
X150369909Y-81350003D01*
X150388212Y-81512455D01*
X150442210Y-81666774D01*
X150529192Y-81805204D01*
X150644796Y-81920808D01*
X150783225Y-82007789D01*
X150937539Y-82061786D01*
X150937542Y-82061786D01*
X150937544Y-82061787D01*
X151099996Y-82080091D01*
X151100000Y-82080091D01*
X151100004Y-82080091D01*
X151262455Y-82061787D01*
X151262456Y-82061786D01*
X151262461Y-82061786D01*
X151416775Y-82007789D01*
X151555204Y-81920808D01*
X151670808Y-81805204D01*
X151757789Y-81666775D01*
X151811786Y-81512461D01*
X151811787Y-81512455D01*
X151830091Y-81350003D01*
X151830091Y-81349996D01*
X151811787Y-81187544D01*
X151811786Y-81187542D01*
X151811786Y-81187539D01*
X151757789Y-81033225D01*
X151670808Y-80894796D01*
X151555204Y-80779192D01*
X151527503Y-80761786D01*
X151416774Y-80692210D01*
X151262455Y-80638212D01*
X151100004Y-80619909D01*
X151099996Y-80619909D01*
X150937544Y-80638212D01*
X150783225Y-80692210D01*
X150644795Y-80779192D01*
X150529192Y-80894795D01*
X150442210Y-81033225D01*
X150388212Y-81187544D01*
X150369909Y-81349996D01*
X148036915Y-81349996D01*
X148057789Y-81316775D01*
X148111786Y-81162461D01*
X148111787Y-81162455D01*
X148130091Y-81000003D01*
X148130091Y-80999996D01*
X148111787Y-80837544D01*
X148111786Y-80837542D01*
X148111786Y-80837539D01*
X148057789Y-80683225D01*
X147970808Y-80544796D01*
X147855204Y-80429192D01*
X147835441Y-80416774D01*
X147716774Y-80342210D01*
X147562455Y-80288212D01*
X147400004Y-80269909D01*
X147399996Y-80269909D01*
X147237544Y-80288212D01*
X147083225Y-80342210D01*
X146944795Y-80429192D01*
X146829192Y-80544795D01*
X146742210Y-80683225D01*
X146688212Y-80837544D01*
X146669909Y-80999996D01*
X71470500Y-80999996D01*
X71470500Y-80049996D01*
X142119909Y-80049996D01*
X142119909Y-80050003D01*
X142138212Y-80212455D01*
X142192210Y-80366774D01*
X142223628Y-80416775D01*
X142279192Y-80505204D01*
X142394796Y-80620808D01*
X142533225Y-80707789D01*
X142687539Y-80761786D01*
X142687542Y-80761786D01*
X142687544Y-80761787D01*
X142849996Y-80780091D01*
X142850000Y-80780091D01*
X142850004Y-80780091D01*
X143012455Y-80761787D01*
X143012456Y-80761786D01*
X143012461Y-80761786D01*
X143166775Y-80707789D01*
X143305204Y-80620808D01*
X143420808Y-80505204D01*
X143507789Y-80366775D01*
X143561786Y-80212461D01*
X143574457Y-80100003D01*
X143580091Y-80050003D01*
X143580091Y-80049996D01*
X143563190Y-79899996D01*
X148869909Y-79899996D01*
X148869909Y-79900003D01*
X148888212Y-80062455D01*
X148942210Y-80216774D01*
X148975597Y-80269909D01*
X149029192Y-80355204D01*
X149144796Y-80470808D01*
X149283225Y-80557789D01*
X149437539Y-80611786D01*
X149437542Y-80611786D01*
X149437544Y-80611787D01*
X149599996Y-80630091D01*
X149600000Y-80630091D01*
X149600004Y-80630091D01*
X149762455Y-80611787D01*
X149762456Y-80611786D01*
X149762461Y-80611786D01*
X149916775Y-80557789D01*
X150055204Y-80470808D01*
X150170808Y-80355204D01*
X150257789Y-80216775D01*
X150298652Y-80099996D01*
X151869909Y-80099996D01*
X151869909Y-80100003D01*
X151888212Y-80262455D01*
X151942210Y-80416774D01*
X151976162Y-80470808D01*
X152029192Y-80555204D01*
X152144796Y-80670808D01*
X152283225Y-80757789D01*
X152437539Y-80811786D01*
X152437542Y-80811786D01*
X152437544Y-80811787D01*
X152599996Y-80830091D01*
X152600000Y-80830091D01*
X152600004Y-80830091D01*
X152762455Y-80811787D01*
X152762456Y-80811786D01*
X152762461Y-80811786D01*
X152916775Y-80757789D01*
X153055204Y-80670808D01*
X153170808Y-80555204D01*
X153257789Y-80416775D01*
X153311786Y-80262461D01*
X153317420Y-80212461D01*
X153330091Y-80100003D01*
X153330091Y-80099996D01*
X153311787Y-79937544D01*
X153311786Y-79937542D01*
X153311786Y-79937539D01*
X153257789Y-79783225D01*
X153170808Y-79644796D01*
X153055204Y-79529192D01*
X152975630Y-79479192D01*
X152916774Y-79442210D01*
X152762455Y-79388212D01*
X152600004Y-79369909D01*
X152599996Y-79369909D01*
X152437544Y-79388212D01*
X152283225Y-79442210D01*
X152144795Y-79529192D01*
X152029192Y-79644795D01*
X151942210Y-79783225D01*
X151888212Y-79937544D01*
X151869909Y-80099996D01*
X150298652Y-80099996D01*
X150311786Y-80062461D01*
X150313190Y-80050000D01*
X150330091Y-79900003D01*
X150330091Y-79899996D01*
X150311787Y-79737544D01*
X150311786Y-79737542D01*
X150311786Y-79737539D01*
X150257789Y-79583225D01*
X150170808Y-79444796D01*
X150055204Y-79329192D01*
X150040430Y-79319909D01*
X149916774Y-79242210D01*
X149762455Y-79188212D01*
X149600004Y-79169909D01*
X149599996Y-79169909D01*
X149437544Y-79188212D01*
X149283225Y-79242210D01*
X149144795Y-79329192D01*
X149029192Y-79444795D01*
X148942210Y-79583225D01*
X148888212Y-79737544D01*
X148869909Y-79899996D01*
X143563190Y-79899996D01*
X143561787Y-79887544D01*
X143561786Y-79887542D01*
X143561786Y-79887539D01*
X143507789Y-79733225D01*
X143420808Y-79594796D01*
X143305204Y-79479192D01*
X143250462Y-79444795D01*
X143166774Y-79392210D01*
X143012455Y-79338212D01*
X142850004Y-79319909D01*
X142849996Y-79319909D01*
X142687544Y-79338212D01*
X142533225Y-79392210D01*
X142394795Y-79479192D01*
X142279192Y-79594795D01*
X142192210Y-79733225D01*
X142138212Y-79887544D01*
X142119909Y-80049996D01*
X71470500Y-80049996D01*
X71470500Y-75899996D01*
X147119909Y-75899996D01*
X147119909Y-75900003D01*
X147138212Y-76062455D01*
X147192210Y-76216774D01*
X147192211Y-76216775D01*
X147279192Y-76355204D01*
X147394796Y-76470808D01*
X147533225Y-76557789D01*
X147687539Y-76611786D01*
X147687542Y-76611786D01*
X147687544Y-76611787D01*
X147849996Y-76630091D01*
X147850000Y-76630091D01*
X147850004Y-76630091D01*
X148012455Y-76611787D01*
X148012456Y-76611786D01*
X148012461Y-76611786D01*
X148166775Y-76557789D01*
X148305204Y-76470808D01*
X148420808Y-76355204D01*
X148507789Y-76216775D01*
X148561786Y-76062461D01*
X148561882Y-76061611D01*
X148580091Y-75900003D01*
X148580091Y-75899996D01*
X148561787Y-75737544D01*
X148561786Y-75737542D01*
X148561786Y-75737539D01*
X148507789Y-75583225D01*
X148420808Y-75444796D01*
X148305204Y-75329192D01*
X148238914Y-75287539D01*
X148166774Y-75242210D01*
X148012455Y-75188212D01*
X147850004Y-75169909D01*
X147849996Y-75169909D01*
X147687544Y-75188212D01*
X147533225Y-75242210D01*
X147394795Y-75329192D01*
X147279192Y-75444795D01*
X147192210Y-75583225D01*
X147138212Y-75737544D01*
X147119909Y-75899996D01*
X71470500Y-75899996D01*
X71470500Y-74799996D01*
X141219909Y-74799996D01*
X141219909Y-74800003D01*
X141238212Y-74962455D01*
X141292210Y-75116774D01*
X141325597Y-75169909D01*
X141379192Y-75255204D01*
X141494796Y-75370808D01*
X141633225Y-75457789D01*
X141787539Y-75511786D01*
X141787542Y-75511786D01*
X141787544Y-75511787D01*
X141949996Y-75530091D01*
X141950000Y-75530091D01*
X141950004Y-75530091D01*
X142112455Y-75511787D01*
X142112456Y-75511786D01*
X142112461Y-75511786D01*
X142266775Y-75457789D01*
X142405204Y-75370808D01*
X142520808Y-75255204D01*
X142607789Y-75116775D01*
X142648652Y-74999996D01*
X148819909Y-74999996D01*
X148819909Y-75000003D01*
X148838212Y-75162455D01*
X148892210Y-75316774D01*
X148926162Y-75370808D01*
X148979192Y-75455204D01*
X149094796Y-75570808D01*
X149233225Y-75657789D01*
X149387539Y-75711786D01*
X149387542Y-75711786D01*
X149387544Y-75711787D01*
X149549996Y-75730091D01*
X149550000Y-75730091D01*
X149550004Y-75730091D01*
X149712455Y-75711787D01*
X149712456Y-75711786D01*
X149712461Y-75711786D01*
X149866775Y-75657789D01*
X150005204Y-75570808D01*
X150120808Y-75455204D01*
X150207789Y-75316775D01*
X150261786Y-75162461D01*
X150261787Y-75162455D01*
X150280091Y-75000003D01*
X150280091Y-74999996D01*
X150261787Y-74837544D01*
X150261786Y-74837542D01*
X150261786Y-74837539D01*
X150207789Y-74683225D01*
X150120808Y-74544796D01*
X150005204Y-74429192D01*
X149866774Y-74342210D01*
X149712455Y-74288212D01*
X149550004Y-74269909D01*
X149549996Y-74269909D01*
X149387544Y-74288212D01*
X149233225Y-74342210D01*
X149094795Y-74429192D01*
X148979192Y-74544795D01*
X148892210Y-74683225D01*
X148838212Y-74837544D01*
X148819909Y-74999996D01*
X142648652Y-74999996D01*
X142661786Y-74962461D01*
X142667420Y-74912461D01*
X142680091Y-74800003D01*
X142680091Y-74799996D01*
X142661787Y-74637544D01*
X142661786Y-74637542D01*
X142661786Y-74637539D01*
X142607789Y-74483225D01*
X142520808Y-74344796D01*
X142405204Y-74229192D01*
X142312287Y-74170808D01*
X142266774Y-74142210D01*
X142112455Y-74088212D01*
X141950004Y-74069909D01*
X141949996Y-74069909D01*
X141787544Y-74088212D01*
X141633225Y-74142210D01*
X141494795Y-74229192D01*
X141379192Y-74344795D01*
X141292210Y-74483225D01*
X141238212Y-74637544D01*
X141219909Y-74799996D01*
X71470500Y-74799996D01*
X71470500Y-73349996D01*
X118769909Y-73349996D01*
X118769909Y-73350003D01*
X118788212Y-73512455D01*
X118842210Y-73666774D01*
X118842211Y-73666775D01*
X118929192Y-73805204D01*
X119044796Y-73920808D01*
X119183225Y-74007789D01*
X119337539Y-74061786D01*
X119337542Y-74061786D01*
X119337544Y-74061787D01*
X119499996Y-74080091D01*
X119500000Y-74080091D01*
X119500004Y-74080091D01*
X119662455Y-74061787D01*
X119662456Y-74061786D01*
X119662461Y-74061786D01*
X119816775Y-74007789D01*
X119955204Y-73920808D01*
X120070808Y-73805204D01*
X120157789Y-73666775D01*
X120181156Y-73599996D01*
X125319909Y-73599996D01*
X125319909Y-73600003D01*
X125338212Y-73762455D01*
X125392210Y-73916774D01*
X125392211Y-73916775D01*
X125479192Y-74055204D01*
X125594796Y-74170808D01*
X125733225Y-74257789D01*
X125887539Y-74311786D01*
X125887542Y-74311786D01*
X125887544Y-74311787D01*
X126049996Y-74330091D01*
X126050000Y-74330091D01*
X126050004Y-74330091D01*
X126212455Y-74311787D01*
X126212456Y-74311786D01*
X126212461Y-74311786D01*
X126366775Y-74257789D01*
X126505204Y-74170808D01*
X126620808Y-74055204D01*
X126624080Y-74049996D01*
X150519909Y-74049996D01*
X150519909Y-74050003D01*
X150538212Y-74212455D01*
X150592210Y-74366774D01*
X150592211Y-74366775D01*
X150679192Y-74505204D01*
X150794796Y-74620808D01*
X150933225Y-74707789D01*
X151087539Y-74761786D01*
X151087542Y-74761786D01*
X151087544Y-74761787D01*
X151249996Y-74780091D01*
X151250000Y-74780091D01*
X151250004Y-74780091D01*
X151412455Y-74761787D01*
X151412456Y-74761786D01*
X151412461Y-74761786D01*
X151566775Y-74707789D01*
X151705204Y-74620808D01*
X151820808Y-74505204D01*
X151907789Y-74366775D01*
X151961786Y-74212461D01*
X151965535Y-74179192D01*
X151980091Y-74050003D01*
X151980091Y-74049996D01*
X151961787Y-73887544D01*
X151961786Y-73887542D01*
X151961786Y-73887539D01*
X151907789Y-73733225D01*
X151820808Y-73594796D01*
X151705204Y-73479192D01*
X151638914Y-73437539D01*
X151566774Y-73392210D01*
X151412455Y-73338212D01*
X151250004Y-73319909D01*
X151249996Y-73319909D01*
X151087544Y-73338212D01*
X150933225Y-73392210D01*
X150794795Y-73479192D01*
X150679192Y-73594795D01*
X150592210Y-73733225D01*
X150538212Y-73887544D01*
X150519909Y-74049996D01*
X126624080Y-74049996D01*
X126707789Y-73916775D01*
X126761786Y-73762461D01*
X126765080Y-73733225D01*
X126780091Y-73600003D01*
X126780091Y-73599996D01*
X126761787Y-73437544D01*
X126761786Y-73437542D01*
X126761786Y-73437539D01*
X126707789Y-73283225D01*
X126655493Y-73199996D01*
X145969909Y-73199996D01*
X145969909Y-73200003D01*
X145988212Y-73362455D01*
X146042210Y-73516774D01*
X146042211Y-73516775D01*
X146129192Y-73655204D01*
X146244796Y-73770808D01*
X146383225Y-73857789D01*
X146537539Y-73911786D01*
X146537542Y-73911786D01*
X146537544Y-73911787D01*
X146699996Y-73930091D01*
X146700000Y-73930091D01*
X146700004Y-73930091D01*
X146862455Y-73911787D01*
X146862456Y-73911786D01*
X146862461Y-73911786D01*
X147016775Y-73857789D01*
X147155204Y-73770808D01*
X147270808Y-73655204D01*
X147357789Y-73516775D01*
X147411786Y-73362461D01*
X147413190Y-73350000D01*
X147430091Y-73200003D01*
X147430091Y-73199996D01*
X147411787Y-73037544D01*
X147411786Y-73037542D01*
X147411786Y-73037539D01*
X147357789Y-72883225D01*
X147270808Y-72744796D01*
X147155204Y-72629192D01*
X147140430Y-72619909D01*
X147016774Y-72542210D01*
X146862455Y-72488212D01*
X146700004Y-72469909D01*
X146699996Y-72469909D01*
X146537544Y-72488212D01*
X146383225Y-72542210D01*
X146244795Y-72629192D01*
X146129192Y-72744795D01*
X146042210Y-72883225D01*
X145988212Y-73037544D01*
X145969909Y-73199996D01*
X126655493Y-73199996D01*
X126620808Y-73144796D01*
X126505204Y-73029192D01*
X126366774Y-72942210D01*
X126212455Y-72888212D01*
X126050004Y-72869909D01*
X126049996Y-72869909D01*
X125887544Y-72888212D01*
X125733225Y-72942210D01*
X125594795Y-73029192D01*
X125479192Y-73144795D01*
X125392210Y-73283225D01*
X125338212Y-73437544D01*
X125319909Y-73599996D01*
X120181156Y-73599996D01*
X120211786Y-73512461D01*
X120230091Y-73350000D01*
X120222567Y-73283225D01*
X120211787Y-73187544D01*
X120211786Y-73187542D01*
X120211786Y-73187539D01*
X120157789Y-73033225D01*
X120070808Y-72894796D01*
X119955204Y-72779192D01*
X119900462Y-72744795D01*
X119816774Y-72692210D01*
X119662455Y-72638212D01*
X119500004Y-72619909D01*
X119499996Y-72619909D01*
X119337544Y-72638212D01*
X119183225Y-72692210D01*
X119044795Y-72779192D01*
X118929192Y-72894795D01*
X118842210Y-73033225D01*
X118788212Y-73187544D01*
X118769909Y-73349996D01*
X71470500Y-73349996D01*
X71470500Y-69247374D01*
X72658447Y-69247374D01*
X72658447Y-69420595D01*
X72682543Y-69572736D01*
X72685545Y-69591686D01*
X72739074Y-69756430D01*
X72817715Y-69910773D01*
X72919533Y-70050913D01*
X73042019Y-70173399D01*
X73182159Y-70275217D01*
X73336502Y-70353858D01*
X73501246Y-70407387D01*
X73672336Y-70434485D01*
X73672337Y-70434485D01*
X74445557Y-70434485D01*
X74445558Y-70434485D01*
X74616648Y-70407387D01*
X74781392Y-70353858D01*
X74935735Y-70275217D01*
X75075875Y-70173399D01*
X75198361Y-70050913D01*
X75300179Y-69910773D01*
X75378820Y-69756430D01*
X75432349Y-69591686D01*
X75459447Y-69420596D01*
X75459447Y-69247374D01*
X75453929Y-69212532D01*
X76762549Y-69212532D01*
X76762549Y-69419471D01*
X76802917Y-69622414D01*
X76802919Y-69622422D01*
X76882107Y-69813598D01*
X76997073Y-69985659D01*
X77143391Y-70131977D01*
X77143394Y-70131979D01*
X77315451Y-70246943D01*
X77506629Y-70326132D01*
X77709579Y-70366501D01*
X77709583Y-70366502D01*
X77709584Y-70366502D01*
X78916515Y-70366502D01*
X78916516Y-70366501D01*
X79119469Y-70326132D01*
X79310647Y-70246943D01*
X79482704Y-70131979D01*
X79629026Y-69985657D01*
X79743990Y-69813600D01*
X79823179Y-69622422D01*
X79863549Y-69419467D01*
X79863549Y-69212537D01*
X79823179Y-69009582D01*
X79819208Y-68999996D01*
X80469909Y-68999996D01*
X80469909Y-69000003D01*
X80488212Y-69162455D01*
X80542210Y-69316774D01*
X80606739Y-69419471D01*
X80629192Y-69455204D01*
X80744796Y-69570808D01*
X80883225Y-69657789D01*
X81037539Y-69711786D01*
X81037542Y-69711786D01*
X81037544Y-69711787D01*
X81199996Y-69730091D01*
X81200000Y-69730091D01*
X81200004Y-69730091D01*
X81362455Y-69711787D01*
X81362456Y-69711786D01*
X81362461Y-69711786D01*
X81516775Y-69657789D01*
X81655204Y-69570808D01*
X81770808Y-69455204D01*
X81857789Y-69316775D01*
X81911786Y-69162461D01*
X81912604Y-69155203D01*
X81930091Y-69000003D01*
X81930091Y-68999996D01*
X81911787Y-68837544D01*
X81911786Y-68837542D01*
X81911786Y-68837539D01*
X81857789Y-68683225D01*
X81770808Y-68544796D01*
X81655204Y-68429192D01*
X81608750Y-68400003D01*
X81516774Y-68342210D01*
X81362455Y-68288212D01*
X81200004Y-68269909D01*
X81199996Y-68269909D01*
X81037544Y-68288212D01*
X80883225Y-68342210D01*
X80744795Y-68429192D01*
X80629192Y-68544795D01*
X80542210Y-68683225D01*
X80488212Y-68837544D01*
X80469909Y-68999996D01*
X79819208Y-68999996D01*
X79743990Y-68818404D01*
X79629026Y-68646347D01*
X79629024Y-68646344D01*
X79482706Y-68500026D01*
X79322159Y-68392753D01*
X79310647Y-68385061D01*
X79310642Y-68385059D01*
X79119469Y-68305872D01*
X79119461Y-68305870D01*
X78916518Y-68265502D01*
X78916514Y-68265502D01*
X78385975Y-68265502D01*
X78333168Y-68249996D01*
X83469909Y-68249996D01*
X83469909Y-68250003D01*
X83488212Y-68412455D01*
X83542210Y-68566774D01*
X83597775Y-68655204D01*
X83629192Y-68705204D01*
X83744796Y-68820808D01*
X83883225Y-68907789D01*
X84037539Y-68961786D01*
X84037542Y-68961786D01*
X84037544Y-68961787D01*
X84199996Y-68980091D01*
X84200000Y-68980091D01*
X84200004Y-68980091D01*
X84362455Y-68961787D01*
X84362456Y-68961786D01*
X84362461Y-68961786D01*
X84516775Y-68907789D01*
X84655204Y-68820808D01*
X84770808Y-68705204D01*
X84857789Y-68566775D01*
X84911786Y-68412461D01*
X84913190Y-68400000D01*
X84930091Y-68250003D01*
X84930091Y-68249996D01*
X84924457Y-68199996D01*
X90069909Y-68199996D01*
X90069909Y-68200003D01*
X90088212Y-68362455D01*
X90142210Y-68516774D01*
X90223625Y-68646344D01*
X90229192Y-68655204D01*
X90344796Y-68770808D01*
X90483225Y-68857789D01*
X90637539Y-68911786D01*
X90637542Y-68911786D01*
X90637544Y-68911787D01*
X90799996Y-68930091D01*
X90800000Y-68930091D01*
X90800004Y-68930091D01*
X90962455Y-68911787D01*
X90962456Y-68911786D01*
X90962461Y-68911786D01*
X91116775Y-68857789D01*
X91255204Y-68770808D01*
X91370808Y-68655204D01*
X91426417Y-68566702D01*
X91478752Y-68520412D01*
X91547806Y-68509764D01*
X91611654Y-68538139D01*
X91648452Y-68591719D01*
X91657318Y-68617057D01*
X91692210Y-68716774D01*
X91757579Y-68820807D01*
X91779192Y-68855204D01*
X91894796Y-68970808D01*
X92033225Y-69057789D01*
X92187539Y-69111786D01*
X92187542Y-69111786D01*
X92187544Y-69111787D01*
X92349996Y-69130091D01*
X92350000Y-69130091D01*
X92350004Y-69130091D01*
X92512455Y-69111787D01*
X92512456Y-69111786D01*
X92512461Y-69111786D01*
X92666775Y-69057789D01*
X92805204Y-68970808D01*
X92876016Y-68899996D01*
X95569909Y-68899996D01*
X95569909Y-68900003D01*
X95588212Y-69062455D01*
X95642210Y-69216774D01*
X95676162Y-69270808D01*
X95729192Y-69355204D01*
X95844796Y-69470808D01*
X95983225Y-69557789D01*
X96137539Y-69611786D01*
X96137542Y-69611786D01*
X96137544Y-69611787D01*
X96299996Y-69630091D01*
X96300000Y-69630091D01*
X96300004Y-69630091D01*
X96462455Y-69611787D01*
X96462456Y-69611786D01*
X96462461Y-69611786D01*
X96616775Y-69557789D01*
X96755204Y-69470808D01*
X96870808Y-69355204D01*
X96957789Y-69216775D01*
X97011786Y-69062461D01*
X97011787Y-69062455D01*
X97030091Y-68900003D01*
X97030091Y-68899996D01*
X97011787Y-68737544D01*
X97011786Y-68737542D01*
X97011786Y-68737539D01*
X96957789Y-68583225D01*
X96870808Y-68444796D01*
X96755204Y-68329192D01*
X96731206Y-68314113D01*
X96708739Y-68299996D01*
X139169909Y-68299996D01*
X139169909Y-68300003D01*
X139188212Y-68462455D01*
X139242210Y-68616774D01*
X139283964Y-68683225D01*
X139329192Y-68755204D01*
X139444796Y-68870808D01*
X139583225Y-68957789D01*
X139737539Y-69011786D01*
X139737542Y-69011786D01*
X139737544Y-69011787D01*
X139841281Y-69023475D01*
X139905695Y-69050541D01*
X139932391Y-69080722D01*
X139979192Y-69155204D01*
X140094796Y-69270808D01*
X140233225Y-69357789D01*
X140387539Y-69411786D01*
X140387543Y-69411786D01*
X140387545Y-69411787D01*
X140444808Y-69418239D01*
X140509223Y-69445305D01*
X140548778Y-69502899D01*
X140550917Y-69572736D01*
X140514959Y-69632643D01*
X140496900Y-69646452D01*
X140444794Y-69679193D01*
X140329192Y-69794795D01*
X140242210Y-69933225D01*
X140188212Y-70087544D01*
X140169909Y-70249996D01*
X140169909Y-70250003D01*
X140188212Y-70412455D01*
X140242210Y-70566774D01*
X140329192Y-70705204D01*
X140444795Y-70820807D01*
X140444798Y-70820809D01*
X140523094Y-70870007D01*
X140569385Y-70922342D01*
X140580032Y-70991395D01*
X140551657Y-71055243D01*
X140523094Y-71079993D01*
X140444798Y-71129190D01*
X140444795Y-71129192D01*
X140329192Y-71244795D01*
X140242210Y-71383225D01*
X140188212Y-71537544D01*
X140169909Y-71699996D01*
X140169909Y-71700003D01*
X140188212Y-71862455D01*
X140242210Y-72016774D01*
X140242211Y-72016775D01*
X140329192Y-72155204D01*
X140444796Y-72270808D01*
X140583225Y-72357789D01*
X140737539Y-72411786D01*
X140737542Y-72411786D01*
X140737544Y-72411787D01*
X140899996Y-72430091D01*
X140900000Y-72430091D01*
X140900004Y-72430091D01*
X141062455Y-72411787D01*
X141062456Y-72411786D01*
X141062461Y-72411786D01*
X141216775Y-72357789D01*
X141355204Y-72270808D01*
X141470808Y-72155204D01*
X141557789Y-72016775D01*
X141611786Y-71862461D01*
X141630091Y-71700000D01*
X141622214Y-71630091D01*
X141611787Y-71537544D01*
X141611786Y-71537542D01*
X141611786Y-71537539D01*
X141557789Y-71383225D01*
X141470808Y-71244796D01*
X141355204Y-71129192D01*
X141276905Y-71079993D01*
X141230615Y-71027659D01*
X141219967Y-70958605D01*
X141248342Y-70894757D01*
X141276906Y-70870006D01*
X141355204Y-70820808D01*
X141470808Y-70705204D01*
X141557789Y-70566775D01*
X141598652Y-70449996D01*
X143519909Y-70449996D01*
X143519909Y-70450003D01*
X143538212Y-70612455D01*
X143592210Y-70766774D01*
X143657076Y-70870007D01*
X143679192Y-70905204D01*
X143794796Y-71020808D01*
X143933225Y-71107789D01*
X144087539Y-71161786D01*
X144087542Y-71161786D01*
X144087544Y-71161787D01*
X144249996Y-71180091D01*
X144250000Y-71180091D01*
X144250004Y-71180091D01*
X144412455Y-71161787D01*
X144412456Y-71161786D01*
X144412461Y-71161786D01*
X144566775Y-71107789D01*
X144705204Y-71020808D01*
X144820808Y-70905204D01*
X144824080Y-70899996D01*
X152769909Y-70899996D01*
X152769909Y-70900003D01*
X152788212Y-71062455D01*
X152842210Y-71216774D01*
X152842211Y-71216775D01*
X152929192Y-71355204D01*
X153044796Y-71470808D01*
X153183225Y-71557789D01*
X153337539Y-71611786D01*
X153337542Y-71611786D01*
X153337544Y-71611787D01*
X153499996Y-71630091D01*
X153500000Y-71630091D01*
X153500004Y-71630091D01*
X153662455Y-71611787D01*
X153662456Y-71611786D01*
X153662461Y-71611786D01*
X153816775Y-71557789D01*
X153955204Y-71470808D01*
X154070808Y-71355204D01*
X154157789Y-71216775D01*
X154211786Y-71062461D01*
X154211787Y-71062455D01*
X154230091Y-70900003D01*
X154230091Y-70899996D01*
X154211787Y-70737544D01*
X154211786Y-70737542D01*
X154211786Y-70737539D01*
X154157789Y-70583225D01*
X154070808Y-70444796D01*
X153955204Y-70329192D01*
X153829176Y-70250003D01*
X153816774Y-70242210D01*
X153662455Y-70188212D01*
X153500004Y-70169909D01*
X153499996Y-70169909D01*
X153337544Y-70188212D01*
X153183225Y-70242210D01*
X153044795Y-70329192D01*
X152929192Y-70444795D01*
X152842210Y-70583225D01*
X152788212Y-70737544D01*
X152769909Y-70899996D01*
X144824080Y-70899996D01*
X144907789Y-70766775D01*
X144961786Y-70612461D01*
X144975861Y-70487544D01*
X144980091Y-70450003D01*
X144980091Y-70449996D01*
X144961787Y-70287544D01*
X144961786Y-70287542D01*
X144961786Y-70287539D01*
X144907789Y-70133225D01*
X144820808Y-69994796D01*
X144705204Y-69879192D01*
X144691372Y-69870501D01*
X144566774Y-69792210D01*
X144412455Y-69738212D01*
X144250004Y-69719909D01*
X144249996Y-69719909D01*
X144087544Y-69738212D01*
X143933225Y-69792210D01*
X143794795Y-69879192D01*
X143679192Y-69994795D01*
X143592210Y-70133225D01*
X143538212Y-70287544D01*
X143519909Y-70449996D01*
X141598652Y-70449996D01*
X141611786Y-70412461D01*
X141612358Y-70407387D01*
X141630091Y-70250003D01*
X141630091Y-70249996D01*
X141611787Y-70087544D01*
X141611786Y-70087542D01*
X141611786Y-70087539D01*
X141557789Y-69933225D01*
X141470808Y-69794796D01*
X141355204Y-69679192D01*
X141216774Y-69592210D01*
X141062455Y-69538212D01*
X141005189Y-69531760D01*
X140940775Y-69504693D01*
X140901220Y-69447098D01*
X140899083Y-69377261D01*
X140935042Y-69317355D01*
X140953096Y-69303549D01*
X141005204Y-69270808D01*
X141120808Y-69155204D01*
X141207789Y-69016775D01*
X141261786Y-68862461D01*
X141261787Y-68862455D01*
X141280091Y-68700003D01*
X141280091Y-68699996D01*
X141261787Y-68537544D01*
X141261786Y-68537542D01*
X141261786Y-68537539D01*
X141207789Y-68383225D01*
X141120808Y-68244796D01*
X141005204Y-68129192D01*
X140996710Y-68123855D01*
X140866774Y-68042210D01*
X140712455Y-67988212D01*
X140608717Y-67976524D01*
X140544303Y-67949457D01*
X140517607Y-67919276D01*
X140470808Y-67844796D01*
X140355204Y-67729192D01*
X140216774Y-67642210D01*
X140062455Y-67588212D01*
X139900004Y-67569909D01*
X139899996Y-67569909D01*
X139737544Y-67588212D01*
X139583225Y-67642210D01*
X139444795Y-67729192D01*
X139329192Y-67844795D01*
X139242210Y-67983225D01*
X139188212Y-68137544D01*
X139169909Y-68299996D01*
X96708739Y-68299996D01*
X96616774Y-68242210D01*
X96462455Y-68188212D01*
X96300004Y-68169909D01*
X96299996Y-68169909D01*
X96137544Y-68188212D01*
X95983225Y-68242210D01*
X95844795Y-68329192D01*
X95729192Y-68444795D01*
X95642210Y-68583225D01*
X95588212Y-68737544D01*
X95569909Y-68899996D01*
X92876016Y-68899996D01*
X92920808Y-68855204D01*
X93007789Y-68716775D01*
X93061786Y-68562461D01*
X93061787Y-68562455D01*
X93080091Y-68400003D01*
X93080091Y-68399996D01*
X93061787Y-68237544D01*
X93061786Y-68237542D01*
X93061786Y-68237539D01*
X93007789Y-68083225D01*
X92920808Y-67944796D01*
X92805204Y-67829192D01*
X92750462Y-67794795D01*
X92666774Y-67742210D01*
X92512455Y-67688212D01*
X92350004Y-67669909D01*
X92349996Y-67669909D01*
X92187544Y-67688212D01*
X92033225Y-67742210D01*
X91894795Y-67829192D01*
X91779193Y-67944794D01*
X91723581Y-68033298D01*
X91671246Y-68079588D01*
X91602192Y-68090235D01*
X91538344Y-68061859D01*
X91501548Y-68008281D01*
X91457789Y-67883225D01*
X91370808Y-67744796D01*
X91255204Y-67629192D01*
X91116774Y-67542210D01*
X90962455Y-67488212D01*
X90800004Y-67469909D01*
X90799996Y-67469909D01*
X90637544Y-67488212D01*
X90483225Y-67542210D01*
X90344795Y-67629192D01*
X90229192Y-67744795D01*
X90142210Y-67883225D01*
X90088212Y-68037544D01*
X90069909Y-68199996D01*
X84924457Y-68199996D01*
X84911787Y-68087544D01*
X84911786Y-68087542D01*
X84911786Y-68087539D01*
X84857789Y-67933225D01*
X84770808Y-67794796D01*
X84655204Y-67679192D01*
X84640430Y-67669909D01*
X84516774Y-67592210D01*
X84362455Y-67538212D01*
X84200004Y-67519909D01*
X84199996Y-67519909D01*
X84037544Y-67538212D01*
X83883225Y-67592210D01*
X83744795Y-67679192D01*
X83629192Y-67794795D01*
X83542210Y-67933225D01*
X83488212Y-68087544D01*
X83469909Y-68249996D01*
X78333168Y-68249996D01*
X78318936Y-68245817D01*
X78273181Y-68193013D01*
X78263237Y-68123855D01*
X78278589Y-68079500D01*
X78281210Y-68074961D01*
X78315455Y-67947157D01*
X78315455Y-67814845D01*
X78281210Y-67687041D01*
X78226460Y-67592210D01*
X78215056Y-67572458D01*
X78215052Y-67572453D01*
X78121495Y-67478896D01*
X78121490Y-67478892D01*
X78006910Y-67412740D01*
X78006909Y-67412739D01*
X78006908Y-67412739D01*
X77879104Y-67378494D01*
X77746792Y-67378494D01*
X77618988Y-67412739D01*
X77618986Y-67412740D01*
X77618985Y-67412740D01*
X77504405Y-67478892D01*
X77504400Y-67478896D01*
X77410843Y-67572453D01*
X77410839Y-67572458D01*
X77344687Y-67687038D01*
X77344687Y-67687039D01*
X77344686Y-67687041D01*
X77310441Y-67814845D01*
X77310441Y-67947157D01*
X77344686Y-68074961D01*
X77344687Y-68074962D01*
X77344687Y-68074963D01*
X77412829Y-68192989D01*
X77429302Y-68260890D01*
X77406449Y-68326916D01*
X77352897Y-68369549D01*
X77315454Y-68385059D01*
X77143391Y-68500026D01*
X76997073Y-68646344D01*
X76882107Y-68818405D01*
X76802919Y-69009581D01*
X76802917Y-69009589D01*
X76762549Y-69212532D01*
X75453929Y-69212532D01*
X75432349Y-69076284D01*
X75378820Y-68911540D01*
X75300179Y-68757197D01*
X75198361Y-68617057D01*
X75075875Y-68494571D01*
X74935735Y-68392753D01*
X74810988Y-68329192D01*
X74781394Y-68314113D01*
X74781393Y-68314112D01*
X74781392Y-68314112D01*
X74616648Y-68260583D01*
X74616646Y-68260582D01*
X74616645Y-68260582D01*
X74485218Y-68239766D01*
X74445558Y-68233485D01*
X73672336Y-68233485D01*
X73632675Y-68239766D01*
X73501249Y-68260582D01*
X73336499Y-68314113D01*
X73182158Y-68392753D01*
X73110528Y-68444796D01*
X73042019Y-68494571D01*
X73042017Y-68494573D01*
X73042016Y-68494573D01*
X72919535Y-68617054D01*
X72919535Y-68617055D01*
X72919533Y-68617057D01*
X72875806Y-68677241D01*
X72817715Y-68757196D01*
X72739075Y-68911537D01*
X72685544Y-69076287D01*
X72658447Y-69247374D01*
X71470500Y-69247374D01*
X71470500Y-64899996D01*
X79469909Y-64899996D01*
X79469909Y-64900003D01*
X79488212Y-65062455D01*
X79542210Y-65216774D01*
X79625920Y-65349996D01*
X79629192Y-65355204D01*
X79744796Y-65470808D01*
X79883225Y-65557789D01*
X79949381Y-65580938D01*
X80006157Y-65621660D01*
X80031905Y-65686612D01*
X80031647Y-65711863D01*
X80019909Y-65816042D01*
X80019909Y-65816049D01*
X80038212Y-65978501D01*
X80092210Y-66132820D01*
X80092211Y-66132821D01*
X80179192Y-66271250D01*
X80294796Y-66386854D01*
X80433225Y-66473835D01*
X80587539Y-66527832D01*
X80587542Y-66527832D01*
X80587544Y-66527833D01*
X80749996Y-66546137D01*
X80750000Y-66546137D01*
X80750004Y-66546137D01*
X80912455Y-66527833D01*
X80912456Y-66527832D01*
X80912461Y-66527832D01*
X81066775Y-66473835D01*
X81205204Y-66386854D01*
X81320808Y-66271250D01*
X81407789Y-66132821D01*
X81461786Y-65978507D01*
X81468287Y-65920808D01*
X81480091Y-65816049D01*
X81480091Y-65816042D01*
X81461787Y-65653590D01*
X81461786Y-65653588D01*
X81461786Y-65653585D01*
X81407789Y-65499271D01*
X81320808Y-65360842D01*
X81309962Y-65349996D01*
X93869909Y-65349996D01*
X93869909Y-65350003D01*
X93888212Y-65512455D01*
X93942210Y-65666774D01*
X93970542Y-65711863D01*
X94029192Y-65805204D01*
X94144796Y-65920808D01*
X94283225Y-66007789D01*
X94437539Y-66061786D01*
X94437542Y-66061786D01*
X94437544Y-66061787D01*
X94599997Y-66080091D01*
X94606400Y-66080091D01*
X94673439Y-66099776D01*
X94719194Y-66152580D01*
X94723441Y-66163136D01*
X94742209Y-66216771D01*
X94742210Y-66216775D01*
X94801911Y-66311787D01*
X94829192Y-66355204D01*
X94944796Y-66470808D01*
X95083225Y-66557789D01*
X95237539Y-66611786D01*
X95237542Y-66611786D01*
X95237544Y-66611787D01*
X95399996Y-66630091D01*
X95400000Y-66630091D01*
X95400004Y-66630091D01*
X95562455Y-66611787D01*
X95562456Y-66611786D01*
X95562461Y-66611786D01*
X95716775Y-66557789D01*
X95855204Y-66470808D01*
X95970808Y-66355204D01*
X96057789Y-66216775D01*
X96111786Y-66062461D01*
X96117946Y-66007789D01*
X96130091Y-65900003D01*
X96130091Y-65899996D01*
X96111787Y-65737544D01*
X96111786Y-65737542D01*
X96111786Y-65737539D01*
X96057789Y-65583225D01*
X95970808Y-65444796D01*
X95855204Y-65329192D01*
X95730551Y-65250867D01*
X95716774Y-65242210D01*
X95562455Y-65188212D01*
X95400004Y-65169909D01*
X95393599Y-65169909D01*
X95326560Y-65150224D01*
X95280805Y-65097420D01*
X95276557Y-65086862D01*
X95257789Y-65033225D01*
X95257789Y-65033224D01*
X95200600Y-64942210D01*
X95170808Y-64894796D01*
X95055204Y-64779192D01*
X94988914Y-64737539D01*
X94916774Y-64692210D01*
X94796132Y-64649996D01*
X145169909Y-64649996D01*
X145169909Y-64650003D01*
X145188212Y-64812455D01*
X145242210Y-64966774D01*
X145329192Y-65105204D01*
X145343840Y-65119852D01*
X145377325Y-65181175D01*
X145372341Y-65250867D01*
X145361153Y-65273505D01*
X145292210Y-65383225D01*
X145238212Y-65537544D01*
X145219909Y-65699996D01*
X145219909Y-65700003D01*
X145238212Y-65862455D01*
X145292210Y-66016774D01*
X145325566Y-66069859D01*
X145379192Y-66155204D01*
X145494796Y-66270808D01*
X145633225Y-66357789D01*
X145787539Y-66411786D01*
X145787542Y-66411786D01*
X145787544Y-66411787D01*
X145949996Y-66430091D01*
X145950000Y-66430091D01*
X145950004Y-66430091D01*
X146112455Y-66411787D01*
X146112456Y-66411786D01*
X146112461Y-66411786D01*
X146266775Y-66357789D01*
X146405204Y-66270808D01*
X146520808Y-66155204D01*
X146607789Y-66016775D01*
X146661786Y-65862461D01*
X146661787Y-65862455D01*
X146680091Y-65700003D01*
X146680091Y-65699996D01*
X146668824Y-65599996D01*
X152719909Y-65599996D01*
X152719909Y-65600003D01*
X152738212Y-65762455D01*
X152792210Y-65916774D01*
X152792211Y-65916775D01*
X152879192Y-66055204D01*
X152994796Y-66170808D01*
X153133225Y-66257789D01*
X153287539Y-66311786D01*
X153287542Y-66311786D01*
X153287544Y-66311787D01*
X153449996Y-66330091D01*
X153450000Y-66330091D01*
X153450004Y-66330091D01*
X153612455Y-66311787D01*
X153612456Y-66311786D01*
X153612461Y-66311786D01*
X153766775Y-66257789D01*
X153905204Y-66170808D01*
X154020808Y-66055204D01*
X154107789Y-65916775D01*
X154161786Y-65762461D01*
X154161787Y-65762455D01*
X154180091Y-65600003D01*
X154180091Y-65599996D01*
X154161787Y-65437544D01*
X154161786Y-65437542D01*
X154161786Y-65437539D01*
X154107789Y-65283225D01*
X154020808Y-65144796D01*
X153905204Y-65029192D01*
X153865403Y-65004183D01*
X153766774Y-64942210D01*
X153612455Y-64888212D01*
X153450004Y-64869909D01*
X153449996Y-64869909D01*
X153287544Y-64888212D01*
X153133225Y-64942210D01*
X152994795Y-65029192D01*
X152879192Y-65144795D01*
X152792210Y-65283225D01*
X152738212Y-65437544D01*
X152719909Y-65599996D01*
X146668824Y-65599996D01*
X146661787Y-65537544D01*
X146661786Y-65537542D01*
X146661786Y-65537539D01*
X146607789Y-65383225D01*
X146520808Y-65244796D01*
X146506159Y-65230147D01*
X146472674Y-65168824D01*
X146477658Y-65099132D01*
X146488841Y-65076503D01*
X146557789Y-64966775D01*
X146611786Y-64812461D01*
X146630091Y-64650000D01*
X146622567Y-64583225D01*
X146611787Y-64487544D01*
X146611786Y-64487542D01*
X146611786Y-64487539D01*
X146557789Y-64333225D01*
X146470808Y-64194796D01*
X146355204Y-64079192D01*
X146262287Y-64020808D01*
X146216774Y-63992210D01*
X146062455Y-63938212D01*
X145900004Y-63919909D01*
X145899996Y-63919909D01*
X145737544Y-63938212D01*
X145583225Y-63992210D01*
X145444795Y-64079192D01*
X145329192Y-64194795D01*
X145242210Y-64333225D01*
X145188212Y-64487544D01*
X145169909Y-64649996D01*
X94796132Y-64649996D01*
X94762455Y-64638212D01*
X94600004Y-64619909D01*
X94599996Y-64619909D01*
X94437544Y-64638212D01*
X94283225Y-64692210D01*
X94144795Y-64779192D01*
X94029192Y-64894795D01*
X93942210Y-65033225D01*
X93888212Y-65187544D01*
X93869909Y-65349996D01*
X81309962Y-65349996D01*
X81205204Y-65245238D01*
X81159904Y-65216774D01*
X81066774Y-65158256D01*
X81000619Y-65135108D01*
X80943843Y-65094386D01*
X80918095Y-65029434D01*
X80918353Y-65004183D01*
X80930091Y-64900003D01*
X80930091Y-64899996D01*
X80911787Y-64737544D01*
X80911786Y-64737542D01*
X80911786Y-64737539D01*
X80857789Y-64583225D01*
X80770808Y-64444796D01*
X80655204Y-64329192D01*
X80516774Y-64242210D01*
X80362455Y-64188212D01*
X80200004Y-64169909D01*
X80199996Y-64169909D01*
X80037544Y-64188212D01*
X79883225Y-64242210D01*
X79744795Y-64329192D01*
X79629192Y-64444795D01*
X79542210Y-64583225D01*
X79488212Y-64737544D01*
X79469909Y-64899996D01*
X71470500Y-64899996D01*
X71470500Y-63199996D01*
X82819909Y-63199996D01*
X82819909Y-63200003D01*
X82838212Y-63362455D01*
X82892210Y-63516774D01*
X82892211Y-63516775D01*
X82979192Y-63655204D01*
X83094796Y-63770808D01*
X83233225Y-63857789D01*
X83387539Y-63911786D01*
X83387542Y-63911786D01*
X83387544Y-63911787D01*
X83549996Y-63930091D01*
X83550000Y-63930091D01*
X83550004Y-63930091D01*
X83712455Y-63911787D01*
X83712456Y-63911786D01*
X83712461Y-63911786D01*
X83866775Y-63857789D01*
X84005204Y-63770808D01*
X84120808Y-63655204D01*
X84207789Y-63516775D01*
X84231156Y-63449996D01*
X93319909Y-63449996D01*
X93319909Y-63450003D01*
X93338212Y-63612455D01*
X93392210Y-63766774D01*
X93392211Y-63766775D01*
X93479192Y-63905204D01*
X93594796Y-64020808D01*
X93733225Y-64107789D01*
X93887539Y-64161786D01*
X93887542Y-64161786D01*
X93887544Y-64161787D01*
X94049996Y-64180091D01*
X94050000Y-64180091D01*
X94050004Y-64180091D01*
X94212455Y-64161787D01*
X94212456Y-64161786D01*
X94212461Y-64161786D01*
X94366775Y-64107789D01*
X94505204Y-64020808D01*
X94620808Y-63905204D01*
X94707789Y-63766775D01*
X94761786Y-63612461D01*
X94761787Y-63612455D01*
X94780091Y-63450003D01*
X94780091Y-63449996D01*
X94761787Y-63287544D01*
X94761786Y-63287542D01*
X94761786Y-63287539D01*
X94731153Y-63199996D01*
X95069909Y-63199996D01*
X95069909Y-63200003D01*
X95088212Y-63362455D01*
X95142210Y-63516774D01*
X95142211Y-63516775D01*
X95229192Y-63655204D01*
X95344796Y-63770808D01*
X95483225Y-63857789D01*
X95637539Y-63911786D01*
X95637542Y-63911786D01*
X95637544Y-63911787D01*
X95799996Y-63930091D01*
X95800000Y-63930091D01*
X95800004Y-63930091D01*
X95962455Y-63911787D01*
X95962456Y-63911786D01*
X95962461Y-63911786D01*
X96116775Y-63857789D01*
X96255204Y-63770808D01*
X96370808Y-63655204D01*
X96457789Y-63516775D01*
X96511786Y-63362461D01*
X96530091Y-63200000D01*
X96522567Y-63133225D01*
X96511787Y-63037544D01*
X96511786Y-63037542D01*
X96511786Y-63037539D01*
X96457789Y-62883225D01*
X96370808Y-62744796D01*
X96255204Y-62629192D01*
X96159771Y-62569227D01*
X96116774Y-62542210D01*
X95962455Y-62488212D01*
X95800004Y-62469909D01*
X95799996Y-62469909D01*
X95637544Y-62488212D01*
X95483225Y-62542210D01*
X95344795Y-62629192D01*
X95229192Y-62744795D01*
X95142210Y-62883225D01*
X95088212Y-63037544D01*
X95069909Y-63199996D01*
X94731153Y-63199996D01*
X94707789Y-63133225D01*
X94620808Y-62994796D01*
X94505204Y-62879192D01*
X94366774Y-62792210D01*
X94212455Y-62738212D01*
X94050004Y-62719909D01*
X94049996Y-62719909D01*
X93887544Y-62738212D01*
X93733225Y-62792210D01*
X93594795Y-62879192D01*
X93479192Y-62994795D01*
X93392210Y-63133225D01*
X93338212Y-63287544D01*
X93319909Y-63449996D01*
X84231156Y-63449996D01*
X84261786Y-63362461D01*
X84280091Y-63200000D01*
X84272567Y-63133225D01*
X84261787Y-63037544D01*
X84261786Y-63037542D01*
X84261786Y-63037539D01*
X84207789Y-62883225D01*
X84120808Y-62744796D01*
X84005204Y-62629192D01*
X83909771Y-62569227D01*
X83866774Y-62542210D01*
X83712455Y-62488212D01*
X83550004Y-62469909D01*
X83549996Y-62469909D01*
X83387544Y-62488212D01*
X83233225Y-62542210D01*
X83094795Y-62629192D01*
X82979192Y-62744795D01*
X82892210Y-62883225D01*
X82838212Y-63037544D01*
X82819909Y-63199996D01*
X71470500Y-63199996D01*
X71470500Y-60579378D01*
X72712448Y-60579378D01*
X72712448Y-60752600D01*
X72739546Y-60923690D01*
X72793075Y-61088434D01*
X72871716Y-61242777D01*
X72973534Y-61382917D01*
X73096020Y-61505403D01*
X73236160Y-61607221D01*
X73390503Y-61685862D01*
X73555247Y-61739391D01*
X73726337Y-61766489D01*
X73726338Y-61766489D01*
X74499558Y-61766489D01*
X74499559Y-61766489D01*
X74670649Y-61739391D01*
X74835393Y-61685862D01*
X74989736Y-61607221D01*
X75129876Y-61505403D01*
X75252362Y-61382917D01*
X75354180Y-61242777D01*
X75432821Y-61088434D01*
X75486350Y-60923690D01*
X75513448Y-60752600D01*
X75513448Y-60579378D01*
X75510778Y-60562519D01*
X76762549Y-60562519D01*
X76762549Y-60769458D01*
X76802917Y-60972401D01*
X76802919Y-60972409D01*
X76869087Y-61132153D01*
X76882108Y-61163587D01*
X76906436Y-61199996D01*
X76997073Y-61335646D01*
X77143391Y-61481964D01*
X77143394Y-61481966D01*
X77315451Y-61596930D01*
X77340293Y-61607220D01*
X77352883Y-61612435D01*
X77407286Y-61656276D01*
X77429351Y-61722570D01*
X77412818Y-61788995D01*
X77344686Y-61907004D01*
X77338500Y-61930091D01*
X77310441Y-62034809D01*
X77310441Y-62167121D01*
X77344686Y-62294925D01*
X77344687Y-62294926D01*
X77344687Y-62294927D01*
X77410839Y-62409507D01*
X77410841Y-62409510D01*
X77410842Y-62409511D01*
X77504402Y-62503071D01*
X77618988Y-62569227D01*
X77746792Y-62603472D01*
X77746794Y-62603472D01*
X77879101Y-62603472D01*
X77879104Y-62603472D01*
X78006908Y-62569227D01*
X78121494Y-62503071D01*
X78215054Y-62409511D01*
X78281210Y-62294925D01*
X78315455Y-62167121D01*
X78315455Y-62034809D01*
X78281210Y-61907005D01*
X78278602Y-61902487D01*
X78262131Y-61834587D01*
X78284984Y-61768560D01*
X78339906Y-61725371D01*
X78385990Y-61716489D01*
X78916515Y-61716489D01*
X78916516Y-61716488D01*
X79119469Y-61676119D01*
X79310647Y-61596930D01*
X79482704Y-61481966D01*
X79629026Y-61335644D01*
X79729238Y-61185663D01*
X79782847Y-61140862D01*
X79852172Y-61132153D01*
X79915199Y-61162307D01*
X79937331Y-61188584D01*
X79979190Y-61255202D01*
X79979192Y-61255204D01*
X80094796Y-61370808D01*
X80233225Y-61457789D01*
X80387539Y-61511786D01*
X80387542Y-61511786D01*
X80387544Y-61511787D01*
X80549996Y-61530091D01*
X80550000Y-61530091D01*
X80550004Y-61530091D01*
X80712455Y-61511787D01*
X80712456Y-61511786D01*
X80712461Y-61511786D01*
X80866775Y-61457789D01*
X81005204Y-61370808D01*
X81120808Y-61255204D01*
X81155498Y-61199996D01*
X89319909Y-61199996D01*
X89319909Y-61200003D01*
X89338212Y-61362455D01*
X89392210Y-61516774D01*
X89449042Y-61607221D01*
X89479192Y-61655204D01*
X89594796Y-61770808D01*
X89733225Y-61857789D01*
X89887539Y-61911786D01*
X89887542Y-61911786D01*
X89887544Y-61911787D01*
X90049996Y-61930091D01*
X90050000Y-61930091D01*
X90050004Y-61930091D01*
X90212455Y-61911787D01*
X90212456Y-61911786D01*
X90212461Y-61911786D01*
X90366775Y-61857789D01*
X90505204Y-61770808D01*
X90620808Y-61655204D01*
X90707789Y-61516775D01*
X90761786Y-61362461D01*
X90761787Y-61362455D01*
X90780091Y-61200003D01*
X90780091Y-61199996D01*
X90761787Y-61037544D01*
X90761786Y-61037542D01*
X90761786Y-61037539D01*
X90707789Y-60883225D01*
X90620808Y-60744796D01*
X90505204Y-60629192D01*
X90425926Y-60579378D01*
X90366774Y-60542210D01*
X90246132Y-60499996D01*
X92319909Y-60499996D01*
X92319909Y-60500003D01*
X92338212Y-60662455D01*
X92392210Y-60816774D01*
X92392211Y-60816775D01*
X92479192Y-60955204D01*
X92594796Y-61070808D01*
X92733225Y-61157789D01*
X92887539Y-61211786D01*
X92887542Y-61211786D01*
X92887544Y-61211787D01*
X93049996Y-61230091D01*
X93050000Y-61230091D01*
X93050004Y-61230091D01*
X93212455Y-61211787D01*
X93212456Y-61211786D01*
X93212461Y-61211786D01*
X93366775Y-61157789D01*
X93505204Y-61070808D01*
X93620808Y-60955204D01*
X93707789Y-60816775D01*
X93761786Y-60662461D01*
X93761787Y-60662455D01*
X93780091Y-60500003D01*
X93780091Y-60499996D01*
X93761787Y-60337544D01*
X93761786Y-60337542D01*
X93761786Y-60337539D01*
X93707789Y-60183225D01*
X93655493Y-60099996D01*
X153619909Y-60099996D01*
X153619909Y-60100003D01*
X153638212Y-60262455D01*
X153692210Y-60416774D01*
X153692211Y-60416775D01*
X153779192Y-60555204D01*
X153894796Y-60670808D01*
X154033225Y-60757789D01*
X154187539Y-60811786D01*
X154187542Y-60811786D01*
X154187544Y-60811787D01*
X154349996Y-60830091D01*
X154350000Y-60830091D01*
X154350004Y-60830091D01*
X154512455Y-60811787D01*
X154512456Y-60811786D01*
X154512461Y-60811786D01*
X154666775Y-60757789D01*
X154805204Y-60670808D01*
X154920808Y-60555204D01*
X155007789Y-60416775D01*
X155061786Y-60262461D01*
X155061787Y-60262455D01*
X155080091Y-60100003D01*
X155080091Y-60099996D01*
X155061787Y-59937544D01*
X155061786Y-59937542D01*
X155061786Y-59937539D01*
X155007789Y-59783225D01*
X154920808Y-59644796D01*
X154805204Y-59529192D01*
X154666774Y-59442210D01*
X154512455Y-59388212D01*
X154350004Y-59369909D01*
X154349996Y-59369909D01*
X154187544Y-59388212D01*
X154033225Y-59442210D01*
X153894795Y-59529192D01*
X153779192Y-59644795D01*
X153692210Y-59783225D01*
X153638212Y-59937544D01*
X153619909Y-60099996D01*
X93655493Y-60099996D01*
X93620808Y-60044796D01*
X93505204Y-59929192D01*
X93379192Y-59850013D01*
X93366774Y-59842210D01*
X93212455Y-59788212D01*
X93050004Y-59769909D01*
X93049996Y-59769909D01*
X92887544Y-59788212D01*
X92733225Y-59842210D01*
X92594795Y-59929192D01*
X92479192Y-60044795D01*
X92392210Y-60183225D01*
X92338212Y-60337544D01*
X92319909Y-60499996D01*
X90246132Y-60499996D01*
X90212455Y-60488212D01*
X90050004Y-60469909D01*
X90049996Y-60469909D01*
X89887544Y-60488212D01*
X89733225Y-60542210D01*
X89594795Y-60629192D01*
X89479192Y-60744795D01*
X89392210Y-60883225D01*
X89338212Y-61037544D01*
X89319909Y-61199996D01*
X81155498Y-61199996D01*
X81207789Y-61116775D01*
X81261786Y-60962461D01*
X81262604Y-60955204D01*
X81280091Y-60800003D01*
X81280091Y-60799996D01*
X81261787Y-60637544D01*
X81261786Y-60637542D01*
X81261786Y-60637539D01*
X81207789Y-60483225D01*
X81120808Y-60344796D01*
X81005204Y-60229192D01*
X80908442Y-60168392D01*
X80866774Y-60142210D01*
X80732939Y-60095379D01*
X80712461Y-60088214D01*
X80712460Y-60088213D01*
X80712455Y-60088212D01*
X80550004Y-60069909D01*
X80549996Y-60069909D01*
X80387544Y-60088212D01*
X80233225Y-60142210D01*
X80094797Y-60229191D01*
X79995771Y-60328217D01*
X79934448Y-60361701D01*
X79864756Y-60356717D01*
X79808823Y-60314845D01*
X79793529Y-60287988D01*
X79743991Y-60168392D01*
X79629024Y-59996331D01*
X79482706Y-59850013D01*
X79382749Y-59783225D01*
X79310647Y-59735048D01*
X79285802Y-59724757D01*
X79119469Y-59655859D01*
X79119461Y-59655857D01*
X78916518Y-59615489D01*
X78916514Y-59615489D01*
X77709584Y-59615489D01*
X77709579Y-59615489D01*
X77506636Y-59655857D01*
X77506628Y-59655859D01*
X77315452Y-59735047D01*
X77143391Y-59850013D01*
X76997073Y-59996331D01*
X76882107Y-60168392D01*
X76802919Y-60359568D01*
X76802917Y-60359576D01*
X76762549Y-60562519D01*
X75510778Y-60562519D01*
X75486350Y-60408288D01*
X75432821Y-60243544D01*
X75354180Y-60089201D01*
X75252362Y-59949061D01*
X75129876Y-59826575D01*
X74989736Y-59724757D01*
X74835393Y-59646116D01*
X74670649Y-59592587D01*
X74670647Y-59592586D01*
X74670646Y-59592586D01*
X74539219Y-59571770D01*
X74499559Y-59565489D01*
X73726337Y-59565489D01*
X73686676Y-59571770D01*
X73555250Y-59592586D01*
X73390500Y-59646117D01*
X73236159Y-59724757D01*
X73174014Y-59769909D01*
X73096020Y-59826575D01*
X73096018Y-59826577D01*
X73096017Y-59826577D01*
X72973536Y-59949058D01*
X72973536Y-59949059D01*
X72973534Y-59949061D01*
X72939190Y-59996331D01*
X72871716Y-60089200D01*
X72793076Y-60243541D01*
X72739545Y-60408291D01*
X72729786Y-60469909D01*
X72712448Y-60579378D01*
X71470500Y-60579378D01*
X71470500Y-56749996D01*
X93069909Y-56749996D01*
X93069909Y-56750003D01*
X93088212Y-56912455D01*
X93142210Y-57066774D01*
X93142211Y-57066775D01*
X93229192Y-57205204D01*
X93344796Y-57320808D01*
X93483225Y-57407789D01*
X93637539Y-57461786D01*
X93637542Y-57461786D01*
X93637544Y-57461787D01*
X93799996Y-57480091D01*
X93800000Y-57480091D01*
X93800004Y-57480091D01*
X93962455Y-57461787D01*
X93962456Y-57461786D01*
X93962461Y-57461786D01*
X94116775Y-57407789D01*
X94255204Y-57320808D01*
X94304675Y-57271336D01*
X94365996Y-57237852D01*
X94435687Y-57242836D01*
X94491621Y-57284707D01*
X94515575Y-57345134D01*
X94519621Y-57381046D01*
X94573619Y-57535365D01*
X94660601Y-57673795D01*
X94686878Y-57700072D01*
X94720363Y-57761395D01*
X94715379Y-57831087D01*
X94673507Y-57887020D01*
X94640152Y-57904794D01*
X94533227Y-57942209D01*
X94394795Y-58029192D01*
X94279192Y-58144795D01*
X94192210Y-58283225D01*
X94138212Y-58437544D01*
X94119909Y-58599996D01*
X94119909Y-58600003D01*
X94138212Y-58762455D01*
X94192210Y-58916774D01*
X94192211Y-58916775D01*
X94279192Y-59055204D01*
X94394796Y-59170808D01*
X94533225Y-59257789D01*
X94687539Y-59311786D01*
X94687542Y-59311786D01*
X94687544Y-59311787D01*
X94849996Y-59330091D01*
X94850000Y-59330091D01*
X94850004Y-59330091D01*
X95012455Y-59311787D01*
X95012456Y-59311786D01*
X95012461Y-59311786D01*
X95090870Y-59284348D01*
X95160647Y-59280786D01*
X95172773Y-59284347D01*
X95288040Y-59324681D01*
X95288043Y-59324682D01*
X95450497Y-59342986D01*
X95450501Y-59342986D01*
X95450505Y-59342986D01*
X95612956Y-59324682D01*
X95612957Y-59324681D01*
X95612962Y-59324681D01*
X95767276Y-59270684D01*
X95905705Y-59183703D01*
X96021309Y-59068099D01*
X96108290Y-58929670D01*
X96162287Y-58775356D01*
X96163741Y-58762455D01*
X96170778Y-58699996D01*
X104719909Y-58699996D01*
X104719909Y-58700003D01*
X104738212Y-58862455D01*
X104792210Y-59016774D01*
X104824460Y-59068099D01*
X104879192Y-59155204D01*
X104994796Y-59270808D01*
X105133225Y-59357789D01*
X105287539Y-59411786D01*
X105287542Y-59411786D01*
X105287544Y-59411787D01*
X105449996Y-59430091D01*
X105450000Y-59430091D01*
X105450004Y-59430091D01*
X105612455Y-59411787D01*
X105612456Y-59411786D01*
X105612461Y-59411786D01*
X105766775Y-59357789D01*
X105905204Y-59270808D01*
X106020808Y-59155204D01*
X106107789Y-59016775D01*
X106161786Y-58862461D01*
X106161787Y-58862455D01*
X106180091Y-58700003D01*
X106180091Y-58699996D01*
X106161787Y-58537544D01*
X106161786Y-58537542D01*
X106161786Y-58537539D01*
X106107789Y-58383225D01*
X106020808Y-58244796D01*
X105905204Y-58129192D01*
X105766774Y-58042210D01*
X105612455Y-57988212D01*
X105450004Y-57969909D01*
X105449996Y-57969909D01*
X105287544Y-57988212D01*
X105133225Y-58042210D01*
X104994795Y-58129192D01*
X104879192Y-58244795D01*
X104792210Y-58383225D01*
X104738212Y-58537544D01*
X104719909Y-58699996D01*
X96170778Y-58699996D01*
X96180592Y-58612898D01*
X96180592Y-58612891D01*
X96162288Y-58450437D01*
X96121955Y-58335173D01*
X96118393Y-58265394D01*
X96121951Y-58253274D01*
X96149392Y-58174855D01*
X96154537Y-58129192D01*
X96167697Y-58012397D01*
X96167697Y-58012390D01*
X96149393Y-57849938D01*
X96149392Y-57849936D01*
X96149392Y-57849933D01*
X96095395Y-57695619D01*
X96008414Y-57557190D01*
X95969536Y-57518312D01*
X95936051Y-57456989D01*
X95940178Y-57389671D01*
X95943195Y-57381052D01*
X95949983Y-57320807D01*
X95961500Y-57218594D01*
X95961500Y-57218587D01*
X95943196Y-57056135D01*
X95943195Y-57056133D01*
X95943195Y-57056130D01*
X95889198Y-56901816D01*
X95802217Y-56763387D01*
X95686613Y-56647783D01*
X95647894Y-56623454D01*
X95548183Y-56560801D01*
X95393864Y-56506803D01*
X95231413Y-56488500D01*
X95231405Y-56488500D01*
X95068953Y-56506803D01*
X94914634Y-56560801D01*
X94776204Y-56647783D01*
X94726733Y-56697254D01*
X94665410Y-56730738D01*
X94595718Y-56725753D01*
X94539785Y-56683882D01*
X94515833Y-56623454D01*
X94511787Y-56587545D01*
X94511786Y-56587543D01*
X94511786Y-56587539D01*
X94457789Y-56433225D01*
X94370808Y-56294796D01*
X94255204Y-56179192D01*
X94116774Y-56092210D01*
X93962455Y-56038212D01*
X93800004Y-56019909D01*
X93799996Y-56019909D01*
X93637544Y-56038212D01*
X93483225Y-56092210D01*
X93344795Y-56179192D01*
X93229192Y-56294795D01*
X93142210Y-56433225D01*
X93088212Y-56587544D01*
X93069909Y-56749996D01*
X71470500Y-56749996D01*
X71470500Y-53299996D01*
X77769909Y-53299996D01*
X77769909Y-53300003D01*
X77788212Y-53462455D01*
X77842210Y-53616774D01*
X77842211Y-53616775D01*
X77929192Y-53755204D01*
X78044796Y-53870808D01*
X78183225Y-53957789D01*
X78337539Y-54011786D01*
X78337542Y-54011786D01*
X78337544Y-54011787D01*
X78499996Y-54030091D01*
X78500000Y-54030091D01*
X78500004Y-54030091D01*
X78662455Y-54011787D01*
X78662456Y-54011786D01*
X78662461Y-54011786D01*
X78816775Y-53957789D01*
X78955204Y-53870808D01*
X79070808Y-53755204D01*
X79157789Y-53616775D01*
X79211786Y-53462461D01*
X79230091Y-53300000D01*
X79211786Y-53137539D01*
X79157789Y-52983225D01*
X79070808Y-52844796D01*
X78955204Y-52729192D01*
X78816774Y-52642210D01*
X78662455Y-52588212D01*
X78500004Y-52569909D01*
X78499996Y-52569909D01*
X78337544Y-52588212D01*
X78183225Y-52642210D01*
X78044795Y-52729192D01*
X77929192Y-52844795D01*
X77842210Y-52983225D01*
X77788212Y-53137544D01*
X77769909Y-53299996D01*
X71470500Y-53299996D01*
X71470500Y-49249930D01*
X80345266Y-49249930D01*
X80345266Y-49249941D01*
X80364425Y-49481154D01*
X80421381Y-49706071D01*
X80514579Y-49918542D01*
X80598876Y-50047569D01*
X81185451Y-49460994D01*
X81190953Y-49481527D01*
X81269945Y-49618344D01*
X81381656Y-49730055D01*
X81518473Y-49809047D01*
X81539004Y-49814548D01*
X80951265Y-50402287D01*
X80981713Y-50425986D01*
X81185761Y-50536412D01*
X81185770Y-50536415D01*
X81405203Y-50611747D01*
X81634057Y-50649936D01*
X81866071Y-50649936D01*
X82094924Y-50611747D01*
X82314357Y-50536415D01*
X82314365Y-50536412D01*
X82518419Y-50425983D01*
X82548861Y-50402287D01*
X82548862Y-50402286D01*
X81961124Y-49814548D01*
X81981655Y-49809047D01*
X82118472Y-49730055D01*
X82230183Y-49618344D01*
X82309175Y-49481527D01*
X82314676Y-49460995D01*
X82901250Y-50047569D01*
X82985546Y-49918547D01*
X83078746Y-49706071D01*
X83135702Y-49481154D01*
X83154862Y-49249941D01*
X83154862Y-49249930D01*
X86845138Y-49249930D01*
X86845138Y-49249941D01*
X86864297Y-49481154D01*
X86921253Y-49706071D01*
X87014451Y-49918542D01*
X87098748Y-50047569D01*
X87685323Y-49460994D01*
X87690825Y-49481527D01*
X87769817Y-49618344D01*
X87881528Y-49730055D01*
X88018345Y-49809047D01*
X88038876Y-49814548D01*
X87451137Y-50402287D01*
X87481585Y-50425986D01*
X87685633Y-50536412D01*
X87685642Y-50536415D01*
X87905075Y-50611747D01*
X88133929Y-50649936D01*
X88365943Y-50649936D01*
X88594796Y-50611747D01*
X88814229Y-50536415D01*
X88814237Y-50536412D01*
X89018291Y-50425983D01*
X89048733Y-50402287D01*
X89048734Y-50402286D01*
X88460996Y-49814548D01*
X88481527Y-49809047D01*
X88618344Y-49730055D01*
X88730055Y-49618344D01*
X88809047Y-49481527D01*
X88814548Y-49460995D01*
X89401122Y-50047569D01*
X89405846Y-50047079D01*
X89449036Y-50010218D01*
X89518268Y-50000794D01*
X89581604Y-50030295D01*
X89603509Y-50055575D01*
X89641080Y-50113083D01*
X89641083Y-50113087D01*
X89641085Y-50113089D01*
X89798280Y-50283849D01*
X89798283Y-50283851D01*
X89798286Y-50283854D01*
X89981429Y-50426400D01*
X89981435Y-50426404D01*
X89981438Y-50426406D01*
X90148924Y-50517045D01*
X90184716Y-50536415D01*
X90185561Y-50536872D01*
X90299551Y-50576004D01*
X90405079Y-50612233D01*
X90405081Y-50612233D01*
X90405083Y-50612234D01*
X90634015Y-50650436D01*
X90634016Y-50650436D01*
X90866112Y-50650436D01*
X90866113Y-50650436D01*
X91095045Y-50612234D01*
X91314567Y-50536872D01*
X91518690Y-50426406D01*
X91519234Y-50425983D01*
X91580193Y-50378536D01*
X91701848Y-50283849D01*
X91859043Y-50113089D01*
X91985988Y-49918785D01*
X92079221Y-49706236D01*
X92136198Y-49481241D01*
X92136199Y-49481233D01*
X92155364Y-49249942D01*
X92155364Y-49249929D01*
X95844636Y-49249929D01*
X95844636Y-49249942D01*
X95863800Y-49481233D01*
X95863802Y-49481244D01*
X95920778Y-49706236D01*
X96014011Y-49918784D01*
X96140952Y-50113083D01*
X96140955Y-50113087D01*
X96140957Y-50113089D01*
X96298152Y-50283849D01*
X96298155Y-50283851D01*
X96298158Y-50283854D01*
X96481301Y-50426400D01*
X96481307Y-50426404D01*
X96481310Y-50426406D01*
X96648796Y-50517045D01*
X96684588Y-50536415D01*
X96685433Y-50536872D01*
X96799423Y-50576004D01*
X96904951Y-50612233D01*
X96904953Y-50612233D01*
X96904955Y-50612234D01*
X97133887Y-50650436D01*
X97133888Y-50650436D01*
X97365984Y-50650436D01*
X97365985Y-50650436D01*
X97594917Y-50612234D01*
X97814439Y-50536872D01*
X98018562Y-50426406D01*
X98019106Y-50425983D01*
X98080065Y-50378536D01*
X98201720Y-50283849D01*
X98358915Y-50113089D01*
X98485860Y-49918785D01*
X98579093Y-49706236D01*
X98636070Y-49481241D01*
X98636071Y-49481233D01*
X98655236Y-49249942D01*
X98655236Y-49249929D01*
X98636071Y-49018638D01*
X98636069Y-49018627D01*
X98579093Y-48793635D01*
X98485860Y-48581087D01*
X98358919Y-48386788D01*
X98358916Y-48386785D01*
X98358915Y-48386783D01*
X98201720Y-48216023D01*
X98201715Y-48216019D01*
X98201713Y-48216017D01*
X98018570Y-48073471D01*
X98018564Y-48073467D01*
X97814440Y-47963000D01*
X97814431Y-47962997D01*
X97594920Y-47887638D01*
X97423218Y-47858986D01*
X97365985Y-47849436D01*
X97133887Y-47849436D01*
X97088100Y-47857076D01*
X96904951Y-47887638D01*
X96685440Y-47962997D01*
X96685431Y-47963000D01*
X96481307Y-48073467D01*
X96481301Y-48073471D01*
X96298158Y-48216017D01*
X96298155Y-48216020D01*
X96140952Y-48386788D01*
X96014011Y-48581087D01*
X95920778Y-48793635D01*
X95863802Y-49018627D01*
X95863800Y-49018638D01*
X95844636Y-49249929D01*
X92155364Y-49249929D01*
X92136199Y-49018638D01*
X92136197Y-49018627D01*
X92079221Y-48793635D01*
X91985988Y-48581087D01*
X91859047Y-48386788D01*
X91859044Y-48386785D01*
X91859043Y-48386783D01*
X91701848Y-48216023D01*
X91701843Y-48216019D01*
X91701841Y-48216017D01*
X91518698Y-48073471D01*
X91518692Y-48073467D01*
X91314568Y-47963000D01*
X91314559Y-47962997D01*
X91095048Y-47887638D01*
X90923346Y-47858986D01*
X90866113Y-47849436D01*
X90634015Y-47849436D01*
X90588228Y-47857076D01*
X90405079Y-47887638D01*
X90185568Y-47962997D01*
X90185559Y-47963000D01*
X89981435Y-48073467D01*
X89981429Y-48073471D01*
X89798286Y-48216017D01*
X89798283Y-48216020D01*
X89641082Y-48386786D01*
X89603510Y-48444296D01*
X89550363Y-48489652D01*
X89481132Y-48499076D01*
X89417796Y-48469574D01*
X89402997Y-48452495D01*
X89401122Y-48452301D01*
X88814548Y-49038875D01*
X88809047Y-49018345D01*
X88730055Y-48881528D01*
X88618344Y-48769817D01*
X88481527Y-48690825D01*
X88460994Y-48685323D01*
X89048733Y-48097583D01*
X89048733Y-48097581D01*
X89018296Y-48073891D01*
X89018290Y-48073887D01*
X88814238Y-47963459D01*
X88814229Y-47963456D01*
X88594796Y-47888124D01*
X88365943Y-47849936D01*
X88133929Y-47849936D01*
X87905075Y-47888124D01*
X87685642Y-47963456D01*
X87685633Y-47963459D01*
X87481586Y-48073885D01*
X87451136Y-48097583D01*
X88038877Y-48685323D01*
X88018345Y-48690825D01*
X87881528Y-48769817D01*
X87769817Y-48881528D01*
X87690825Y-49018345D01*
X87685323Y-49038877D01*
X87098747Y-48452301D01*
X87014452Y-48581326D01*
X86921253Y-48793800D01*
X86864297Y-49018717D01*
X86845138Y-49249930D01*
X83154862Y-49249930D01*
X83135702Y-49018717D01*
X83078746Y-48793800D01*
X82985548Y-48581329D01*
X82901250Y-48452301D01*
X82314676Y-49038875D01*
X82309175Y-49018345D01*
X82230183Y-48881528D01*
X82118472Y-48769817D01*
X81981655Y-48690825D01*
X81961122Y-48685323D01*
X82548861Y-48097583D01*
X82548861Y-48097581D01*
X82518424Y-48073891D01*
X82518418Y-48073887D01*
X82314366Y-47963459D01*
X82314357Y-47963456D01*
X82094924Y-47888124D01*
X81866071Y-47849936D01*
X81634057Y-47849936D01*
X81405203Y-47888124D01*
X81185770Y-47963456D01*
X81185761Y-47963459D01*
X80981714Y-48073885D01*
X80951264Y-48097583D01*
X81539005Y-48685323D01*
X81518473Y-48690825D01*
X81381656Y-48769817D01*
X81269945Y-48881528D01*
X81190953Y-49018345D01*
X81185451Y-49038877D01*
X80598875Y-48452301D01*
X80514580Y-48581326D01*
X80421381Y-48793800D01*
X80364425Y-49018717D01*
X80345266Y-49249930D01*
X71470500Y-49249930D01*
X71470500Y-43594500D01*
X71490185Y-43527461D01*
X71542989Y-43481706D01*
X71594500Y-43470500D01*
X80752693Y-43470500D01*
X80819732Y-43490185D01*
G37*
%TD.AperFunction*%
%TD*%
M02*
